STARTFONT 2.2
FONT -FontForge-SimSun-Book-R-Normal--11-110-75-75-P-109-ISO10646-1
SIZE 11 75 75
FONTBOUNDINGBOX 13 12 -1 -2
METRICSSET 2
SWIDTH 59602 0
DWIDTH 11 0
SWIDTH1 59602 0
DWIDTH1 11 0
VVECTOR 5,9
COMMENT "Generated by fontforge, http://fontforge.sourceforge.net"
COMMENT "Copyright 2009 Zpix by SolidZORO"
STARTPROPERTIES 38
FOUNDRY "FontForge"
FAMILY_NAME "Zpix"
WEIGHT_NAME "Book"
SLANT "R"
SETWIDTH_NAME "Normal"
ADD_STYLE_NAME ""
PIXEL_SIZE 11
POINT_SIZE 110
RESOLUTION_X 75
RESOLUTION_Y 75
SPACING "P"
AVERAGE_WIDTH 109
CHARSET_REGISTRY "ISO10646"
CHARSET_ENCODING "1"
FONTNAME_REGISTRY ""
CHARSET_COLLECTIONS "ASCII ISOLatin1Encoding ISO8859-5 JISX0208.1997 GB2312.1980 BIG5 ISO10646-1"
FONT_NAME "Zpix"
FACE_NAME "Zpix"
FONT_VERSION "R1"
FONT_ASCENT 9
FONT_DESCENT 2
UNDERLINE_POSITION -1
UNDERLINE_THICKNESS 1
X_HEIGHT 5
CAP_HEIGHT 7
RAW_ASCENT 859
RAW_DESCENT 140
RELATIVE_WEIGHT 40
RELATIVE_SETWIDTH 50
SUPERSCRIPT_X 0
SUPERSCRIPT_Y 5
SUPERSCRIPT_SIZE 5
SUBSCRIPT_X 0
SUBSCRIPT_Y 0
SUBSCRIPT_SIZE 5
FIGURE_WIDTH 6
AVG_LOWERCASE_WIDTH 85
AVG_UPPERCASE_WIDTH 89
ENDPROPERTIES
CHARS 22036
STARTCHAR exclam
ENCODING 33
SWIDTH 500 0
DWIDTH 6 0
SWIDTH1 1000 0
BBX 1 8 2 0
BITMAP
80
80
80
80
80
00
80
80
ENDCHAR
STARTCHAR quotedbl
ENCODING 34
SWIDTH 500 0
DWIDTH 6 0
SWIDTH1 1000 0
BBX 3 2 1 6
BITMAP
A0
A0
ENDCHAR
STARTCHAR numbersign
ENCODING 35
SWIDTH 500 0
DWIDTH 6 0
SWIDTH1 1000 0
BBX 5 8 0 0
BITMAP
50
50
F8
50
50
F8
50
50
ENDCHAR
STARTCHAR dollar
ENCODING 36
SWIDTH 500 0
DWIDTH 6 0
SWIDTH1 1000 0
BBX 5 10 0 -1
BITMAP
20
70
A8
A0
60
30
28
A8
70
20
ENDCHAR
STARTCHAR percent
ENCODING 37
SWIDTH 500 0
DWIDTH 6 0
SWIDTH1 1000 0
BBX 5 9 0 -1
BITMAP
48
A8
B0
50
20
50
68
A8
90
ENDCHAR
STARTCHAR ampersand
ENCODING 38
SWIDTH 500 0
DWIDTH 6 0
SWIDTH1 1000 0
BBX 5 8 0 0
BITMAP
40
A0
A0
48
A8
90
90
68
ENDCHAR
STARTCHAR quotesingle
ENCODING 39
SWIDTH 500 0
DWIDTH 6 0
SWIDTH1 1000 0
BBX 1 2 2 6
BITMAP
80
80
ENDCHAR
STARTCHAR parenleft
ENCODING 40
SWIDTH 500 0
DWIDTH 6 0
SWIDTH1 1000 0
BBX 3 11 2 -2
BITMAP
20
40
40
80
80
80
80
80
40
40
20
ENDCHAR
STARTCHAR parenright
ENCODING 41
SWIDTH 500 0
DWIDTH 6 0
SWIDTH1 1000 0
BBX 3 11 1 -2
BITMAP
80
40
40
20
20
20
20
20
40
40
80
ENDCHAR
STARTCHAR asterisk
ENCODING 42
SWIDTH 500 0
DWIDTH 6 0
SWIDTH1 1000 0
BBX 5 5 0 1
BITMAP
20
20
F8
20
50
ENDCHAR
STARTCHAR plus
ENCODING 43
SWIDTH 500 0
DWIDTH 6 0
SWIDTH1 1000 0
BBX 5 5 0 1
BITMAP
20
20
F8
20
20
ENDCHAR
STARTCHAR comma
ENCODING 44
SWIDTH 500 0
DWIDTH 6 0
SWIDTH1 1000 0
BBX 2 3 1 -2
BITMAP
40
40
80
ENDCHAR
STARTCHAR hyphen
ENCODING 45
SWIDTH 500 0
DWIDTH 6 0
SWIDTH1 1000 0
BBX 5 1 0 3
BITMAP
F8
ENDCHAR
STARTCHAR period
ENCODING 46
SWIDTH 500 0
DWIDTH 6 0
SWIDTH1 1000 0
BBX 1 1 2 0
BITMAP
80
ENDCHAR
STARTCHAR slash
ENCODING 47
SWIDTH 500 0
DWIDTH 6 0
SWIDTH1 1000 0
BBX 3 8 1 0
BITMAP
20
20
40
40
40
40
80
80
ENDCHAR
STARTCHAR zero
ENCODING 48
SWIDTH 500 0
DWIDTH 6 0
SWIDTH1 1000 0
BBX 5 8 0 0
BITMAP
70
88
88
88
88
88
88
70
ENDCHAR
STARTCHAR one
ENCODING 49
SWIDTH 500 0
DWIDTH 6 0
SWIDTH1 1000 0
BBX 2 8 1 0
BITMAP
40
C0
40
40
40
40
40
40
ENDCHAR
STARTCHAR two
ENCODING 50
SWIDTH 500 0
DWIDTH 6 0
SWIDTH1 1000 0
BBX 5 8 0 0
BITMAP
70
88
88
10
20
40
80
F8
ENDCHAR
STARTCHAR three
ENCODING 51
SWIDTH 500 0
DWIDTH 6 0
SWIDTH1 1000 0
BBX 5 8 0 0
BITMAP
70
88
88
30
08
88
88
70
ENDCHAR
STARTCHAR four
ENCODING 52
SWIDTH 500 0
DWIDTH 6 0
SWIDTH1 1000 0
BBX 5 8 0 0
BITMAP
30
30
50
50
90
F8
10
10
ENDCHAR
STARTCHAR five
ENCODING 53
SWIDTH 500 0
DWIDTH 6 0
SWIDTH1 1000 0
BBX 5 8 0 0
BITMAP
F8
80
80
F0
88
08
88
70
ENDCHAR
STARTCHAR six
ENCODING 54
SWIDTH 500 0
DWIDTH 6 0
SWIDTH1 1000 0
BBX 5 8 0 0
BITMAP
70
88
80
F0
88
88
88
70
ENDCHAR
STARTCHAR seven
ENCODING 55
SWIDTH 500 0
DWIDTH 6 0
SWIDTH1 1000 0
BBX 5 8 0 0
BITMAP
F8
88
10
10
20
20
20
20
ENDCHAR
STARTCHAR eight
ENCODING 56
SWIDTH 500 0
DWIDTH 6 0
SWIDTH1 1000 0
BBX 5 8 0 0
BITMAP
70
88
88
70
88
88
88
70
ENDCHAR
STARTCHAR nine
ENCODING 57
SWIDTH 500 0
DWIDTH 6 0
SWIDTH1 1000 0
BBX 5 8 0 0
BITMAP
70
88
88
88
78
08
88
70
ENDCHAR
STARTCHAR colon
ENCODING 58
SWIDTH 500 0
DWIDTH 6 0
SWIDTH1 1000 0
BBX 1 5 2 1
BITMAP
80
00
00
00
80
ENDCHAR
STARTCHAR semicolon
ENCODING 59
SWIDTH 500 0
DWIDTH 6 0
SWIDTH1 1000 0
BBX 2 6 1 0
BITMAP
40
00
00
00
40
80
ENDCHAR
STARTCHAR less
ENCODING 60
SWIDTH 500 0
DWIDTH 6 0
SWIDTH1 1000 0
BBX 5 5 0 2
BITMAP
18
60
80
60
18
ENDCHAR
STARTCHAR equal
ENCODING 61
SWIDTH 500 0
DWIDTH 6 0
SWIDTH1 1000 0
BBX 5 3 0 3
BITMAP
F8
00
F8
ENDCHAR
STARTCHAR greater
ENCODING 62
SWIDTH 500 0
DWIDTH 6 0
SWIDTH1 1000 0
BBX 5 5 0 2
BITMAP
C0
30
08
30
C0
ENDCHAR
STARTCHAR question
ENCODING 63
SWIDTH 500 0
DWIDTH 6 0
SWIDTH1 1000 0
BBX 5 8 0 0
BITMAP
70
88
08
10
20
20
00
20
ENDCHAR
STARTCHAR at
ENCODING 64
SWIDTH 500 0
DWIDTH 6 0
SWIDTH1 1000 0
BBX 5 9 0 -1
BITMAP
70
88
98
A8
A8
A8
B8
80
70
ENDCHAR
STARTCHAR A
ENCODING 65
SWIDTH 500 0
DWIDTH 6 0
SWIDTH1 1000 0
BBX 5 8 0 0
BITMAP
20
20
50
50
70
88
88
88
ENDCHAR
STARTCHAR B
ENCODING 66
SWIDTH 500 0
DWIDTH 6 0
SWIDTH1 1000 0
BBX 5 8 0 0
BITMAP
F0
88
88
F0
88
88
88
F0
ENDCHAR
STARTCHAR C
ENCODING 67
SWIDTH 500 0
DWIDTH 6 0
SWIDTH1 1000 0
BBX 5 8 0 0
BITMAP
70
88
88
80
80
88
88
70
ENDCHAR
STARTCHAR D
ENCODING 68
SWIDTH 500 0
DWIDTH 6 0
SWIDTH1 1000 0
BBX 5 8 0 0
BITMAP
F0
88
88
88
88
88
88
F0
ENDCHAR
STARTCHAR E
ENCODING 69
SWIDTH 500 0
DWIDTH 6 0
SWIDTH1 1000 0
BBX 5 8 0 0
BITMAP
F8
80
80
F8
80
80
80
F8
ENDCHAR
STARTCHAR F
ENCODING 70
SWIDTH 500 0
DWIDTH 6 0
SWIDTH1 1000 0
BBX 5 8 0 0
BITMAP
F8
80
80
F0
80
80
80
80
ENDCHAR
STARTCHAR G
ENCODING 71
SWIDTH 500 0
DWIDTH 6 0
SWIDTH1 1000 0
BBX 5 8 0 0
BITMAP
70
88
80
B8
88
88
98
68
ENDCHAR
STARTCHAR H
ENCODING 72
SWIDTH 500 0
DWIDTH 6 0
SWIDTH1 1000 0
BBX 5 8 0 0
BITMAP
88
88
88
F8
88
88
88
88
ENDCHAR
STARTCHAR I
ENCODING 73
SWIDTH 500 0
DWIDTH 6 0
SWIDTH1 1000 0
BBX 3 8 1 0
BITMAP
E0
40
40
40
40
40
40
E0
ENDCHAR
STARTCHAR J
ENCODING 74
SWIDTH 500 0
DWIDTH 6 0
SWIDTH1 1000 0
BBX 5 8 0 0
BITMAP
08
08
08
08
08
88
88
70
ENDCHAR
STARTCHAR K
ENCODING 75
SWIDTH 500 0
DWIDTH 6 0
SWIDTH1 1000 0
BBX 5 8 0 0
BITMAP
88
90
A0
C0
C0
A0
90
88
ENDCHAR
STARTCHAR L
ENCODING 76
SWIDTH 500 0
DWIDTH 6 0
SWIDTH1 1000 0
BBX 5 8 0 0
BITMAP
80
80
80
80
80
80
80
F8
ENDCHAR
STARTCHAR M
ENCODING 77
SWIDTH 500 0
DWIDTH 6 0
SWIDTH1 1000 0
BBX 5 8 0 0
BITMAP
88
D8
D8
A8
A8
88
88
88
ENDCHAR
STARTCHAR N
ENCODING 78
SWIDTH 500 0
DWIDTH 6 0
SWIDTH1 1000 0
BBX 5 8 0 0
BITMAP
88
C8
C8
A8
A8
98
98
88
ENDCHAR
STARTCHAR O
ENCODING 79
SWIDTH 500 0
DWIDTH 6 0
SWIDTH1 1000 0
BBX 5 8 0 0
BITMAP
70
88
88
88
88
88
88
70
ENDCHAR
STARTCHAR P
ENCODING 80
SWIDTH 500 0
DWIDTH 6 0
SWIDTH1 1000 0
BBX 5 8 0 0
BITMAP
F0
88
88
88
F0
80
80
80
ENDCHAR
STARTCHAR Q
ENCODING 81
SWIDTH 500 0
DWIDTH 6 0
SWIDTH1 1000 0
BBX 5 9 0 -1
BITMAP
70
88
88
88
88
88
A8
70
08
ENDCHAR
STARTCHAR R
ENCODING 82
SWIDTH 500 0
DWIDTH 6 0
SWIDTH1 1000 0
BBX 5 8 0 0
BITMAP
F0
88
88
88
F0
88
88
88
ENDCHAR
STARTCHAR S
ENCODING 83
SWIDTH 500 0
DWIDTH 6 0
SWIDTH1 1000 0
BBX 5 8 0 0
BITMAP
70
88
80
60
10
08
88
70
ENDCHAR
STARTCHAR T
ENCODING 84
SWIDTH 500 0
DWIDTH 6 0
SWIDTH1 1000 0
BBX 5 8 0 0
BITMAP
F8
20
20
20
20
20
20
20
ENDCHAR
STARTCHAR U
ENCODING 85
SWIDTH 500 0
DWIDTH 6 0
SWIDTH1 1000 0
BBX 5 8 0 0
BITMAP
88
88
88
88
88
88
88
70
ENDCHAR
STARTCHAR V
ENCODING 86
SWIDTH 500 0
DWIDTH 6 0
SWIDTH1 1000 0
BBX 5 8 0 0
BITMAP
88
88
88
50
50
50
20
20
ENDCHAR
STARTCHAR W
ENCODING 87
SWIDTH 500 0
DWIDTH 6 0
SWIDTH1 1000 0
BBX 5 8 0 0
BITMAP
A8
A8
A8
A8
A8
A8
50
50
ENDCHAR
STARTCHAR X
ENCODING 88
SWIDTH 500 0
DWIDTH 6 0
SWIDTH1 1000 0
BBX 5 8 0 0
BITMAP
88
88
50
20
20
50
88
88
ENDCHAR
STARTCHAR Y
ENCODING 89
SWIDTH 500 0
DWIDTH 6 0
SWIDTH1 1000 0
BBX 5 8 0 0
BITMAP
88
88
88
50
20
20
20
20
ENDCHAR
STARTCHAR Z
ENCODING 90
SWIDTH 500 0
DWIDTH 6 0
SWIDTH1 1000 0
BBX 5 8 0 0
BITMAP
F8
08
10
20
20
40
80
F8
ENDCHAR
STARTCHAR bracketleft
ENCODING 91
SWIDTH 500 0
DWIDTH 6 0
SWIDTH1 1000 0
BBX 2 10 2 -1
BITMAP
C0
80
80
80
80
80
80
80
80
C0
ENDCHAR
STARTCHAR backslash
ENCODING 92
SWIDTH 500 0
DWIDTH 6 0
SWIDTH1 1000 0
BBX 3 8 1 0
BITMAP
80
80
40
40
40
40
20
20
ENDCHAR
STARTCHAR bracketright
ENCODING 93
SWIDTH 500 0
DWIDTH 6 0
SWIDTH1 1000 0
BBX 2 10 2 -1
BITMAP
C0
40
40
40
40
40
40
40
40
C0
ENDCHAR
STARTCHAR asciicircum
ENCODING 94
SWIDTH 500 0
DWIDTH 6 0
SWIDTH1 1000 0
BBX 5 3 0 5
BITMAP
20
50
88
ENDCHAR
STARTCHAR underscore
ENCODING 95
SWIDTH 500 0
DWIDTH 6 0
SWIDTH1 1000 0
BBX 5 1 0 -1
BITMAP
F8
ENDCHAR
STARTCHAR grave
ENCODING 96
SWIDTH 500 0
DWIDTH 6 0
SWIDTH1 1000 0
BBX 1 2 2 6
BITMAP
80
80
ENDCHAR
STARTCHAR a
ENCODING 97
SWIDTH 500 0
DWIDTH 6 0
SWIDTH1 1000 0
BBX 5 6 0 0
BITMAP
F0
08
78
88
88
78
ENDCHAR
STARTCHAR b
ENCODING 98
SWIDTH 500 0
DWIDTH 6 0
SWIDTH1 1000 0
BBX 5 8 0 0
BITMAP
80
80
F0
88
88
88
88
F0
ENDCHAR
STARTCHAR c
ENCODING 99
SWIDTH 500 0
DWIDTH 6 0
SWIDTH1 1000 0
BBX 5 6 0 0
BITMAP
70
88
80
80
88
70
ENDCHAR
STARTCHAR d
ENCODING 100
SWIDTH 500 0
DWIDTH 6 0
SWIDTH1 1000 0
BBX 5 8 0 0
BITMAP
08
08
78
88
88
88
88
78
ENDCHAR
STARTCHAR e
ENCODING 101
SWIDTH 500 0
DWIDTH 6 0
SWIDTH1 1000 0
BBX 5 6 0 0
BITMAP
70
88
F8
80
88
70
ENDCHAR
STARTCHAR f
ENCODING 102
SWIDTH 500 0
DWIDTH 6 0
SWIDTH1 1000 0
BBX 4 8 1 0
BITMAP
30
40
F0
40
40
40
40
40
ENDCHAR
STARTCHAR g
ENCODING 103
SWIDTH 500 0
DWIDTH 6 0
SWIDTH1 1000 0
BBX 5 8 0 -2
BITMAP
78
88
88
88
78
08
88
70
ENDCHAR
STARTCHAR h
ENCODING 104
SWIDTH 500 0
DWIDTH 6 0
SWIDTH1 1000 0
BBX 5 8 0 0
BITMAP
80
80
F0
88
88
88
88
88
ENDCHAR
STARTCHAR i
ENCODING 105
SWIDTH 500 0
DWIDTH 6 0
SWIDTH1 1000 0
BBX 3 8 1 0
BITMAP
40
00
C0
40
40
40
40
E0
ENDCHAR
STARTCHAR j
ENCODING 106
SWIDTH 500 0
DWIDTH 6 0
SWIDTH1 1000 0
BBX 2 10 1 -2
BITMAP
40
00
C0
40
40
40
40
40
40
80
ENDCHAR
STARTCHAR k
ENCODING 107
SWIDTH 500 0
DWIDTH 6 0
SWIDTH1 1000 0
BBX 4 8 0 0
BITMAP
80
80
90
A0
C0
C0
A0
90
ENDCHAR
STARTCHAR l
ENCODING 108
SWIDTH 500 0
DWIDTH 6 0
SWIDTH1 1000 0
BBX 3 8 1 0
BITMAP
C0
40
40
40
40
40
40
E0
ENDCHAR
STARTCHAR m
ENCODING 109
SWIDTH 500 0
DWIDTH 6 0
SWIDTH1 1000 0
BBX 5 6 0 0
BITMAP
D0
A8
A8
A8
A8
A8
ENDCHAR
STARTCHAR n
ENCODING 110
SWIDTH 500 0
DWIDTH 6 0
SWIDTH1 1000 0
BBX 5 6 0 0
BITMAP
F0
88
88
88
88
88
ENDCHAR
STARTCHAR o
ENCODING 111
SWIDTH 500 0
DWIDTH 6 0
SWIDTH1 1000 0
BBX 5 6 0 0
BITMAP
70
88
88
88
88
70
ENDCHAR
STARTCHAR p
ENCODING 112
SWIDTH 500 0
DWIDTH 6 0
SWIDTH1 1000 0
BBX 5 8 0 -2
BITMAP
F0
88
88
88
88
F0
80
80
ENDCHAR
STARTCHAR q
ENCODING 113
SWIDTH 500 0
DWIDTH 6 0
SWIDTH1 1000 0
BBX 5 8 0 -2
BITMAP
78
88
88
88
88
78
08
08
ENDCHAR
STARTCHAR r
ENCODING 114
SWIDTH 500 0
DWIDTH 6 0
SWIDTH1 1000 0
BBX 4 6 1 0
BITMAP
B0
C0
80
80
80
80
ENDCHAR
STARTCHAR s
ENCODING 115
SWIDTH 500 0
DWIDTH 6 0
SWIDTH1 1000 0
BBX 5 6 0 0
BITMAP
70
88
60
10
88
70
ENDCHAR
STARTCHAR t
ENCODING 116
SWIDTH 500 0
DWIDTH 6 0
SWIDTH1 1000 0
BBX 3 8 1 0
BITMAP
40
40
E0
40
40
40
40
60
ENDCHAR
STARTCHAR u
ENCODING 117
SWIDTH 500 0
DWIDTH 6 0
SWIDTH1 1000 0
BBX 5 6 0 0
BITMAP
88
88
88
88
88
70
ENDCHAR
STARTCHAR v
ENCODING 118
SWIDTH 500 0
DWIDTH 6 0
SWIDTH1 1000 0
BBX 5 6 0 0
BITMAP
88
88
50
50
20
20
ENDCHAR
STARTCHAR w
ENCODING 119
SWIDTH 500 0
DWIDTH 6 0
SWIDTH1 1000 0
BBX 5 6 0 0
BITMAP
A8
A8
A8
A8
70
50
ENDCHAR
STARTCHAR x
ENCODING 120
SWIDTH 500 0
DWIDTH 6 0
SWIDTH1 1000 0
BBX 5 6 0 0
BITMAP
88
50
20
20
50
88
ENDCHAR
STARTCHAR y
ENCODING 121
SWIDTH 500 0
DWIDTH 6 0
SWIDTH1 1000 0
BBX 5 8 0 -2
BITMAP
88
88
88
50
50
20
20
C0
ENDCHAR
STARTCHAR z
ENCODING 122
SWIDTH 500 0
DWIDTH 6 0
SWIDTH1 1000 0
BBX 4 6 0 0
BITMAP
F0
10
20
40
80
F0
ENDCHAR
STARTCHAR braceleft
ENCODING 123
SWIDTH 500 0
DWIDTH 6 0
SWIDTH1 1000 0
BBX 3 10 2 -1
BITMAP
60
40
40
40
80
40
40
40
40
60
ENDCHAR
STARTCHAR bar
ENCODING 124
SWIDTH 500 0
DWIDTH 6 0
SWIDTH1 1000 0
BBX 1 10 2 -1
BITMAP
80
80
80
80
80
80
80
80
80
80
ENDCHAR
STARTCHAR braceright
ENCODING 125
SWIDTH 500 0
DWIDTH 6 0
SWIDTH1 1000 0
BBX 3 10 1 -1
BITMAP
C0
40
40
40
20
40
40
40
40
C0
ENDCHAR
STARTCHAR asciitilde
ENCODING 126
SWIDTH 500 0
DWIDTH 6 0
SWIDTH1 1000 0
BBX 5 2 0 7
BITMAP
68
90
ENDCHAR
STARTCHAR exclamdown
ENCODING 161
SWIDTH 500 0
DWIDTH 6 0
SWIDTH1 1000 0
BBX 1 8 2 0
BITMAP
80
80
00
80
80
80
80
80
ENDCHAR
STARTCHAR cent
ENCODING 162
SWIDTH 500 0
DWIDTH 6 0
SWIDTH1 1000 0
BBX 4 8 0 -1
BITMAP
20
20
70
A0
A0
A0
70
20
ENDCHAR
STARTCHAR sterling
ENCODING 163
SWIDTH 500 0
DWIDTH 6 0
SWIDTH1 1000 0
BBX 4 8 0 -1
BITMAP
60
80
80
C0
80
80
D0
A0
ENDCHAR
STARTCHAR currency
ENCODING 164
SWIDTH 1000 0
SWIDTH1 1000 0
BBX 11 10 0 -1
BITMAP
8020
5F40
2080
4040
4040
4040
4040
2080
5F40
8020
ENDCHAR
STARTCHAR yen
ENCODING 165
SWIDTH 500 0
DWIDTH 6 0
SWIDTH1 1000 0
BBX 4 7 0 0
BITMAP
90
90
60
F0
40
F0
40
ENDCHAR
STARTCHAR brokenbar
ENCODING 166
SWIDTH 500 0
DWIDTH 6 0
SWIDTH1 1000 0
BBX 1 1 2 -2
BITMAP
00
ENDCHAR
STARTCHAR section
ENCODING 167
SWIDTH 1000 0
SWIDTH1 1000 0
BBX 4 9 2 0
BITMAP
70
80
60
90
90
60
10
90
60
ENDCHAR
STARTCHAR dieresis
ENCODING 168
SWIDTH 1000 0
SWIDTH1 1000 0
BBX 4 2 2 7
BITMAP
90
90
ENDCHAR
STARTCHAR copyright
ENCODING 169
SWIDTH 500 0
DWIDTH 6 0
SWIDTH1 1000 0
BBX 5 7 0 0
BITMAP
70
88
B8
C8
B8
88
70
ENDCHAR
STARTCHAR ordfeminine
ENCODING 170
SWIDTH 500 0
DWIDTH 6 0
SWIDTH1 1000 0
BBX 4 5 0 4
BITMAP
C0
20
E0
A0
D0
ENDCHAR
STARTCHAR guillemotleft
ENCODING 171
SWIDTH 500 0
DWIDTH 6 0
SWIDTH1 1000 0
BBX 5 5 0 2
BITMAP
28
50
A0
50
28
ENDCHAR
STARTCHAR logicalnot
ENCODING 172
SWIDTH 500 0
DWIDTH 6 0
SWIDTH1 1000 0
BBX 4 2 0 5
BITMAP
F0
10
ENDCHAR
STARTCHAR uni00AD
ENCODING 173
SWIDTH 500 0
DWIDTH 6 0
SWIDTH1 1000 0
BBX 4 1 -1 -1
BITMAP
F0
ENDCHAR
STARTCHAR registered
ENCODING 174
SWIDTH 500 0
DWIDTH 6 0
SWIDTH1 1000 0
BBX 5 7 0 0
BITMAP
70
88
E8
98
E8
98
70
ENDCHAR
STARTCHAR macron
ENCODING 175
SWIDTH 500 0
DWIDTH 6 0
SWIDTH1 1000 0
BBX 5 1 -1 -1
BITMAP
F8
ENDCHAR
STARTCHAR degree
ENCODING 176
SWIDTH 1000 0
SWIDTH1 1000 0
BBX 3 3 0 6
BITMAP
40
A0
40
ENDCHAR
STARTCHAR plusminus
ENCODING 177
SWIDTH 1000 0
SWIDTH1 1000 0
BBX 5 5 2 2
BITMAP
20
F8
20
00
F8
ENDCHAR
STARTCHAR uni00B2
ENCODING 178
SWIDTH 500 0
DWIDTH 6 0
SWIDTH1 1000 0
BBX 3 4 1 4
BITMAP
E0
20
40
E0
ENDCHAR
STARTCHAR uni00B3
ENCODING 179
SWIDTH 500 0
DWIDTH 6 0
SWIDTH1 1000 0
BBX 3 4 1 4
BITMAP
E0
40
20
E0
ENDCHAR
STARTCHAR acute
ENCODING 180
SWIDTH 500 0
DWIDTH 6 0
SWIDTH1 1000 0
BBX 3 2 2 7
BITMAP
60
80
ENDCHAR
STARTCHAR mu
ENCODING 181
SWIDTH 500 0
DWIDTH 6 0
SWIDTH1 1000 0
BBX 4 6 0 -1
BITMAP
90
90
90
90
F0
80
ENDCHAR
STARTCHAR paragraph
ENCODING 182
SWIDTH 500 0
DWIDTH 6 0
SWIDTH1 1000 0
BBX 6 9 0 -1
BITMAP
7C
E8
E8
E8
68
28
28
28
28
ENDCHAR
STARTCHAR periodcentered
ENCODING 183
SWIDTH 1000 0
SWIDTH1 1000 0
BBX 3 3 4 3
BITMAP
E0
E0
E0
ENDCHAR
STARTCHAR cedilla
ENCODING 184
SWIDTH 500 0
DWIDTH 6 0
SWIDTH1 1000 0
BBX 2 3 2 -1
BITMAP
C0
40
80
ENDCHAR
STARTCHAR uni00B9
ENCODING 185
SWIDTH 500 0
DWIDTH 6 0
SWIDTH1 1000 0
BBX 2 4 1 4
BITMAP
C0
40
40
40
ENDCHAR
STARTCHAR ordmasculine
ENCODING 186
SWIDTH 500 0
DWIDTH 6 0
SWIDTH1 1000 0
BBX 3 4 1 4
BITMAP
40
A0
A0
40
ENDCHAR
STARTCHAR guillemotright
ENCODING 187
SWIDTH 500 0
DWIDTH 6 0
SWIDTH1 1000 0
BBX 5 5 0 2
BITMAP
A0
50
28
50
A0
ENDCHAR
STARTCHAR onequarter
ENCODING 188
SWIDTH 500 0
DWIDTH 6 0
SWIDTH1 1000 0
BBX 4 7 0 0
BITMAP
80
90
A0
50
B0
70
10
ENDCHAR
STARTCHAR onehalf
ENCODING 189
SWIDTH 500 0
DWIDTH 6 0
SWIDTH1 1000 0
BBX 4 7 0 0
BITMAP
80
90
A0
70
D0
20
70
ENDCHAR
STARTCHAR threequarters
ENCODING 190
SWIDTH 500 0
DWIDTH 6 0
SWIDTH1 1000 0
BBX 4 7 0 0
BITMAP
C0
90
60
D0
B0
70
10
ENDCHAR
STARTCHAR questiondown
ENCODING 191
SWIDTH 500 0
DWIDTH 6 0
SWIDTH1 1000 0
BBX 4 7 0 -1
BITMAP
20
00
20
40
90
90
60
ENDCHAR
STARTCHAR Agrave
ENCODING 192
SWIDTH 500 0
DWIDTH 6 0
SWIDTH1 1000 0
BBX 4 8 0 0
BITMAP
40
20
60
90
90
F0
90
90
ENDCHAR
STARTCHAR Aacute
ENCODING 193
SWIDTH 500 0
DWIDTH 6 0
SWIDTH1 1000 0
BBX 4 8 0 0
BITMAP
20
40
60
90
90
F0
90
90
ENDCHAR
STARTCHAR Acircumflex
ENCODING 194
SWIDTH 500 0
DWIDTH 6 0
SWIDTH1 1000 0
BBX 4 8 0 0
BITMAP
40
A0
60
90
90
F0
90
90
ENDCHAR
STARTCHAR Atilde
ENCODING 195
SWIDTH 500 0
DWIDTH 6 0
SWIDTH1 1000 0
BBX 4 8 0 0
BITMAP
50
A0
60
90
90
F0
90
90
ENDCHAR
STARTCHAR Adieresis
ENCODING 196
SWIDTH 500 0
DWIDTH 6 0
SWIDTH1 1000 0
BBX 4 8 0 0
BITMAP
A0
00
60
90
90
F0
90
90
ENDCHAR
STARTCHAR Aring
ENCODING 197
SWIDTH 500 0
DWIDTH 6 0
SWIDTH1 1000 0
BBX 4 8 0 0
BITMAP
E0
A0
60
90
90
F0
90
90
ENDCHAR
STARTCHAR AE
ENCODING 198
SWIDTH 500 0
DWIDTH 6 0
SWIDTH1 1000 0
BBX 4 7 0 0
BITMAP
70
60
A0
F0
A0
A0
B0
ENDCHAR
STARTCHAR Ccedilla
ENCODING 199
SWIDTH 500 0
DWIDTH 6 0
SWIDTH1 1000 0
BBX 4 8 0 -1
BITMAP
60
90
80
80
80
90
60
C0
ENDCHAR
STARTCHAR Egrave
ENCODING 200
SWIDTH 500 0
DWIDTH 6 0
SWIDTH1 1000 0
BBX 4 8 0 0
BITMAP
40
20
F0
80
E0
80
80
F0
ENDCHAR
STARTCHAR Eacute
ENCODING 201
SWIDTH 500 0
DWIDTH 6 0
SWIDTH1 1000 0
BBX 4 8 0 0
BITMAP
20
40
F0
80
E0
80
80
F0
ENDCHAR
STARTCHAR Ecircumflex
ENCODING 202
SWIDTH 500 0
DWIDTH 6 0
SWIDTH1 1000 0
BBX 4 8 0 0
BITMAP
40
A0
F0
80
E0
80
80
F0
ENDCHAR
STARTCHAR Edieresis
ENCODING 203
SWIDTH 500 0
DWIDTH 6 0
SWIDTH1 1000 0
BBX 4 8 0 0
BITMAP
A0
00
F0
80
E0
80
80
F0
ENDCHAR
STARTCHAR Igrave
ENCODING 204
SWIDTH 500 0
DWIDTH 6 0
SWIDTH1 1000 0
BBX 2 8 1 0
BITMAP
80
40
00
40
40
40
40
40
ENDCHAR
STARTCHAR Iacute
ENCODING 205
SWIDTH 500 0
DWIDTH 6 0
SWIDTH1 1000 0
BBX 2 8 2 0
BITMAP
40
80
00
80
80
80
80
80
ENDCHAR
STARTCHAR Icircumflex
ENCODING 206
SWIDTH 500 0
DWIDTH 6 0
SWIDTH1 1000 0
BBX 3 8 1 0
BITMAP
40
A0
00
40
40
40
40
40
ENDCHAR
STARTCHAR Idieresis
ENCODING 207
SWIDTH 500 0
DWIDTH 6 0
SWIDTH1 1000 0
BBX 3 7 1 0
BITMAP
A0
00
40
40
40
40
40
ENDCHAR
STARTCHAR Eth
ENCODING 208
SWIDTH 500 0
DWIDTH 6 0
SWIDTH1 1000 0
BBX 4 7 0 0
BITMAP
E0
90
90
D0
90
90
E0
ENDCHAR
STARTCHAR Ntilde
ENCODING 209
SWIDTH 500 0
DWIDTH 6 0
SWIDTH1 1000 0
BBX 4 8 0 0
BITMAP
50
A0
90
D0
D0
B0
B0
90
ENDCHAR
STARTCHAR Ograve
ENCODING 210
SWIDTH 500 0
DWIDTH 6 0
SWIDTH1 1000 0
BBX 4 8 0 0
BITMAP
80
40
60
90
90
90
90
60
ENDCHAR
STARTCHAR Oacute
ENCODING 211
SWIDTH 500 0
DWIDTH 6 0
SWIDTH1 1000 0
BBX 4 8 0 0
BITMAP
20
40
60
90
90
90
90
60
ENDCHAR
STARTCHAR Ocircumflex
ENCODING 212
SWIDTH 500 0
DWIDTH 6 0
SWIDTH1 1000 0
BBX 4 8 0 0
BITMAP
40
A0
60
90
90
90
90
60
ENDCHAR
STARTCHAR Otilde
ENCODING 213
SWIDTH 500 0
DWIDTH 6 0
SWIDTH1 1000 0
BBX 4 8 0 0
BITMAP
50
A0
60
90
90
90
90
60
ENDCHAR
STARTCHAR Odieresis
ENCODING 214
SWIDTH 500 0
DWIDTH 6 0
SWIDTH1 1000 0
BBX 4 8 0 0
BITMAP
A0
00
60
90
90
90
90
60
ENDCHAR
STARTCHAR multiply
ENCODING 215
SWIDTH 1000 0
SWIDTH1 1000 0
BBX 5 5 2 2
BITMAP
88
50
20
50
88
ENDCHAR
STARTCHAR Oslash
ENCODING 216
SWIDTH 500 0
DWIDTH 6 0
SWIDTH1 1000 0
BBX 4 8 0 -1
BITMAP
20
60
B0
D0
D0
90
E0
80
ENDCHAR
STARTCHAR Ugrave
ENCODING 217
SWIDTH 500 0
DWIDTH 6 0
SWIDTH1 1000 0
BBX 4 8 0 0
BITMAP
40
20
90
90
90
90
90
60
ENDCHAR
STARTCHAR Uacute
ENCODING 218
SWIDTH 500 0
DWIDTH 6 0
SWIDTH1 1000 0
BBX 4 8 0 0
BITMAP
20
40
90
90
90
90
90
60
ENDCHAR
STARTCHAR Ucircumflex
ENCODING 219
SWIDTH 500 0
DWIDTH 6 0
SWIDTH1 1000 0
BBX 4 8 0 0
BITMAP
40
A0
90
90
90
90
90
60
ENDCHAR
STARTCHAR Udieresis
ENCODING 220
SWIDTH 500 0
DWIDTH 6 0
SWIDTH1 1000 0
BBX 4 8 0 0
BITMAP
A0
00
90
90
90
90
90
60
ENDCHAR
STARTCHAR Yacute
ENCODING 221
SWIDTH 500 0
DWIDTH 6 0
SWIDTH1 1000 0
BBX 4 8 0 0
BITMAP
20
40
90
90
60
20
20
20
ENDCHAR
STARTCHAR Thorn
ENCODING 222
SWIDTH 500 0
DWIDTH 6 0
SWIDTH1 1000 0
BBX 4 7 0 0
BITMAP
80
E0
90
90
90
E0
80
ENDCHAR
STARTCHAR germandbls
ENCODING 223
SWIDTH 500 0
DWIDTH 6 0
SWIDTH1 1000 0
BBX 4 7 0 0
BITMAP
60
90
A0
90
90
D0
A0
ENDCHAR
STARTCHAR agrave
ENCODING 224
SWIDTH 500 0
DWIDTH 6 0
SWIDTH1 1000 0
BBX 4 8 0 0
BITMAP
40
20
00
60
10
70
90
70
ENDCHAR
STARTCHAR aacute
ENCODING 225
SWIDTH 500 0
DWIDTH 6 0
SWIDTH1 1000 0
BBX 4 8 0 0
BITMAP
20
40
00
60
10
70
90
70
ENDCHAR
STARTCHAR acircumflex
ENCODING 226
SWIDTH 500 0
DWIDTH 6 0
SWIDTH1 1000 0
BBX 4 8 0 0
BITMAP
20
50
00
60
10
70
90
70
ENDCHAR
STARTCHAR atilde
ENCODING 227
SWIDTH 500 0
DWIDTH 6 0
SWIDTH1 1000 0
BBX 4 8 0 0
BITMAP
50
A0
00
60
10
70
90
70
ENDCHAR
STARTCHAR adieresis
ENCODING 228
SWIDTH 500 0
DWIDTH 6 0
SWIDTH1 1000 0
BBX 4 7 0 0
BITMAP
50
00
60
10
70
90
70
ENDCHAR
STARTCHAR aring
ENCODING 229
SWIDTH 500 0
DWIDTH 6 0
SWIDTH1 1000 0
BBX 4 8 0 0
BITMAP
20
50
20
60
10
70
90
70
ENDCHAR
STARTCHAR ae
ENCODING 230
SWIDTH 500 0
DWIDTH 6 0
SWIDTH1 1000 0
BBX 4 5 0 0
BITMAP
F0
50
F0
C0
F0
ENDCHAR
STARTCHAR ccedilla
ENCODING 231
SWIDTH 500 0
DWIDTH 6 0
SWIDTH1 1000 0
BBX 4 6 0 -1
BITMAP
60
90
80
90
60
C0
ENDCHAR
STARTCHAR egrave
ENCODING 232
SWIDTH 500 0
DWIDTH 6 0
SWIDTH1 1000 0
BBX 4 8 0 0
BITMAP
40
20
00
60
90
F0
80
70
ENDCHAR
STARTCHAR eacute
ENCODING 233
SWIDTH 500 0
DWIDTH 6 0
SWIDTH1 1000 0
BBX 4 8 0 0
BITMAP
20
40
00
60
90
F0
80
70
ENDCHAR
STARTCHAR ecircumflex
ENCODING 234
SWIDTH 500 0
DWIDTH 6 0
SWIDTH1 1000 0
BBX 4 8 0 0
BITMAP
20
50
00
60
90
F0
80
70
ENDCHAR
STARTCHAR edieresis
ENCODING 235
SWIDTH 500 0
DWIDTH 6 0
SWIDTH1 1000 0
BBX 4 7 0 0
BITMAP
50
00
60
90
F0
80
70
ENDCHAR
STARTCHAR igrave
ENCODING 236
SWIDTH 500 0
DWIDTH 6 0
SWIDTH1 1000 0
BBX 2 8 1 0
BITMAP
80
40
00
40
40
40
40
40
ENDCHAR
STARTCHAR iacute
ENCODING 237
SWIDTH 500 0
DWIDTH 6 0
SWIDTH1 1000 0
BBX 2 8 2 0
BITMAP
40
80
00
80
80
80
80
80
ENDCHAR
STARTCHAR icircumflex
ENCODING 238
SWIDTH 500 0
DWIDTH 6 0
SWIDTH1 1000 0
BBX 3 8 1 0
BITMAP
40
A0
00
40
40
40
40
40
ENDCHAR
STARTCHAR idieresis
ENCODING 239
SWIDTH 500 0
DWIDTH 6 0
SWIDTH1 1000 0
BBX 3 7 1 0
BITMAP
A0
00
40
40
40
40
40
ENDCHAR
STARTCHAR eth
ENCODING 240
SWIDTH 500 0
DWIDTH 6 0
SWIDTH1 1000 0
BBX 4 8 0 0
BITMAP
A0
40
A0
60
90
90
90
60
ENDCHAR
STARTCHAR ntilde
ENCODING 241
SWIDTH 500 0
DWIDTH 6 0
SWIDTH1 1000 0
BBX 4 8 0 0
BITMAP
50
A0
00
E0
90
90
90
90
ENDCHAR
STARTCHAR ograve
ENCODING 242
SWIDTH 500 0
DWIDTH 6 0
SWIDTH1 1000 0
BBX 4 8 0 0
BITMAP
40
20
00
60
90
90
90
60
ENDCHAR
STARTCHAR oacute
ENCODING 243
SWIDTH 500 0
DWIDTH 6 0
SWIDTH1 1000 0
BBX 4 8 0 0
BITMAP
20
40
00
60
90
90
90
60
ENDCHAR
STARTCHAR ocircumflex
ENCODING 244
SWIDTH 500 0
DWIDTH 6 0
SWIDTH1 1000 0
BBX 4 8 0 0
BITMAP
20
50
00
60
90
90
90
60
ENDCHAR
STARTCHAR otilde
ENCODING 245
SWIDTH 500 0
DWIDTH 6 0
SWIDTH1 1000 0
BBX 4 8 0 0
BITMAP
50
A0
00
60
90
90
90
60
ENDCHAR
STARTCHAR odieresis
ENCODING 246
SWIDTH 500 0
DWIDTH 6 0
SWIDTH1 1000 0
BBX 4 7 0 0
BITMAP
50
00
60
90
90
90
60
ENDCHAR
STARTCHAR divide
ENCODING 247
SWIDTH 1000 0
SWIDTH1 1000 0
BBX 6 5 1 2
BITMAP
30
00
FC
00
30
ENDCHAR
STARTCHAR oslash
ENCODING 248
SWIDTH 500 0
DWIDTH 6 0
SWIDTH1 1000 0
BBX 4 6 0 0
BITMAP
10
E0
B0
50
90
E0
ENDCHAR
STARTCHAR ugrave
ENCODING 249
SWIDTH 500 0
DWIDTH 6 0
SWIDTH1 1000 0
BBX 4 8 0 0
BITMAP
40
20
00
90
90
90
90
70
ENDCHAR
STARTCHAR uacute
ENCODING 250
SWIDTH 500 0
DWIDTH 6 0
SWIDTH1 1000 0
BBX 4 8 0 0
BITMAP
20
40
00
90
90
90
90
70
ENDCHAR
STARTCHAR ucircumflex
ENCODING 251
SWIDTH 500 0
DWIDTH 6 0
SWIDTH1 1000 0
BBX 4 8 0 0
BITMAP
20
50
00
90
90
90
90
70
ENDCHAR
STARTCHAR udieresis
ENCODING 252
SWIDTH 500 0
DWIDTH 6 0
SWIDTH1 1000 0
BBX 4 7 0 0
BITMAP
50
00
90
90
90
90
70
ENDCHAR
STARTCHAR yacute
ENCODING 253
SWIDTH 500 0
DWIDTH 6 0
SWIDTH1 1000 0
BBX 4 9 0 -1
BITMAP
20
40
00
90
90
50
20
20
C0
ENDCHAR
STARTCHAR thorn
ENCODING 254
SWIDTH 500 0
DWIDTH 6 0
SWIDTH1 1000 0
BBX 4 8 0 -1
BITMAP
80
80
E0
90
90
90
E0
80
ENDCHAR
STARTCHAR ydieresis
ENCODING 255
SWIDTH 500 0
DWIDTH 6 0
SWIDTH1 1000 0
BBX 4 8 0 -1
BITMAP
50
00
90
90
50
20
20
C0
ENDCHAR
STARTCHAR amacron
ENCODING 257
SWIDTH 500 0
DWIDTH 6 0
SWIDTH1 1000 0
BBX 4 7 0 0
BITMAP
F0
00
60
10
70
90
70
ENDCHAR
STARTCHAR emacron
ENCODING 275
SWIDTH 500 0
DWIDTH 6 0
SWIDTH1 1000 0
BBX 4 7 0 0
BITMAP
F0
00
60
90
F0
80
70
ENDCHAR
STARTCHAR ecaron
ENCODING 283
SWIDTH 500 0
DWIDTH 6 0
SWIDTH1 1000 0
BBX 4 8 0 0
BITMAP
A0
40
00
60
90
F0
80
70
ENDCHAR
STARTCHAR imacron
ENCODING 299
SWIDTH 500 0
DWIDTH 6 0
SWIDTH1 1000 0
BBX 3 6 1 0
BITMAP
E0
00
40
40
40
40
ENDCHAR
STARTCHAR nacute
ENCODING 324
SWIDTH 500 0
DWIDTH 6 0
SWIDTH1 1000 0
BBX 4 7 0 0
BITMAP
20
40
00
E0
90
90
90
ENDCHAR
STARTCHAR ncaron
ENCODING 328
SWIDTH 500 0
DWIDTH 6 0
SWIDTH1 1000 0
BBX 4 7 0 0
BITMAP
A0
40
00
E0
90
90
90
ENDCHAR
STARTCHAR omacron
ENCODING 333
SWIDTH 500 0
DWIDTH 6 0
SWIDTH1 1000 0
BBX 4 7 0 0
BITMAP
F0
00
60
90
90
90
60
ENDCHAR
STARTCHAR OE
ENCODING 338
SWIDTH 500 0
DWIDTH 6 0
SWIDTH1 1000 0
BBX 4 7 0 0
BITMAP
70
A0
A0
B0
A0
A0
70
ENDCHAR
STARTCHAR oe
ENCODING 339
SWIDTH 500 0
DWIDTH 6 0
SWIDTH1 1000 0
BBX 4 5 0 0
BITMAP
70
B0
B0
A0
70
ENDCHAR
STARTCHAR Scaron
ENCODING 352
SWIDTH 500 0
DWIDTH 6 0
SWIDTH1 1000 0
BBX 4 8 0 0
BITMAP
A0
40
70
80
60
10
90
60
ENDCHAR
STARTCHAR scaron
ENCODING 353
SWIDTH 500 0
DWIDTH 6 0
SWIDTH1 1000 0
BBX 4 8 0 0
BITMAP
A0
40
00
70
80
60
10
E0
ENDCHAR
STARTCHAR umacron
ENCODING 363
SWIDTH 500 0
DWIDTH 6 0
SWIDTH1 1000 0
BBX 4 7 0 0
BITMAP
F0
00
90
90
90
90
70
ENDCHAR
STARTCHAR Ydieresis
ENCODING 376
SWIDTH 500 0
DWIDTH 6 0
SWIDTH1 1000 0
BBX 5 8 0 0
BITMAP
50
00
88
88
50
20
20
20
ENDCHAR
STARTCHAR florin
ENCODING 402
SWIDTH 500 0
DWIDTH 6 0
SWIDTH1 1000 0
BBX 3 7 1 0
BITMAP
60
40
E0
40
40
40
C0
ENDCHAR
STARTCHAR uni01CE
ENCODING 462
SWIDTH 500 0
DWIDTH 6 0
SWIDTH1 1000 0
BBX 5 8 0 0
BITMAP
50
20
00
60
90
70
90
78
ENDCHAR
STARTCHAR uni01D0
ENCODING 464
SWIDTH 500 0
DWIDTH 6 0
SWIDTH1 1000 0
BBX 3 8 1 0
BITMAP
A0
40
00
C0
40
40
40
E0
ENDCHAR
STARTCHAR uni01D2
ENCODING 466
SWIDTH 500 0
DWIDTH 6 0
SWIDTH1 1000 0
BBX 4 8 0 0
BITMAP
50
20
00
60
90
90
90
60
ENDCHAR
STARTCHAR uni01D4
ENCODING 468
SWIDTH 500 0
DWIDTH 6 0
SWIDTH1 1000 0
BBX 5 8 0 0
BITMAP
50
20
00
90
90
90
90
78
ENDCHAR
STARTCHAR uni01D6
ENCODING 470
SWIDTH 500 0
DWIDTH 6 0
SWIDTH1 1000 0
BBX 5 8 0 0
BITMAP
70
00
90
00
90
90
90
78
ENDCHAR
STARTCHAR uni01D8
ENCODING 472
SWIDTH 500 0
DWIDTH 6 0
SWIDTH1 1000 0
BBX 5 9 0 0
BITMAP
10
20
00
90
00
90
90
90
78
ENDCHAR
STARTCHAR uni01DA
ENCODING 474
SWIDTH 500 0
DWIDTH 6 0
SWIDTH1 1000 0
BBX 5 9 0 0
BITMAP
50
20
00
90
00
90
90
90
78
ENDCHAR
STARTCHAR uni01DC
ENCODING 476
SWIDTH 500 0
DWIDTH 6 0
SWIDTH1 1000 0
BBX 5 9 0 0
BITMAP
40
20
00
90
00
90
90
90
78
ENDCHAR
STARTCHAR uni01F9
ENCODING 505
SWIDTH 500 0
DWIDTH 6 0
SWIDTH1 1000 0
BBX 4 8 0 0
BITMAP
40
20
00
E0
90
90
90
90
ENDCHAR
STARTCHAR uni0251
ENCODING 593
SWIDTH 500 0
DWIDTH 6 0
SWIDTH1 1000 0
BBX 5 5 0 0
BITMAP
60
90
70
90
78
ENDCHAR
STARTCHAR uni0261
ENCODING 609
SWIDTH 500 0
DWIDTH 6 0
SWIDTH1 1000 0
BBX 5 7 0 -1
BITMAP
78
90
60
80
F0
88
70
ENDCHAR
STARTCHAR circumflex
ENCODING 710
SWIDTH 500 0
DWIDTH 6 0
SWIDTH1 1000 0
BBX 5 3 0 6
BITMAP
20
50
88
ENDCHAR
STARTCHAR caron
ENCODING 711
SWIDTH 1000 0
SWIDTH1 1000 0
BBX 5 3 3 6
BITMAP
88
50
20
ENDCHAR
STARTCHAR uni02C9
ENCODING 713
SWIDTH 1000 0
SWIDTH1 1000 0
BBX 5 1 3 8
BITMAP
F8
ENDCHAR
STARTCHAR uni02CA
ENCODING 714
SWIDTH 1000 0
SWIDTH1 1000 0
BBX 3 2 4 7
BITMAP
60
80
ENDCHAR
STARTCHAR uni02CB
ENCODING 715
SWIDTH 1000 0
SWIDTH1 1000 0
BBX 3 2 4 7
BITMAP
C0
20
ENDCHAR
STARTCHAR dotaccent
ENCODING 729
SWIDTH 1000 0
SWIDTH1 1000 0
BBX 2 2 4 7
BITMAP
C0
C0
ENDCHAR
STARTCHAR tilde
ENCODING 732
SWIDTH 500 0
DWIDTH 6 0
SWIDTH1 1000 0
BBX 4 2 0 7
BITMAP
50
A0
ENDCHAR
STARTCHAR Alpha
ENCODING 913
SWIDTH 1000 0
SWIDTH1 1000 0
BBX 6 7 1 1
BITMAP
30
30
48
48
FC
84
84
ENDCHAR
STARTCHAR Beta
ENCODING 914
SWIDTH 1000 0
SWIDTH1 1000 0
BBX 6 7 2 1
BITMAP
F0
88
88
F8
84
84
F8
ENDCHAR
STARTCHAR Gamma
ENCODING 915
SWIDTH 1000 0
SWIDTH1 1000 0
BBX 5 7 2 1
BITMAP
F8
80
80
80
80
80
80
ENDCHAR
STARTCHAR uni0394
ENCODING 916
SWIDTH 1000 0
SWIDTH1 1000 0
BBX 6 7 1 1
BITMAP
30
30
48
48
84
84
FC
ENDCHAR
STARTCHAR Epsilon
ENCODING 917
SWIDTH 1000 0
SWIDTH1 1000 0
BBX 5 7 2 1
BITMAP
F8
80
80
F0
80
80
F8
ENDCHAR
STARTCHAR Zeta
ENCODING 918
SWIDTH 1000 0
SWIDTH1 1000 0
BBX 5 7 2 1
BITMAP
F8
08
10
20
40
80
F8
ENDCHAR
STARTCHAR Eta
ENCODING 919
SWIDTH 1000 0
SWIDTH1 1000 0
BBX 5 7 2 1
BITMAP
88
88
88
F8
88
88
88
ENDCHAR
STARTCHAR Theta
ENCODING 920
SWIDTH 1000 0
SWIDTH1 1000 0
BBX 6 7 1 1
BITMAP
78
84
84
B4
84
84
78
ENDCHAR
STARTCHAR Iota
ENCODING 921
SWIDTH 1000 0
SWIDTH1 1000 0
BBX 3 7 3 1
BITMAP
E0
40
40
40
40
40
E0
ENDCHAR
STARTCHAR Kappa
ENCODING 922
SWIDTH 1000 0
SWIDTH1 1000 0
BBX 5 7 2 1
BITMAP
88
90
A0
E0
90
88
88
ENDCHAR
STARTCHAR Lambda
ENCODING 923
SWIDTH 1000 0
SWIDTH1 1000 0
BBX 6 7 1 1
BITMAP
30
30
48
48
84
84
84
ENDCHAR
STARTCHAR Mu
ENCODING 924
SWIDTH 1000 0
SWIDTH1 1000 0
BBX 7 7 1 1
BITMAP
82
C6
C6
AA
AA
92
92
ENDCHAR
STARTCHAR Nu
ENCODING 925
SWIDTH 1000 0
SWIDTH1 1000 0
BBX 5 7 2 1
BITMAP
88
C8
C8
A8
98
98
88
ENDCHAR
STARTCHAR Xi
ENCODING 926
SWIDTH 1000 0
SWIDTH1 1000 0
BBX 6 7 1 1
BITMAP
FC
00
00
78
00
00
FC
ENDCHAR
STARTCHAR Omicron
ENCODING 927
SWIDTH 1000 0
SWIDTH1 1000 0
BBX 6 7 1 1
BITMAP
78
84
84
84
84
84
78
ENDCHAR
STARTCHAR Pi
ENCODING 928
SWIDTH 1000 0
SWIDTH1 1000 0
BBX 6 7 1 1
BITMAP
FC
48
48
48
48
48
48
ENDCHAR
STARTCHAR Rho
ENCODING 929
SWIDTH 1000 0
SWIDTH1 1000 0
BBX 5 7 2 1
BITMAP
F0
88
88
88
F0
80
80
ENDCHAR
STARTCHAR Sigma
ENCODING 931
SWIDTH 1000 0
SWIDTH1 1000 0
BBX 5 7 2 1
BITMAP
F8
40
20
10
20
40
F8
ENDCHAR
STARTCHAR Tau
ENCODING 932
SWIDTH 1000 0
SWIDTH1 1000 0
BBX 5 7 2 1
BITMAP
F8
20
20
20
20
20
20
ENDCHAR
STARTCHAR Upsilon
ENCODING 933
SWIDTH 1000 0
SWIDTH1 1000 0
BBX 5 7 2 1
BITMAP
88
88
50
20
20
20
20
ENDCHAR
STARTCHAR Phi
ENCODING 934
SWIDTH 1000 0
SWIDTH1 1000 0
BBX 7 7 1 1
BITMAP
10
7C
92
92
92
7C
10
ENDCHAR
STARTCHAR Chi
ENCODING 935
SWIDTH 1000 0
SWIDTH1 1000 0
BBX 5 7 2 1
BITMAP
88
88
50
20
50
88
88
ENDCHAR
STARTCHAR Psi
ENCODING 936
SWIDTH 1000 0
SWIDTH1 1000 0
BBX 5 7 2 1
BITMAP
A8
A8
A8
A8
A8
70
20
ENDCHAR
STARTCHAR uni03A9
ENCODING 937
SWIDTH 1000 0
SWIDTH1 1000 0
BBX 6 7 1 1
BITMAP
78
84
84
84
84
48
CC
ENDCHAR
STARTCHAR alpha
ENCODING 945
SWIDTH 1000 0
SWIDTH1 1000 0
BBX 6 6 1 0
BITMAP
34
4C
84
84
4C
34
ENDCHAR
STARTCHAR beta
ENCODING 946
SWIDTH 1000 0
SWIDTH1 1000 0
BBX 5 10 1 -1
BITMAP
60
90
90
E0
90
88
88
F0
80
80
ENDCHAR
STARTCHAR gamma
ENCODING 947
SWIDTH 1000 0
SWIDTH1 1000 0
BBX 5 8 1 -1
BITMAP
88
88
50
50
20
20
20
20
ENDCHAR
STARTCHAR delta
ENCODING 948
SWIDTH 1000 0
SWIDTH1 1000 0
BBX 5 9 1 0
BITMAP
30
40
40
20
50
88
88
88
70
ENDCHAR
STARTCHAR epsilon
ENCODING 949
SWIDTH 1000 0
SWIDTH1 1000 0
BBX 4 7 1 0
BITMAP
60
90
80
60
80
90
60
ENDCHAR
STARTCHAR zeta
ENCODING 950
SWIDTH 1000 0
SWIDTH1 1000 0
BBX 4 10 1 -1
BITMAP
E0
20
40
40
80
80
60
10
10
60
ENDCHAR
STARTCHAR eta
ENCODING 951
SWIDTH 1000 0
SWIDTH1 1000 0
BBX 5 8 1 -1
BITMAP
B0
C8
88
88
88
88
08
08
ENDCHAR
STARTCHAR theta
ENCODING 952
SWIDTH 1000 0
SWIDTH1 1000 0
BBX 6 8 1 0
BITMAP
30
48
84
FC
84
84
48
30
ENDCHAR
STARTCHAR iota
ENCODING 953
SWIDTH 1000 0
SWIDTH1 1000 0
BBX 1 6 1 0
BITMAP
80
80
80
80
80
80
ENDCHAR
STARTCHAR kappa
ENCODING 954
SWIDTH 1000 0
SWIDTH1 1000 0
BBX 4 6 1 0
BITMAP
90
A0
C0
C0
A0
90
ENDCHAR
STARTCHAR lambda
ENCODING 955
SWIDTH 1000 0
SWIDTH1 1000 0
BBX 6 8 0 0
BITMAP
40
20
20
10
10
28
48
84
ENDCHAR
STARTCHAR uni03BC
ENCODING 956
SWIDTH 1000 0
SWIDTH1 1000 0
BBX 5 8 1 -1
BITMAP
88
88
88
88
D8
A8
80
80
ENDCHAR
STARTCHAR nu
ENCODING 957
SWIDTH 1000 0
SWIDTH1 1000 0
BBX 5 6 0 0
BITMAP
88
88
50
50
20
20
ENDCHAR
STARTCHAR xi
ENCODING 958
SWIDTH 1000 0
SWIDTH1 1000 0
BBX 4 10 1 -1
BITMAP
70
80
80
70
80
80
80
60
10
60
ENDCHAR
STARTCHAR omicron
ENCODING 959
SWIDTH 1000 0
SWIDTH1 1000 0
BBX 6 6 1 0
BITMAP
30
48
84
84
48
30
ENDCHAR
STARTCHAR pi
ENCODING 960
SWIDTH 1000 0
SWIDTH1 1000 0
BBX 6 6 0 0
BITMAP
FC
48
48
48
48
48
ENDCHAR
STARTCHAR rho
ENCODING 961
SWIDTH 1000 0
SWIDTH1 1000 0
BBX 6 8 1 -1
BITMAP
30
48
84
84
C8
B0
80
80
ENDCHAR
STARTCHAR sigma
ENCODING 963
SWIDTH 1000 0
SWIDTH1 1000 0
BBX 6 6 1 0
BITMAP
3C
50
88
88
88
70
ENDCHAR
STARTCHAR tau
ENCODING 964
SWIDTH 1000 0
SWIDTH1 1000 0
BBX 5 6 0 0
BITMAP
F8
20
20
20
20
20
ENDCHAR
STARTCHAR upsilon
ENCODING 965
SWIDTH 1000 0
SWIDTH1 1000 0
BBX 5 6 1 0
BITMAP
90
88
88
88
90
60
ENDCHAR
STARTCHAR phi
ENCODING 966
SWIDTH 1000 0
SWIDTH1 1000 0
BBX 7 8 1 -1
BITMAP
58
94
92
92
54
38
10
10
ENDCHAR
STARTCHAR chi
ENCODING 967
SWIDTH 1000 0
SWIDTH1 1000 0
BBX 5 8 0 -1
BITMAP
88
50
50
20
20
50
50
88
ENDCHAR
STARTCHAR psi
ENCODING 968
SWIDTH 1000 0
SWIDTH1 1000 0
BBX 7 8 1 -1
BITMAP
92
92
92
92
54
38
10
10
ENDCHAR
STARTCHAR omega
ENCODING 969
SWIDTH 1000 0
SWIDTH1 1000 0
BBX 8 6 1 0
BITMAP
24
42
81
91
91
6E
ENDCHAR
STARTCHAR uni0401
ENCODING 1025
SWIDTH 1000 0
SWIDTH1 1000 0
BBX 5 8 2 1
BITMAP
50
00
F8
80
F0
80
80
F8
ENDCHAR
STARTCHAR uni0410
ENCODING 1040
SWIDTH 1000 0
SWIDTH1 1000 0
BBX 6 7 1 1
BITMAP
30
30
48
48
FC
84
84
ENDCHAR
STARTCHAR uni0411
ENCODING 1041
SWIDTH 1000 0
SWIDTH1 1000 0
BBX 6 7 2 1
BITMAP
F8
80
80
F8
84
84
F8
ENDCHAR
STARTCHAR uni0412
ENCODING 1042
SWIDTH 1000 0
SWIDTH1 1000 0
BBX 6 7 2 1
BITMAP
F0
88
88
F8
84
84
F8
ENDCHAR
STARTCHAR uni0413
ENCODING 1043
SWIDTH 1000 0
SWIDTH1 1000 0
BBX 5 7 2 1
BITMAP
F8
80
80
80
80
80
80
ENDCHAR
STARTCHAR uni0414
ENCODING 1044
SWIDTH 1000 0
SWIDTH1 1000 0
BBX 7 8 1 0
BITMAP
3C
24
24
24
24
44
FE
82
ENDCHAR
STARTCHAR uni0415
ENCODING 1045
SWIDTH 1000 0
SWIDTH1 1000 0
BBX 5 7 2 1
BITMAP
F8
80
80
F0
80
80
F8
ENDCHAR
STARTCHAR uni0416
ENCODING 1046
SWIDTH 1000 0
SWIDTH1 1000 0
BBX 7 7 1 1
BITMAP
D6
54
54
38
54
92
92
ENDCHAR
STARTCHAR uni0417
ENCODING 1047
SWIDTH 1000 0
SWIDTH1 1000 0
BBX 6 7 1 1
BITMAP
78
84
04
38
04
84
78
ENDCHAR
STARTCHAR uni0418
ENCODING 1048
SWIDTH 1000 0
SWIDTH1 1000 0
BBX 5 7 2 1
BITMAP
88
98
98
A8
C8
C8
88
ENDCHAR
STARTCHAR uni0419
ENCODING 1049
SWIDTH 1000 0
SWIDTH1 1000 0
BBX 5 8 2 1
BITMAP
50
A8
98
98
A8
C8
C8
88
ENDCHAR
STARTCHAR uni041A
ENCODING 1050
SWIDTH 1000 0
SWIDTH1 1000 0
BBX 5 7 2 1
BITMAP
88
90
A0
E0
90
88
88
ENDCHAR
STARTCHAR uni041B
ENCODING 1051
SWIDTH 1000 0
SWIDTH1 1000 0
BBX 6 7 1 1
BITMAP
3C
24
24
24
24
24
C4
ENDCHAR
STARTCHAR uni041C
ENCODING 1052
SWIDTH 1000 0
SWIDTH1 1000 0
BBX 7 7 1 1
BITMAP
82
C6
C6
AA
AA
92
92
ENDCHAR
STARTCHAR uni041D
ENCODING 1053
SWIDTH 1000 0
SWIDTH1 1000 0
BBX 5 7 2 1
BITMAP
88
88
88
F8
88
88
88
ENDCHAR
STARTCHAR uni041E
ENCODING 1054
SWIDTH 1000 0
SWIDTH1 1000 0
BBX 6 7 1 1
BITMAP
78
84
84
84
84
84
78
ENDCHAR
STARTCHAR uni041F
ENCODING 1055
SWIDTH 1000 0
SWIDTH1 1000 0
BBX 5 7 2 1
BITMAP
F8
88
88
88
88
88
88
ENDCHAR
STARTCHAR uni0420
ENCODING 1056
SWIDTH 1000 0
SWIDTH1 1000 0
BBX 5 7 2 1
BITMAP
F0
88
88
88
F0
80
80
ENDCHAR
STARTCHAR uni0421
ENCODING 1057
SWIDTH 1000 0
SWIDTH1 1000 0
BBX 6 7 1 1
BITMAP
78
84
80
80
80
84
78
ENDCHAR
STARTCHAR uni0422
ENCODING 1058
SWIDTH 1000 0
SWIDTH1 1000 0
BBX 5 7 2 1
BITMAP
F8
20
20
20
20
20
20
ENDCHAR
STARTCHAR uni0423
ENCODING 1059
SWIDTH 1000 0
SWIDTH1 1000 0
BBX 5 7 2 1
BITMAP
88
88
50
50
20
20
C0
ENDCHAR
STARTCHAR uni0424
ENCODING 1060
SWIDTH 1000 0
SWIDTH1 1000 0
BBX 7 7 1 1
BITMAP
10
7C
92
92
92
7C
10
ENDCHAR
STARTCHAR uni0425
ENCODING 1061
SWIDTH 1000 0
SWIDTH1 1000 0
BBX 5 7 2 1
BITMAP
88
88
50
20
50
88
88
ENDCHAR
STARTCHAR uni0426
ENCODING 1062
SWIDTH 1000 0
SWIDTH1 1000 0
BBX 6 8 2 0
BITMAP
88
88
88
88
88
88
FC
04
ENDCHAR
STARTCHAR uni0427
ENCODING 1063
SWIDTH 1000 0
SWIDTH1 1000 0
BBX 5 7 2 1
BITMAP
88
88
88
78
08
08
08
ENDCHAR
STARTCHAR uni0428
ENCODING 1064
SWIDTH 1000 0
SWIDTH1 1000 0
BBX 7 7 1 1
BITMAP
92
92
92
92
92
92
FE
ENDCHAR
STARTCHAR uni0429
ENCODING 1065
SWIDTH 1000 0
SWIDTH1 1000 0
BBX 8 8 1 0
BITMAP
92
92
92
92
92
92
FF
01
ENDCHAR
STARTCHAR uni042A
ENCODING 1066
SWIDTH 1000 0
SWIDTH1 1000 0
BBX 7 7 1 1
BITMAP
E0
20
20
3C
22
22
3C
ENDCHAR
STARTCHAR uni042B
ENCODING 1067
SWIDTH 1000 0
SWIDTH1 1000 0
BBX 7 7 1 1
BITMAP
82
82
82
F2
8A
8A
F2
ENDCHAR
STARTCHAR uni042C
ENCODING 1068
SWIDTH 1000 0
SWIDTH1 1000 0
BBX 5 7 2 1
BITMAP
80
80
80
F0
88
88
F0
ENDCHAR
STARTCHAR uni042D
ENCODING 1069
SWIDTH 1000 0
SWIDTH1 1000 0
BBX 6 7 1 1
BITMAP
78
84
04
7C
04
84
78
ENDCHAR
STARTCHAR uni042E
ENCODING 1070
SWIDTH 1000 0
SWIDTH1 1000 0
BBX 7 7 1 1
BITMAP
9C
A2
A2
E2
A2
A2
9C
ENDCHAR
STARTCHAR uni042F
ENCODING 1071
SWIDTH 1000 0
SWIDTH1 1000 0
BBX 5 7 2 1
BITMAP
78
88
88
78
88
88
88
ENDCHAR
STARTCHAR uni0430
ENCODING 1072
SWIDTH 1000 0
SWIDTH1 1000 0
BBX 5 5 2 1
BITMAP
70
08
78
88
78
ENDCHAR
STARTCHAR uni0431
ENCODING 1073
SWIDTH 1000 0
SWIDTH1 1000 0
BBX 4 7 2 1
BITMAP
10
60
80
E0
90
90
60
ENDCHAR
STARTCHAR uni0432
ENCODING 1074
SWIDTH 1000 0
SWIDTH1 1000 0
BBX 4 5 2 1
BITMAP
E0
90
E0
90
E0
ENDCHAR
STARTCHAR uni0433
ENCODING 1075
SWIDTH 1000 0
SWIDTH1 1000 0
BBX 4 5 3 1
BITMAP
F0
80
80
80
80
ENDCHAR
STARTCHAR uni0434
ENCODING 1076
SWIDTH 1000 0
SWIDTH1 1000 0
BBX 6 6 1 0
BITMAP
38
28
28
48
FC
84
ENDCHAR
STARTCHAR uni0435
ENCODING 1077
SWIDTH 1000 0
SWIDTH1 1000 0
BBX 5 5 2 1
BITMAP
70
88
F8
80
78
ENDCHAR
STARTCHAR uni0436
ENCODING 1078
SWIDTH 1000 0
SWIDTH1 1000 0
BBX 7 5 1 1
BITMAP
D6
54
38
54
92
ENDCHAR
STARTCHAR uni0437
ENCODING 1079
SWIDTH 1000 0
SWIDTH1 1000 0
BBX 5 5 2 1
BITMAP
70
88
30
88
70
ENDCHAR
STARTCHAR uni0438
ENCODING 1080
SWIDTH 1000 0
SWIDTH1 1000 0
BBX 5 5 2 1
BITMAP
88
98
A8
C8
88
ENDCHAR
STARTCHAR uni0439
ENCODING 1081
SWIDTH 1000 0
SWIDTH1 1000 0
BBX 5 7 2 1
BITMAP
50
20
88
98
A8
C8
88
ENDCHAR
STARTCHAR uni043A
ENCODING 1082
SWIDTH 1000 0
SWIDTH1 1000 0
BBX 4 5 2 1
BITMAP
90
A0
C0
A0
90
ENDCHAR
STARTCHAR uni043B
ENCODING 1083
SWIDTH 1000 0
SWIDTH1 1000 0
BBX 5 5 2 1
BITMAP
78
48
48
48
C8
ENDCHAR
STARTCHAR uni043C
ENCODING 1084
SWIDTH 1000 0
SWIDTH1 1000 0
BBX 5 5 2 1
BITMAP
88
D8
D8
A8
A8
ENDCHAR
STARTCHAR uni043D
ENCODING 1085
SWIDTH 1000 0
SWIDTH1 1000 0
BBX 5 5 2 1
BITMAP
88
88
F8
88
88
ENDCHAR
STARTCHAR uni043E
ENCODING 1086
SWIDTH 1000 0
SWIDTH1 1000 0
BBX 5 5 2 1
BITMAP
70
88
88
88
70
ENDCHAR
STARTCHAR uni043F
ENCODING 1087
SWIDTH 1000 0
SWIDTH1 1000 0
BBX 5 5 2 1
BITMAP
F8
88
88
88
88
ENDCHAR
STARTCHAR uni0440
ENCODING 1088
SWIDTH 1000 0
SWIDTH1 1000 0
BBX 5 6 2 0
BITMAP
F0
88
88
88
F0
80
ENDCHAR
STARTCHAR uni0441
ENCODING 1089
SWIDTH 1000 0
SWIDTH1 1000 0
BBX 5 5 2 1
BITMAP
70
88
80
88
70
ENDCHAR
STARTCHAR uni0442
ENCODING 1090
SWIDTH 1000 0
SWIDTH1 1000 0
BBX 5 5 2 1
BITMAP
F8
20
20
20
20
ENDCHAR
STARTCHAR uni0443
ENCODING 1091
SWIDTH 1000 0
SWIDTH1 1000 0
BBX 5 6 2 0
BITMAP
88
88
50
20
20
C0
ENDCHAR
STARTCHAR uni0444
ENCODING 1092
SWIDTH 1000 0
SWIDTH1 1000 0
BBX 7 8 1 0
BITMAP
10
10
54
BA
92
BA
54
10
ENDCHAR
STARTCHAR uni0445
ENCODING 1093
SWIDTH 1000 0
SWIDTH1 1000 0
BBX 5 5 2 1
BITMAP
88
50
20
50
88
ENDCHAR
STARTCHAR uni0446
ENCODING 1094
SWIDTH 1000 0
SWIDTH1 1000 0
BBX 5 6 2 0
BITMAP
90
90
90
90
F8
08
ENDCHAR
STARTCHAR uni0447
ENCODING 1095
SWIDTH 1000 0
SWIDTH1 1000 0
BBX 4 5 2 1
BITMAP
90
90
70
10
10
ENDCHAR
STARTCHAR uni0448
ENCODING 1096
SWIDTH 1000 0
SWIDTH1 1000 0
BBX 5 5 2 1
BITMAP
A8
A8
A8
A8
F8
ENDCHAR
STARTCHAR uni0449
ENCODING 1097
SWIDTH 1000 0
SWIDTH1 1000 0
BBX 6 6 2 0
BITMAP
A8
A8
A8
A8
FC
04
ENDCHAR
STARTCHAR uni044A
ENCODING 1098
SWIDTH 1000 0
SWIDTH1 1000 0
BBX 5 5 2 1
BITMAP
C0
40
70
48
70
ENDCHAR
STARTCHAR uni044B
ENCODING 1099
SWIDTH 1000 0
SWIDTH1 1000 0
BBX 6 5 1 1
BITMAP
84
84
E4
94
E4
ENDCHAR
STARTCHAR uni044C
ENCODING 1100
SWIDTH 1000 0
SWIDTH1 1000 0
BBX 4 5 3 1
BITMAP
80
80
E0
90
E0
ENDCHAR
STARTCHAR uni044D
ENCODING 1101
SWIDTH 1000 0
SWIDTH1 1000 0
BBX 5 5 2 1
BITMAP
70
88
38
88
70
ENDCHAR
STARTCHAR uni044E
ENCODING 1102
SWIDTH 1000 0
SWIDTH1 1000 0
BBX 6 5 1 1
BITMAP
98
A4
E4
A4
98
ENDCHAR
STARTCHAR uni044F
ENCODING 1103
SWIDTH 1000 0
SWIDTH1 1000 0
BBX 4 5 2 1
BITMAP
70
90
70
90
90
ENDCHAR
STARTCHAR uni0451
ENCODING 1105
SWIDTH 1000 0
SWIDTH1 1000 0
BBX 5 7 2 1
BITMAP
50
00
70
88
F8
80
78
ENDCHAR
STARTCHAR uni2010
ENCODING 8208
SWIDTH 1000 0
SWIDTH1 1000 0
BBX 3 1 4 4
BITMAP
E0
ENDCHAR
STARTCHAR endash
ENCODING 8211
SWIDTH 1000 0
SWIDTH1 1000 0
BBX 5 1 3 4
BITMAP
F8
ENDCHAR
STARTCHAR emdash
ENCODING 8212
SWIDTH 1000 0
SWIDTH1 1000 0
BBX 11 1 0 4
BITMAP
FFE0
ENDCHAR
STARTCHAR uni2015
ENCODING 8213
SWIDTH 1000 0
SWIDTH1 1000 0
BBX 9 1 1 4
BITMAP
FF80
ENDCHAR
STARTCHAR uni2016
ENCODING 8214
SWIDTH 1000 0
SWIDTH1 1000 0
BBX 3 10 4 -1
BITMAP
A0
A0
A0
A0
A0
A0
A0
A0
A0
A0
ENDCHAR
STARTCHAR quoteleft
ENCODING 8216
SWIDTH 1000 0
SWIDTH1 1000 0
BBX 2 4 7 5
BITMAP
40
80
C0
C0
ENDCHAR
STARTCHAR quoteright
ENCODING 8217
SWIDTH 1000 0
SWIDTH1 1000 0
BBX 2 4 1 5
BITMAP
C0
C0
40
80
ENDCHAR
STARTCHAR quotesinglbase
ENCODING 8218
SWIDTH 500 0
DWIDTH 6 0
SWIDTH1 1000 0
BBX 1 1 0 0
BITMAP
00
ENDCHAR
STARTCHAR quotedblleft
ENCODING 8220
SWIDTH 1000 0
SWIDTH1 1000 0
BBX 5 4 5 5
BITMAP
48
90
D8
D8
ENDCHAR
STARTCHAR quotedblright
ENCODING 8221
SWIDTH 1000 0
SWIDTH1 1000 0
BBX 5 4 1 5
BITMAP
D8
D8
48
90
ENDCHAR
STARTCHAR quotedblbase
ENCODING 8222
SWIDTH 500 0
DWIDTH 6 0
SWIDTH1 1000 0
BBX 1 1 0 0
BITMAP
00
ENDCHAR
STARTCHAR dagger
ENCODING 8224
SWIDTH 500 0
DWIDTH 6 0
SWIDTH1 1000 0
BBX 5 10 0 -1
BITMAP
20
70
20
F8
20
20
70
20
20
20
ENDCHAR
STARTCHAR daggerdbl
ENCODING 8225
SWIDTH 500 0
DWIDTH 6 0
SWIDTH1 1000 0
BBX 5 10 0 -2
BITMAP
20
20
F8
20
70
20
20
F8
20
20
ENDCHAR
STARTCHAR bullet
ENCODING 8226
SWIDTH 500 0
DWIDTH 6 0
SWIDTH1 1000 0
BBX 3 3 1 3
BITMAP
40
E0
40
ENDCHAR
STARTCHAR twodotenleader
ENCODING 8229
SWIDTH 1000 0
SWIDTH1 1000 0
BBX 7 2 2 3
BITMAP
C6
C6
ENDCHAR
STARTCHAR ellipsis
ENCODING 8230
SWIDTH 1000 0
SWIDTH1 1000 0
BBX 10 2 0 3
BITMAP
CCC0
CCC0
ENDCHAR
STARTCHAR perthousand
ENCODING 8240
SWIDTH 1000 0
SWIDTH1 1000 0
BBX 11 9 0 0
BITMAP
E100
A200
A400
E800
1000
2EE0
4AA0
8AA0
0EE0
ENDCHAR
STARTCHAR minute
ENCODING 8242
SWIDTH 1000 0
SWIDTH1 1000 0
BBX 2 4 1 5
BITMAP
40
40
80
80
ENDCHAR
STARTCHAR second
ENCODING 8243
SWIDTH 1000 0
SWIDTH1 1000 0
BBX 4 4 1 5
BITMAP
50
50
A0
A0
ENDCHAR
STARTCHAR uni2035
ENCODING 8245
SWIDTH 1000 0
SWIDTH1 1000 0
BBX 2 4 4 5
BITMAP
80
80
40
40
ENDCHAR
STARTCHAR guilsinglleft
ENCODING 8249
SWIDTH 500 0
DWIDTH 6 0
SWIDTH1 1000 0
BBX 2 5 1 1
BITMAP
40
80
80
80
40
ENDCHAR
STARTCHAR guilsinglright
ENCODING 8250
SWIDTH 500 0
DWIDTH 6 0
SWIDTH1 1000 0
BBX 2 5 1 1
BITMAP
80
40
40
40
80
ENDCHAR
STARTCHAR uni203B
ENCODING 8251
SWIDTH 1000 0
SWIDTH1 1000 0
BBX 9 9 1 0
BITMAP
8C80
4D00
2200
1400
C980
D580
2200
4D00
8C80
ENDCHAR
STARTCHAR Euro
ENCODING 8364
SWIDTH 1000 0
SWIDTH1 1000 0
BBX 8 9 1 -1
BITMAP
1D
23
61
FC
60
FC
60
21
1E
ENDCHAR
STARTCHAR uni2103
ENCODING 8451
SWIDTH 1000 0
SWIDTH1 1000 0
BBX 10 9 0 0
BITMAP
E740
A8C0
F040
1000
1000
1000
1040
0840
0780
ENDCHAR
STARTCHAR uni2105
ENCODING 8453
SWIDTH 1000 0
SWIDTH1 1000 0
BBX 9 10 1 -1
BITMAP
6200
9400
8400
8800
6800
0B00
1480
1480
2300
2000
ENDCHAR
STARTCHAR uni2109
ENCODING 8457
SWIDTH 1000 0
SWIDTH1 1000 0
BBX 10 10 0 -1
BITMAP
FFC0
A840
E840
0900
0F00
0900
0800
0800
0800
1C00
ENDCHAR
STARTCHAR uni2116
ENCODING 8470
SWIDTH 1000 0
SWIDTH1 1000 0
BBX 10 9 0 0
BITMAP
CE00
6400
6400
55C0
5540
4D40
4DC0
4400
E5C0
ENDCHAR
STARTCHAR uni2121
ENCODING 8481
SWIDTH 1000 0
SWIDTH1 1000 0
BBX 9 3 1 6
BITMAP
ED00
4900
4D80
ENDCHAR
STARTCHAR trademark
ENCODING 8482
SWIDTH 500 0
DWIDTH 6 0
SWIDTH1 1000 0
BBX 6 5 0 4
BITMAP
F4
5C
54
54
54
ENDCHAR
STARTCHAR uni2160
ENCODING 8544
SWIDTH 1000 0
SWIDTH1 1000 0
BBX 3 7 3 1
BITMAP
E0
40
40
40
40
40
E0
ENDCHAR
STARTCHAR uni2161
ENCODING 8545
SWIDTH 1000 0
SWIDTH1 1000 0
BBX 5 7 2 1
BITMAP
F8
50
50
50
50
50
F8
ENDCHAR
STARTCHAR uni2162
ENCODING 8546
SWIDTH 1000 0
SWIDTH1 1000 0
BBX 7 7 1 1
BITMAP
FE
54
54
54
54
54
FE
ENDCHAR
STARTCHAR uni2163
ENCODING 8547
SWIDTH 1000 0
SWIDTH1 1000 0
BBX 8 7 1 1
BITMAP
F1
51
4A
4A
4A
44
E4
ENDCHAR
STARTCHAR uni2164
ENCODING 8548
SWIDTH 1000 0
SWIDTH1 1000 0
BBX 5 7 2 1
BITMAP
88
88
50
50
50
20
20
ENDCHAR
STARTCHAR uni2165
ENCODING 8549
SWIDTH 1000 0
SWIDTH1 1000 0
BBX 8 7 1 1
BITMAP
8F
8A
52
52
52
22
27
ENDCHAR
STARTCHAR uni2166
ENCODING 8550
SWIDTH 1000 0
SWIDTH1 1000 0
BBX 9 7 0 1
BITMAP
9F80
9500
9500
5500
6500
2500
2F80
ENDCHAR
STARTCHAR uni2167
ENCODING 8551
SWIDTH 1000 0
SWIDTH1 1000 0
BBX 9 7 0 1
BITMAP
BF80
B500
B500
D500
5500
5500
7F80
ENDCHAR
STARTCHAR uni2168
ENCODING 8552
SWIDTH 1000 0
SWIDTH1 1000 0
BBX 9 7 0 1
BITMAP
F180
5B00
4A00
4400
4A00
5B00
F180
ENDCHAR
STARTCHAR uni2169
ENCODING 8553
SWIDTH 1000 0
SWIDTH1 1000 0
BBX 7 7 1 1
BITMAP
C6
6C
28
10
28
6C
C6
ENDCHAR
STARTCHAR uni216A
ENCODING 8554
SWIDTH 1000 0
SWIDTH1 1000 0
BBX 1 1 8 0
BITMAP
00
ENDCHAR
STARTCHAR uni216B
ENCODING 8555
SWIDTH 1000 0
SWIDTH1 1000 0
BBX 1 1 8 0
BITMAP
00
ENDCHAR
STARTCHAR uni2170
ENCODING 8560
SWIDTH 1000 0
SWIDTH1 1000 0
BBX 3 7 3 1
BITMAP
40
00
C0
40
40
40
E0
ENDCHAR
STARTCHAR uni2171
ENCODING 8561
SWIDTH 1000 0
SWIDTH1 1000 0
BBX 5 7 2 1
BITMAP
50
00
F0
50
50
50
F8
ENDCHAR
STARTCHAR uni2172
ENCODING 8562
SWIDTH 1000 0
SWIDTH1 1000 0
BBX 7 7 1 1
BITMAP
54
00
FC
54
54
54
FE
ENDCHAR
STARTCHAR uni2173
ENCODING 8563
SWIDTH 1000 0
SWIDTH1 1000 0
BBX 6 7 1 1
BITMAP
40
00
D4
54
54
54
E8
ENDCHAR
STARTCHAR uni2174
ENCODING 8564
SWIDTH 1000 0
SWIDTH1 1000 0
BBX 3 5 3 1
BITMAP
A0
A0
A0
A0
40
ENDCHAR
STARTCHAR uni2175
ENCODING 8565
SWIDTH 1000 0
SWIDTH1 1000 0
BBX 6 7 2 1
BITMAP
08
00
B8
A8
A8
A8
5C
ENDCHAR
STARTCHAR uni2176
ENCODING 8566
SWIDTH 1000 0
SWIDTH1 1000 0
BBX 8 7 1 1
BITMAP
0A
00
BE
AA
AA
AA
5F
ENDCHAR
STARTCHAR uni2177
ENCODING 8567
SWIDTH 1000 0
SWIDTH1 1000 0
BBX 9 7 0 1
BITMAP
0A80
0000
BF80
AA80
AA80
AA80
5F80
ENDCHAR
STARTCHAR uni2178
ENCODING 8568
SWIDTH 1000 0
SWIDTH1 1000 0
BBX 7 7 1 1
BITMAP
40
00
F6
48
48
54
F6
ENDCHAR
STARTCHAR uni2179
ENCODING 8569
SWIDTH 1000 0
SWIDTH1 1000 0
BBX 5 5 2 1
BITMAP
D8
50
20
50
D8
ENDCHAR
STARTCHAR arrowleft
ENCODING 8592
SWIDTH 1000 0
SWIDTH1 1000 0
BBX 9 5 0 2
BITMAP
2000
4000
FF80
4000
2000
ENDCHAR
STARTCHAR arrowup
ENCODING 8593
SWIDTH 1000 0
SWIDTH1 1000 0
BBX 5 9 2 0
BITMAP
20
70
A8
20
20
20
20
20
20
ENDCHAR
STARTCHAR arrowright
ENCODING 8594
SWIDTH 1000 0
SWIDTH1 1000 0
BBX 9 5 0 2
BITMAP
0200
0100
FF80
0100
0200
ENDCHAR
STARTCHAR arrowdown
ENCODING 8595
SWIDTH 1000 0
SWIDTH1 1000 0
BBX 5 9 2 0
BITMAP
20
20
20
20
20
20
A8
70
20
ENDCHAR
STARTCHAR uni2196
ENCODING 8598
SWIDTH 1000 0
SWIDTH1 1000 0
BBX 10 10 0 -1
BITMAP
E000
C000
A000
1000
0800
0400
0200
0100
0080
0040
ENDCHAR
STARTCHAR uni2197
ENCODING 8599
SWIDTH 1000 0
SWIDTH1 1000 0
BBX 10 10 0 -1
BITMAP
01C0
00C0
0140
0200
0400
0800
1000
2000
4000
8000
ENDCHAR
STARTCHAR uni2198
ENCODING 8600
SWIDTH 1000 0
SWIDTH1 1000 0
BBX 10 10 0 -1
BITMAP
8000
4000
2000
1000
0800
0400
0200
0140
00C0
01C0
ENDCHAR
STARTCHAR uni2199
ENCODING 8601
SWIDTH 1000 0
SWIDTH1 1000 0
BBX 10 10 0 -1
BITMAP
0040
0080
0100
0200
0400
0800
1000
A000
C000
E000
ENDCHAR
STARTCHAR element
ENCODING 8712
SWIDTH 1000 0
SWIDTH1 1000 0
BBX 6 5 1 2
BITMAP
7C
80
FC
80
7C
ENDCHAR
STARTCHAR product
ENCODING 8719
SWIDTH 1000 0
SWIDTH1 1000 0
BBX 4 7 0 1
BITMAP
F0
90
90
90
90
90
90
ENDCHAR
STARTCHAR summation
ENCODING 8721
SWIDTH 1000 0
SWIDTH1 1000 0
BBX 7 7 1 1
BITMAP
7E
20
10
10
20
40
FE
ENDCHAR
STARTCHAR uni2215
ENCODING 8725
SWIDTH 1000 0
SWIDTH1 1000 0
BBX 4 8 0 1
BITMAP
10
10
20
20
40
40
80
80
ENDCHAR
STARTCHAR radical
ENCODING 8730
SWIDTH 1000 0
SWIDTH1 1000 0
BBX 9 9 0 0
BITMAP
0780
0400
0800
0800
5000
5000
A000
2000
2000
ENDCHAR
STARTCHAR proportional
ENCODING 8733
SWIDTH 1000 0
SWIDTH1 1000 0
BBX 9 5 0 2
BITMAP
6300
9480
8800
9480
6300
ENDCHAR
STARTCHAR infinity
ENCODING 8734
SWIDTH 1000 0
SWIDTH1 1000 0
BBX 9 5 0 2
BITMAP
6300
9480
8880
9480
6300
ENDCHAR
STARTCHAR orthogonal
ENCODING 8735
SWIDTH 1000 0
SWIDTH1 1000 0
BBX 7 7 1 1
BITMAP
80
80
80
80
80
80
FE
ENDCHAR
STARTCHAR angle
ENCODING 8736
SWIDTH 1000 0
SWIDTH1 1000 0
BBX 7 7 1 1
BITMAP
02
04
08
10
20
40
FE
ENDCHAR
STARTCHAR uni2223
ENCODING 8739
SWIDTH 1000 0
SWIDTH1 1000 0
BBX 1 10 5 -1
BITMAP
80
80
80
80
80
80
80
80
80
80
ENDCHAR
STARTCHAR uni2225
ENCODING 8741
SWIDTH 1000 0
SWIDTH1 1000 0
BBX 6 9 1 0
BITMAP
24
24
24
48
48
48
90
90
90
ENDCHAR
STARTCHAR logicaland
ENCODING 8743
SWIDTH 1000 0
SWIDTH1 1000 0
BBX 5 6 2 2
BITMAP
20
20
50
50
88
88
ENDCHAR
STARTCHAR logicalor
ENCODING 8744
SWIDTH 1000 0
SWIDTH1 1000 0
BBX 5 6 2 2
BITMAP
88
88
50
50
20
20
ENDCHAR
STARTCHAR intersection
ENCODING 8745
SWIDTH 1000 0
SWIDTH1 1000 0
BBX 5 7 2 1
BITMAP
70
88
88
88
88
88
88
ENDCHAR
STARTCHAR union
ENCODING 8746
SWIDTH 1000 0
SWIDTH1 1000 0
BBX 5 7 2 1
BITMAP
88
88
88
88
88
88
70
ENDCHAR
STARTCHAR integral
ENCODING 8747
SWIDTH 1000 0
SWIDTH1 1000 0
BBX 3 9 3 0
BITMAP
40
A0
80
40
40
40
20
A0
40
ENDCHAR
STARTCHAR uni222E
ENCODING 8750
SWIDTH 1000 0
SWIDTH1 1000 0
BBX 5 9 2 0
BITMAP
20
50
40
70
A8
70
10
50
20
ENDCHAR
STARTCHAR therefore
ENCODING 8756
SWIDTH 1000 0
SWIDTH1 1000 0
BBX 7 7 1 1
BITMAP
10
10
00
00
00
82
82
ENDCHAR
STARTCHAR uni2235
ENCODING 8757
SWIDTH 1000 0
SWIDTH1 1000 0
BBX 7 7 1 1
BITMAP
82
82
00
00
00
10
10
ENDCHAR
STARTCHAR uni2236
ENCODING 8758
SWIDTH 1000 0
SWIDTH1 1000 0
BBX 2 7 5 1
BITMAP
C0
C0
00
00
00
C0
C0
ENDCHAR
STARTCHAR uni2237
ENCODING 8759
SWIDTH 1000 0
SWIDTH1 1000 0
BBX 8 7 2 1
BITMAP
C3
C3
00
00
00
C3
C3
ENDCHAR
STARTCHAR uni223D
ENCODING 8765
SWIDTH 1000 0
SWIDTH1 1000 0
BBX 9 5 1 2
BITMAP
6300
8480
8880
9080
6300
ENDCHAR
STARTCHAR approxequal
ENCODING 8776
SWIDTH 1000 0
SWIDTH1 1000 0
BBX 9 5 1 2
BITMAP
7800
8480
7300
8880
0700
ENDCHAR
STARTCHAR uni224C
ENCODING 8780
SWIDTH 1000 0
SWIDTH1 1000 0
BBX 10 8 1 0
BITMAP
6380
8440
8840
7180
0000
FFC0
0000
FFC0
ENDCHAR
STARTCHAR uni2252
ENCODING 8786
SWIDTH 1000 0
SWIDTH1 1000 0
BBX 9 7 1 1
BITMAP
C000
0000
FF80
0000
FF80
0000
0180
ENDCHAR
STARTCHAR notequal
ENCODING 8800
SWIDTH 1000 0
SWIDTH1 1000 0
BBX 9 9 1 0
BITMAP
0200
0200
0400
FF80
0800
FF80
1000
2000
2000
ENDCHAR
STARTCHAR equivalence
ENCODING 8801
SWIDTH 1000 0
SWIDTH1 1000 0
BBX 10 5 1 2
BITMAP
FFC0
0000
FFC0
0000
FFC0
ENDCHAR
STARTCHAR lessequal
ENCODING 8804
SWIDTH 1000 0
SWIDTH1 1000 0
BBX 8 9 2 0
BITMAP
03
0C
30
C0
30
CC
33
0C
03
ENDCHAR
STARTCHAR greaterequal
ENCODING 8805
SWIDTH 1000 0
SWIDTH1 1000 0
BBX 8 9 1 0
BITMAP
C0
30
0C
03
0C
33
CC
30
C0
ENDCHAR
STARTCHAR uni2266
ENCODING 8806
SWIDTH 1000 0
SWIDTH1 1000 0
BBX 8 9 1 -1
BITMAP
03
1C
E0
1C
03
00
FF
00
FF
ENDCHAR
STARTCHAR uni2267
ENCODING 8807
SWIDTH 1000 0
SWIDTH1 1000 0
BBX 8 9 1 -1
BITMAP
C0
38
07
38
C0
00
FF
00
FF
ENDCHAR
STARTCHAR uni226E
ENCODING 8814
SWIDTH 1000 0
SWIDTH1 1000 0
BBX 9 9 1 0
BITMAP
0800
0980
0E00
3800
C800
3800
0E00
0980
0800
ENDCHAR
STARTCHAR uni226F
ENCODING 8815
SWIDTH 1000 0
SWIDTH1 1000 0
BBX 9 9 1 0
BITMAP
0800
C800
3800
0E00
0980
0E00
3800
C800
0800
ENDCHAR
STARTCHAR circleplus
ENCODING 8853
SWIDTH 1000 0
SWIDTH1 1000 0
BBX 7 7 2 1
BITMAP
38
44
92
BA
92
44
38
ENDCHAR
STARTCHAR uni2299
ENCODING 8857
SWIDTH 1000 0
SWIDTH1 1000 0
BBX 11 10 0 -1
BITMAP
1F00
2080
4040
8020
8E20
8E20
8020
4040
2080
1F00
ENDCHAR
STARTCHAR perpendicular
ENCODING 8869
SWIDTH 1000 0
SWIDTH1 1000 0
BBX 9 9 1 0
BITMAP
0800
0800
0800
0800
0800
0800
0800
0800
FF80
ENDCHAR
STARTCHAR uni22BF
ENCODING 8895
SWIDTH 1000 0
SWIDTH1 1000 0
BBX 9 9 1 0
BITMAP
0080
0180
0280
0480
0880
1080
2080
4080
FF80
ENDCHAR
STARTCHAR uni2312
ENCODING 8978
SWIDTH 1000 0
SWIDTH1 1000 0
BBX 11 4 0 4
BITMAP
0E00
3180
4040
8020
ENDCHAR
STARTCHAR uni2460
ENCODING 9312
SWIDTH 1000 0
SWIDTH1 1000 0
BBX 9 9 0 0
BITMAP
1C00
6B00
5900
8880
8880
8880
4900
6300
1C00
ENDCHAR
STARTCHAR uni2461
ENCODING 9313
SWIDTH 1000 0
SWIDTH1 1000 0
BBX 9 9 0 0
BITMAP
1C00
6B00
5500
8480
8880
9080
5D00
6300
1C00
ENDCHAR
STARTCHAR uni2462
ENCODING 9314
SWIDTH 1000 0
SWIDTH1 1000 0
BBX 9 9 0 0
BITMAP
1C00
6B00
5500
8480
8880
8480
5500
6B00
1C00
ENDCHAR
STARTCHAR uni2463
ENCODING 9315
SWIDTH 1000 0
SWIDTH1 1000 0
BBX 9 9 0 0
BITMAP
1C00
6700
4D00
9480
9480
BE80
4500
6300
1C00
ENDCHAR
STARTCHAR uni2464
ENCODING 9316
SWIDTH 1000 0
SWIDTH1 1000 0
BBX 9 9 0 0
BITMAP
1C00
7F00
5100
9880
9480
8480
5500
6B00
1C00
ENDCHAR
STARTCHAR uni2465
ENCODING 9317
SWIDTH 1000 0
SWIDTH1 1000 0
BBX 9 9 0 0
BITMAP
1C00
6B00
5500
9080
9880
9480
5500
6B00
1C00
ENDCHAR
STARTCHAR uni2466
ENCODING 9318
SWIDTH 1000 0
SWIDTH1 1000 0
BBX 9 9 0 0
BITMAP
1C00
6300
5D00
8480
8880
8880
4900
6B00
1C00
ENDCHAR
STARTCHAR uni2467
ENCODING 9319
SWIDTH 1000 0
SWIDTH1 1000 0
BBX 9 9 0 0
BITMAP
1C00
6B00
5500
9480
8880
9480
5500
6B00
1C00
ENDCHAR
STARTCHAR uni2468
ENCODING 9320
SWIDTH 1000 0
SWIDTH1 1000 0
BBX 9 9 0 0
BITMAP
1C00
6B00
5500
9480
8C80
8480
5500
6B00
1C00
ENDCHAR
STARTCHAR uni2469
ENCODING 9321
SWIDTH 1000 0
SWIDTH1 1000 0
BBX 9 9 0 0
BITMAP
1C00
6700
6B00
AA80
AA80
AA80
6B00
6700
1C00
ENDCHAR
STARTCHAR uni2474
ENCODING 9332
SWIDTH 1000 0
SWIDTH1 1000 0
BBX 10 10 0 -1
BITMAP
2100
4480
8C40
8440
8440
8440
8440
8E40
4080
2100
ENDCHAR
STARTCHAR uni2475
ENCODING 9333
SWIDTH 1000 0
SWIDTH1 1000 0
BBX 10 10 0 -1
BITMAP
2100
4C80
9240
9240
8240
8440
8840
9E40
4080
2100
ENDCHAR
STARTCHAR uni2476
ENCODING 9334
SWIDTH 1000 0
SWIDTH1 1000 0
BBX 10 10 0 -1
BITMAP
2100
4C80
9240
8240
8440
8240
9240
8C40
4080
2100
ENDCHAR
STARTCHAR uni2477
ENCODING 9335
SWIDTH 1000 0
SWIDTH1 1000 0
BBX 10 10 0 -1
BITMAP
2100
4480
8440
8C40
8C40
9440
9E40
8440
4080
2100
ENDCHAR
STARTCHAR uni2478
ENCODING 9336
SWIDTH 1000 0
SWIDTH1 1000 0
BBX 10 10 0 -1
BITMAP
2100
5E80
9040
9040
9C40
8240
9240
8C40
4080
2100
ENDCHAR
STARTCHAR uni2479
ENCODING 9337
SWIDTH 1000 0
SWIDTH1 1000 0
BBX 10 10 0 -1
BITMAP
2100
4C80
9240
9040
9C40
9240
9240
8C40
4080
2100
ENDCHAR
STARTCHAR uni247A
ENCODING 9338
SWIDTH 1000 0
SWIDTH1 1000 0
BBX 10 10 0 -1
BITMAP
2100
5E80
9240
8240
8440
8440
8440
8440
4080
2100
ENDCHAR
STARTCHAR uni247B
ENCODING 9339
SWIDTH 1000 0
SWIDTH1 1000 0
BBX 10 10 0 -1
BITMAP
2100
4C80
9240
9240
8C40
9240
9240
8C40
4080
2100
ENDCHAR
STARTCHAR uni247C
ENCODING 9340
SWIDTH 1000 0
SWIDTH1 1000 0
BBX 10 10 0 -1
BITMAP
2100
4C80
9240
9240
8E40
8240
9240
8C40
4080
2100
ENDCHAR
STARTCHAR uni247D
ENCODING 9341
SWIDTH 1000 0
SWIDTH1 1000 0
BBX 10 10 0 -1
BITMAP
2100
5280
B540
9540
9540
9540
9540
BA40
4080
2100
ENDCHAR
STARTCHAR uni247E
ENCODING 9342
SWIDTH 1000 0
SWIDTH1 1000 0
BBX 10 10 0 -1
BITMAP
2100
5280
B640
9240
9240
9240
9240
BF40
4080
2100
ENDCHAR
STARTCHAR uni247F
ENCODING 9343
SWIDTH 1000 0
SWIDTH1 1000 0
BBX 10 10 0 -1
BITMAP
2100
5280
B540
9140
9240
9440
9540
BF40
4080
2100
ENDCHAR
STARTCHAR uni2480
ENCODING 9344
SWIDTH 1000 0
SWIDTH1 1000 0
BBX 10 10 0 -1
BITMAP
2100
5280
B540
9140
9240
9140
9540
BA40
4080
2100
ENDCHAR
STARTCHAR uni2481
ENCODING 9345
SWIDTH 1000 0
SWIDTH1 1000 0
BBX 10 10 0 -1
BITMAP
2100
5280
B640
9640
9A40
9F40
9240
BF40
4080
2100
ENDCHAR
STARTCHAR uni2482
ENCODING 9346
SWIDTH 1000 0
SWIDTH1 1000 0
BBX 10 10 0 -1
BITMAP
2100
5780
B440
9440
9740
9140
9540
BA40
4080
2100
ENDCHAR
STARTCHAR uni2483
ENCODING 9347
SWIDTH 1000 0
SWIDTH1 1000 0
BBX 10 10 0 -1
BITMAP
2100
5280
B540
9440
9640
9540
9540
BA40
4080
2100
ENDCHAR
STARTCHAR uni2484
ENCODING 9348
SWIDTH 1000 0
SWIDTH1 1000 0
BBX 10 10 0 -1
BITMAP
2100
5780
B540
9140
9240
9240
9240
BA40
4080
2100
ENDCHAR
STARTCHAR uni2485
ENCODING 9349
SWIDTH 1000 0
SWIDTH1 1000 0
BBX 10 10 0 -1
BITMAP
2100
5280
B540
9540
9240
9540
9540
BA40
4080
2100
ENDCHAR
STARTCHAR uni2486
ENCODING 9350
SWIDTH 1000 0
SWIDTH1 1000 0
BBX 10 10 0 -1
BITMAP
2100
5280
B540
9540
9340
9140
9540
BA40
4080
2100
ENDCHAR
STARTCHAR uni2487
ENCODING 9351
SWIDTH 1000 0
SWIDTH1 1000 0
BBX 10 10 0 -1
BITMAP
2100
5780
AD40
8D40
9540
9540
A540
BF40
4080
2100
ENDCHAR
STARTCHAR uni2488
ENCODING 9352
SWIDTH 1000 0
SWIDTH1 1000 0
BBX 6 8 3 0
BITMAP
C0
40
40
40
40
40
40
E4
ENDCHAR
STARTCHAR uni2489
ENCODING 9353
SWIDTH 1000 0
SWIDTH1 1000 0
BBX 7 8 2 0
BITMAP
70
88
88
08
10
20
48
FA
ENDCHAR
STARTCHAR uni248A
ENCODING 9354
SWIDTH 1000 0
SWIDTH1 1000 0
BBX 7 8 2 0
BITMAP
70
88
08
30
08
08
88
72
ENDCHAR
STARTCHAR uni248B
ENCODING 9355
SWIDTH 1000 0
SWIDTH1 1000 0
BBX 7 8 2 0
BITMAP
10
30
30
50
50
FC
10
3A
ENDCHAR
STARTCHAR uni248C
ENCODING 9356
SWIDTH 1000 0
SWIDTH1 1000 0
BBX 7 8 2 0
BITMAP
F8
80
80
F0
08
08
88
72
ENDCHAR
STARTCHAR uni248D
ENCODING 9357
SWIDTH 1000 0
SWIDTH1 1000 0
BBX 7 8 2 0
BITMAP
70
88
80
B0
C8
88
88
72
ENDCHAR
STARTCHAR uni248E
ENCODING 9358
SWIDTH 1000 0
SWIDTH1 1000 0
BBX 7 8 2 0
BITMAP
F8
88
10
10
20
20
20
22
ENDCHAR
STARTCHAR uni248F
ENCODING 9359
SWIDTH 1000 0
SWIDTH1 1000 0
BBX 7 8 2 0
BITMAP
70
88
88
70
88
88
88
72
ENDCHAR
STARTCHAR uni2490
ENCODING 9360
SWIDTH 1000 0
SWIDTH1 1000 0
BBX 7 8 2 0
BITMAP
70
88
88
88
78
08
88
72
ENDCHAR
STARTCHAR uni2491
ENCODING 9361
SWIDTH 1000 0
SWIDTH1 1000 0
BBX 10 8 0 0
BITMAP
C600
4900
4900
4900
4900
4900
4900
E640
ENDCHAR
STARTCHAR uni2492
ENCODING 9362
SWIDTH 1000 0
SWIDTH1 1000 0
BBX 10 8 0 0
BITMAP
C600
4200
4200
4200
4200
4200
4200
E740
ENDCHAR
STARTCHAR uni2493
ENCODING 9363
SWIDTH 1000 0
SWIDTH1 1000 0
BBX 10 8 0 0
BITMAP
C600
4900
4900
4100
4200
4400
4900
EF40
ENDCHAR
STARTCHAR uni2494
ENCODING 9364
SWIDTH 1000 0
SWIDTH1 1000 0
BBX 10 8 0 0
BITMAP
C600
4900
4100
4600
4100
4100
4900
E640
ENDCHAR
STARTCHAR uni2495
ENCODING 9365
SWIDTH 1000 0
SWIDTH1 1000 0
BBX 10 8 0 0
BITMAP
C200
4200
4600
4A00
5200
5F00
4200
E740
ENDCHAR
STARTCHAR uni2496
ENCODING 9366
SWIDTH 1000 0
SWIDTH1 1000 0
BBX 10 8 0 0
BITMAP
CF00
4800
4800
4E00
4100
4100
4900
E640
ENDCHAR
STARTCHAR uni2497
ENCODING 9367
SWIDTH 1000 0
SWIDTH1 1000 0
BBX 10 8 0 0
BITMAP
C600
4900
4800
4E00
4900
4900
4900
E640
ENDCHAR
STARTCHAR uni2498
ENCODING 9368
SWIDTH 1000 0
SWIDTH1 1000 0
BBX 10 8 0 0
BITMAP
CF00
4900
4200
4200
4400
4400
4400
E440
ENDCHAR
STARTCHAR uni2499
ENCODING 9369
SWIDTH 1000 0
SWIDTH1 1000 0
BBX 10 8 0 0
BITMAP
C600
4900
4900
4600
4900
4900
4900
E640
ENDCHAR
STARTCHAR uni249A
ENCODING 9370
SWIDTH 1000 0
SWIDTH1 1000 0
BBX 10 8 0 0
BITMAP
C600
4900
4900
4900
4700
4100
4900
E640
ENDCHAR
STARTCHAR uni249B
ENCODING 9371
SWIDTH 1000 0
SWIDTH1 1000 0
BBX 10 8 0 0
BITMAP
6300
9480
9480
1480
2480
4480
9480
F340
ENDCHAR
STARTCHAR SF100000
ENCODING 9472
SWIDTH 1000 0
SWIDTH1 1000 0
BBX 10 1 0 4
BITMAP
FFC0
ENDCHAR
STARTCHAR uni2501
ENCODING 9473
SWIDTH 1000 0
SWIDTH1 1000 0
BBX 10 2 0 4
BITMAP
FFC0
FFC0
ENDCHAR
STARTCHAR SF110000
ENCODING 9474
SWIDTH 1000 0
SWIDTH1 1000 0
BBX 1 10 4 -1
BITMAP
80
80
80
80
80
80
80
80
80
80
ENDCHAR
STARTCHAR uni2503
ENCODING 9475
SWIDTH 1000 0
SWIDTH1 1000 0
BBX 2 10 3 -1
BITMAP
C0
C0
C0
C0
C0
C0
C0
C0
C0
C0
ENDCHAR
STARTCHAR uni2504
ENCODING 9476
SWIDTH 1000 0
SWIDTH1 1000 0
BBX 11 1 0 3
BITMAP
EEE0
ENDCHAR
STARTCHAR uni2505
ENCODING 9477
SWIDTH 1000 0
SWIDTH1 1000 0
BBX 11 2 0 2
BITMAP
EEE0
EEE0
ENDCHAR
STARTCHAR uni2506
ENCODING 9478
SWIDTH 1000 0
SWIDTH1 1000 0
BBX 1 11 5 -2
BITMAP
80
80
80
00
80
80
80
00
80
80
80
ENDCHAR
STARTCHAR uni2507
ENCODING 9479
SWIDTH 1000 0
SWIDTH1 1000 0
BBX 2 11 5 -2
BITMAP
C0
C0
C0
00
C0
C0
C0
00
C0
C0
C0
ENDCHAR
STARTCHAR uni2508
ENCODING 9480
SWIDTH 1000 0
SWIDTH1 1000 0
BBX 11 1 0 3
BITMAP
DB60
ENDCHAR
STARTCHAR uni2509
ENCODING 9481
SWIDTH 1000 0
SWIDTH1 1000 0
BBX 11 2 0 2
BITMAP
DB60
DB60
ENDCHAR
STARTCHAR uni250A
ENCODING 9482
SWIDTH 1000 0
SWIDTH1 1000 0
BBX 1 11 5 -2
BITMAP
80
80
00
80
80
00
80
80
00
80
80
ENDCHAR
STARTCHAR uni250B
ENCODING 9483
SWIDTH 1000 0
SWIDTH1 1000 0
BBX 2 11 5 -2
BITMAP
C0
C0
00
C0
C0
00
C0
C0
00
C0
C0
ENDCHAR
STARTCHAR SF010000
ENCODING 9484
SWIDTH 1000 0
SWIDTH1 1000 0
BBX 6 6 4 -1
BITMAP
FC
80
80
80
80
80
ENDCHAR
STARTCHAR uni250D
ENCODING 9485
SWIDTH 1000 0
SWIDTH1 1000 0
BBX 6 6 5 -2
BITMAP
FC
FC
80
80
80
80
ENDCHAR
STARTCHAR uni250E
ENCODING 9486
SWIDTH 1000 0
SWIDTH1 1000 0
BBX 6 6 5 -2
BITMAP
FC
C0
C0
C0
C0
C0
ENDCHAR
STARTCHAR uni250F
ENCODING 9487
SWIDTH 1000 0
SWIDTH1 1000 0
BBX 7 7 3 -1
BITMAP
FE
FE
C0
C0
C0
C0
C0
ENDCHAR
STARTCHAR SF030000
ENCODING 9488
SWIDTH 1000 0
SWIDTH1 1000 0
BBX 5 6 0 -1
BITMAP
F8
08
08
08
08
08
ENDCHAR
STARTCHAR uni2511
ENCODING 9489
SWIDTH 1000 0
SWIDTH1 1000 0
BBX 6 6 0 -2
BITMAP
FC
FC
04
04
04
04
ENDCHAR
STARTCHAR uni2512
ENCODING 9490
SWIDTH 1000 0
SWIDTH1 1000 0
BBX 7 6 0 -2
BITMAP
FE
06
06
06
06
06
ENDCHAR
STARTCHAR uni2513
ENCODING 9491
SWIDTH 1000 0
SWIDTH1 1000 0
BBX 5 7 0 -1
BITMAP
F8
F8
18
18
18
18
18
ENDCHAR
STARTCHAR SF020000
ENCODING 9492
SWIDTH 1000 0
SWIDTH1 1000 0
BBX 6 5 4 4
BITMAP
80
80
80
80
FC
ENDCHAR
STARTCHAR uni2515
ENCODING 9493
SWIDTH 1000 0
SWIDTH1 1000 0
BBX 6 7 5 2
BITMAP
80
80
80
80
80
FC
FC
ENDCHAR
STARTCHAR uni2516
ENCODING 9494
SWIDTH 1000 0
SWIDTH1 1000 0
BBX 6 6 5 3
BITMAP
C0
C0
C0
C0
C0
FC
ENDCHAR
STARTCHAR uni2517
ENCODING 9495
SWIDTH 1000 0
SWIDTH1 1000 0
BBX 7 5 3 4
BITMAP
C0
C0
C0
FE
FE
ENDCHAR
STARTCHAR SF040000
ENCODING 9496
SWIDTH 1000 0
SWIDTH1 1000 0
BBX 5 5 0 4
BITMAP
08
08
08
08
F8
ENDCHAR
STARTCHAR uni2519
ENCODING 9497
SWIDTH 1000 0
SWIDTH1 1000 0
BBX 6 7 0 2
BITMAP
04
04
04
04
04
FC
FC
ENDCHAR
STARTCHAR uni251A
ENCODING 9498
SWIDTH 1000 0
SWIDTH1 1000 0
BBX 7 6 0 3
BITMAP
06
06
06
06
06
FE
ENDCHAR
STARTCHAR uni251B
ENCODING 9499
SWIDTH 1000 0
SWIDTH1 1000 0
BBX 5 5 0 4
BITMAP
18
18
18
F8
F8
ENDCHAR
STARTCHAR SF080000
ENCODING 9500
SWIDTH 1000 0
SWIDTH1 1000 0
BBX 6 10 4 -1
BITMAP
80
80
80
80
FC
80
80
80
80
80
ENDCHAR
STARTCHAR uni251D
ENCODING 9501
SWIDTH 1000 0
SWIDTH1 1000 0
BBX 6 10 4 -1
BITMAP
80
80
80
FC
FC
80
80
80
80
80
ENDCHAR
STARTCHAR uni251E
ENCODING 9502
SWIDTH 1000 0
SWIDTH1 1000 0
BBX 6 11 5 -2
BITMAP
C0
C0
C0
C0
C0
FC
80
80
80
80
80
ENDCHAR
STARTCHAR uni251F
ENCODING 9503
SWIDTH 1000 0
SWIDTH1 1000 0
BBX 6 11 5 -2
BITMAP
80
80
80
80
80
FC
C0
C0
C0
C0
C0
ENDCHAR
STARTCHAR uni2520
ENCODING 9504
SWIDTH 1000 0
SWIDTH1 1000 0
BBX 7 10 3 -1
BITMAP
C0
C0
C0
C0
FE
C0
C0
C0
C0
C0
ENDCHAR
STARTCHAR uni2521
ENCODING 9505
SWIDTH 1000 0
SWIDTH1 1000 0
BBX 6 11 5 -2
BITMAP
C0
C0
C0
C0
C0
FC
FC
80
80
80
80
ENDCHAR
STARTCHAR uni2522
ENCODING 9506
SWIDTH 1000 0
SWIDTH1 1000 0
BBX 6 11 5 -2
BITMAP
80
80
80
80
80
FC
FC
C0
C0
C0
C0
ENDCHAR
STARTCHAR uni2523
ENCODING 9507
SWIDTH 1000 0
SWIDTH1 1000 0
BBX 7 10 3 -1
BITMAP
C0
C0
C0
FE
FE
C0
C0
C0
C0
C0
ENDCHAR
STARTCHAR SF090000
ENCODING 9508
SWIDTH 1000 0
SWIDTH1 1000 0
BBX 5 10 0 -1
BITMAP
08
08
08
08
F8
08
08
08
08
08
ENDCHAR
STARTCHAR uni2525
ENCODING 9509
SWIDTH 1000 0
SWIDTH1 1000 0
BBX 5 10 0 -1
BITMAP
08
08
08
F8
F8
08
08
08
08
08
ENDCHAR
STARTCHAR uni2526
ENCODING 9510
SWIDTH 1000 0
SWIDTH1 1000 0
BBX 7 11 0 -2
BITMAP
06
06
06
06
06
FE
04
04
04
04
04
ENDCHAR
STARTCHAR uni2527
ENCODING 9511
SWIDTH 1000 0
SWIDTH1 1000 0
BBX 7 11 0 -2
BITMAP
04
04
04
04
04
FE
06
06
06
06
06
ENDCHAR
STARTCHAR uni2528
ENCODING 9512
SWIDTH 1000 0
SWIDTH1 1000 0
BBX 5 10 0 -1
BITMAP
18
18
18
18
F8
18
18
18
18
18
ENDCHAR
STARTCHAR uni2529
ENCODING 9513
SWIDTH 1000 0
SWIDTH1 1000 0
BBX 7 11 0 -2
BITMAP
06
06
06
06
06
FE
FE
04
04
04
04
ENDCHAR
STARTCHAR uni252A
ENCODING 9514
SWIDTH 1000 0
SWIDTH1 1000 0
BBX 7 11 0 -2
BITMAP
04
04
04
04
04
FE
FE
06
06
06
06
ENDCHAR
STARTCHAR uni252B
ENCODING 9515
SWIDTH 1000 0
SWIDTH1 1000 0
BBX 5 10 0 -1
BITMAP
18
18
18
F8
F8
18
18
18
18
18
ENDCHAR
STARTCHAR SF060000
ENCODING 9516
SWIDTH 1000 0
SWIDTH1 1000 0
BBX 10 6 0 -1
BITMAP
FFC0
0800
0800
0800
0800
0800
ENDCHAR
STARTCHAR uni252D
ENCODING 9517
SWIDTH 1000 0
SWIDTH1 1000 0
BBX 11 6 0 -2
BITMAP
FFE0
FC00
0400
0400
0400
0400
ENDCHAR
STARTCHAR uni252E
ENCODING 9518
SWIDTH 1000 0
SWIDTH1 1000 0
BBX 11 6 0 -2
BITMAP
FFE0
07E0
0400
0400
0400
0400
ENDCHAR
STARTCHAR uni252F
ENCODING 9519
SWIDTH 1000 0
SWIDTH1 1000 0
BBX 10 7 0 -1
BITMAP
FFC0
FFC0
0800
0800
0800
0800
0800
ENDCHAR
STARTCHAR uni2530
ENCODING 9520
SWIDTH 1000 0
SWIDTH1 1000 0
BBX 10 6 0 -1
BITMAP
FFC0
1800
1800
1800
1800
1800
ENDCHAR
STARTCHAR uni2531
ENCODING 9521
SWIDTH 1000 0
SWIDTH1 1000 0
BBX 11 6 0 -2
BITMAP
FFE0
FE00
0600
0600
0600
0600
ENDCHAR
STARTCHAR uni2532
ENCODING 9522
SWIDTH 1000 0
SWIDTH1 1000 0
BBX 11 6 0 -2
BITMAP
FFE0
07E0
0600
0600
0600
0600
ENDCHAR
STARTCHAR uni2533
ENCODING 9523
SWIDTH 1000 0
SWIDTH1 1000 0
BBX 10 7 0 -1
BITMAP
FFC0
FFC0
1800
1800
1800
1800
1800
ENDCHAR
STARTCHAR SF070000
ENCODING 9524
SWIDTH 1000 0
SWIDTH1 1000 0
BBX 10 5 0 4
BITMAP
0800
0800
0800
0800
FFC0
ENDCHAR
STARTCHAR uni2535
ENCODING 9525
SWIDTH 1000 0
SWIDTH1 1000 0
BBX 11 7 0 2
BITMAP
0400
0400
0400
0400
0400
FFE0
FC00
ENDCHAR
STARTCHAR uni2536
ENCODING 9526
SWIDTH 1000 0
SWIDTH1 1000 0
BBX 11 7 0 2
BITMAP
0400
0400
0400
0400
0400
FFE0
07E0
ENDCHAR
STARTCHAR uni2537
ENCODING 9527
SWIDTH 1000 0
SWIDTH1 1000 0
BBX 10 5 0 4
BITMAP
0800
0800
0800
FFC0
FFC0
ENDCHAR
STARTCHAR uni2538
ENCODING 9528
SWIDTH 1000 0
SWIDTH1 1000 0
BBX 10 5 0 4
BITMAP
1800
1800
1800
1800
FFC0
ENDCHAR
STARTCHAR uni2539
ENCODING 9529
SWIDTH 1000 0
SWIDTH1 1000 0
BBX 10 7 0 2
BITMAP
0600
0600
0600
0600
0600
FFC0
FE00
ENDCHAR
STARTCHAR uni253A
ENCODING 9530
SWIDTH 1000 0
SWIDTH1 1000 0
BBX 11 7 0 2
BITMAP
0600
0600
0600
0600
0600
FFE0
07E0
ENDCHAR
STARTCHAR uni253B
ENCODING 9531
SWIDTH 1000 0
SWIDTH1 1000 0
BBX 10 5 0 4
BITMAP
1800
1800
1800
FFC0
FFC0
ENDCHAR
STARTCHAR SF050000
ENCODING 9532
SWIDTH 1000 0
SWIDTH1 1000 0
BBX 10 10 0 -1
BITMAP
0800
0800
0800
0800
FFC0
0800
0800
0800
0800
0800
ENDCHAR
STARTCHAR uni253D
ENCODING 9533
SWIDTH 1000 0
SWIDTH1 1000 0
BBX 11 11 0 -2
BITMAP
0400
0400
0400
0400
0400
FFE0
FC00
0400
0400
0400
0400
ENDCHAR
STARTCHAR uni253E
ENCODING 9534
SWIDTH 1000 0
SWIDTH1 1000 0
BBX 11 11 0 -2
BITMAP
0400
0400
0400
0400
0400
FFE0
07E0
0400
0400
0400
0400
ENDCHAR
STARTCHAR uni253F
ENCODING 9535
SWIDTH 1000 0
SWIDTH1 1000 0
BBX 10 10 0 -1
BITMAP
0800
0800
0800
FFC0
FFC0
0800
0800
0800
0800
0800
ENDCHAR
STARTCHAR uni2540
ENCODING 9536
SWIDTH 1000 0
SWIDTH1 1000 0
BBX 11 11 0 -2
BITMAP
0600
0600
0600
0600
0600
FFE0
0400
0400
0400
0400
0400
ENDCHAR
STARTCHAR uni2541
ENCODING 9537
SWIDTH 1000 0
SWIDTH1 1000 0
BBX 11 11 0 -2
BITMAP
0400
0400
0400
0400
0400
FFE0
0600
0600
0600
0600
0600
ENDCHAR
STARTCHAR uni2542
ENCODING 9538
SWIDTH 1000 0
SWIDTH1 1000 0
BBX 10 10 0 -1
BITMAP
1800
1800
1800
1800
FFC0
1800
1800
1800
1800
1800
ENDCHAR
STARTCHAR uni2543
ENCODING 9539
SWIDTH 1000 0
SWIDTH1 1000 0
BBX 10 11 0 -2
BITMAP
0600
0600
0600
0600
0600
FFC0
FE00
0400
0400
0400
0400
ENDCHAR
STARTCHAR uni2544
ENCODING 9540
SWIDTH 1000 0
SWIDTH1 1000 0
BBX 11 11 0 -2
BITMAP
0600
0600
0600
0600
0600
FFE0
07E0
0400
0400
0400
0400
ENDCHAR
STARTCHAR uni2545
ENCODING 9541
SWIDTH 1000 0
SWIDTH1 1000 0
BBX 11 11 0 -2
BITMAP
0400
0400
0400
0400
0400
FFE0
FE00
0600
0600
0600
0600
ENDCHAR
STARTCHAR uni2546
ENCODING 9542
SWIDTH 1000 0
SWIDTH1 1000 0
BBX 11 11 0 -2
BITMAP
0400
0400
0400
0400
0400
FFE0
07E0
0600
0600
0600
0600
ENDCHAR
STARTCHAR uni2547
ENCODING 9543
SWIDTH 1000 0
SWIDTH1 1000 0
BBX 11 11 0 -2
BITMAP
0600
0600
0600
0600
0600
FFE0
FFE0
0400
0400
0400
0400
ENDCHAR
STARTCHAR uni2548
ENCODING 9544
SWIDTH 1000 0
SWIDTH1 1000 0
BBX 11 11 0 -2
BITMAP
0400
0400
0400
0400
0400
FFE0
FFE0
0600
0600
0600
0600
ENDCHAR
STARTCHAR uni2549
ENCODING 9545
SWIDTH 1000 0
SWIDTH1 1000 0
BBX 11 11 0 -2
BITMAP
0600
0600
0600
0600
0600
FFE0
FE00
0600
0600
0600
0600
ENDCHAR
STARTCHAR uni254A
ENCODING 9546
SWIDTH 1000 0
SWIDTH1 1000 0
BBX 11 11 0 -2
BITMAP
0600
0600
0600
0600
0600
FFE0
07E0
0600
0600
0600
0600
ENDCHAR
STARTCHAR uni254B
ENCODING 9547
SWIDTH 1000 0
SWIDTH1 1000 0
BBX 10 10 0 -1
BITMAP
1800
1800
1800
FFC0
FFC0
1800
1800
1800
1800
1800
ENDCHAR
STARTCHAR SF430000
ENCODING 9552
SWIDTH 1000 0
SWIDTH1 1000 0
BBX 11 3 0 2
BITMAP
FFE0
0000
FFE0
ENDCHAR
STARTCHAR SF240000
ENCODING 9553
SWIDTH 1000 0
SWIDTH1 1000 0
BBX 3 11 4 -2
BITMAP
A0
A0
A0
A0
A0
A0
A0
A0
A0
A0
A0
ENDCHAR
STARTCHAR SF510000
ENCODING 9554
SWIDTH 1000 0
SWIDTH1 1000 0
BBX 6 7 5 -2
BITMAP
FC
80
FC
80
80
80
80
ENDCHAR
STARTCHAR SF520000
ENCODING 9555
SWIDTH 1000 0
SWIDTH1 1000 0
BBX 7 6 4 -2
BITMAP
FE
A0
A0
A0
A0
A0
ENDCHAR
STARTCHAR SF390000
ENCODING 9556
SWIDTH 1000 0
SWIDTH1 1000 0
BBX 7 7 4 -2
BITMAP
FE
80
BE
A0
A0
A0
A0
ENDCHAR
STARTCHAR SF220000
ENCODING 9557
SWIDTH 1000 0
SWIDTH1 1000 0
BBX 6 7 0 -2
BITMAP
FC
04
FC
04
04
04
04
ENDCHAR
STARTCHAR SF210000
ENCODING 9558
SWIDTH 1000 0
SWIDTH1 1000 0
BBX 7 6 0 -2
BITMAP
FE
0A
0A
0A
0A
0A
ENDCHAR
STARTCHAR SF250000
ENCODING 9559
SWIDTH 1000 0
SWIDTH1 1000 0
BBX 7 7 0 -2
BITMAP
FE
02
FA
0A
0A
0A
0A
ENDCHAR
STARTCHAR SF500000
ENCODING 9560
SWIDTH 1000 0
SWIDTH1 1000 0
BBX 6 7 5 2
BITMAP
80
80
80
80
FC
80
FC
ENDCHAR
STARTCHAR SF490000
ENCODING 9561
SWIDTH 1000 0
SWIDTH1 1000 0
BBX 7 6 4 3
BITMAP
A0
A0
A0
A0
A0
FE
ENDCHAR
STARTCHAR SF380000
ENCODING 9562
SWIDTH 1000 0
SWIDTH1 1000 0
BBX 7 7 4 2
BITMAP
A0
A0
A0
A0
BE
80
FE
ENDCHAR
STARTCHAR SF280000
ENCODING 9563
SWIDTH 1000 0
SWIDTH1 1000 0
BBX 6 7 0 2
BITMAP
04
04
04
04
FC
04
FC
ENDCHAR
STARTCHAR SF270000
ENCODING 9564
SWIDTH 1000 0
SWIDTH1 1000 0
BBX 7 6 0 3
BITMAP
0A
0A
0A
0A
0A
FE
ENDCHAR
STARTCHAR SF260000
ENCODING 9565
SWIDTH 1000 0
SWIDTH1 1000 0
BBX 7 7 0 2
BITMAP
0A
0A
0A
0A
FA
02
FE
ENDCHAR
STARTCHAR SF360000
ENCODING 9566
SWIDTH 1000 0
SWIDTH1 1000 0
BBX 6 11 5 -2
BITMAP
80
80
80
80
FC
80
FC
80
80
80
80
ENDCHAR
STARTCHAR SF370000
ENCODING 9567
SWIDTH 1000 0
SWIDTH1 1000 0
BBX 7 11 4 -2
BITMAP
A0
A0
A0
A0
A0
BE
A0
A0
A0
A0
A0
ENDCHAR
STARTCHAR SF420000
ENCODING 9568
SWIDTH 1000 0
SWIDTH1 1000 0
BBX 7 11 4 -2
BITMAP
A0
A0
A0
A0
BE
80
BE
A0
A0
A0
A0
ENDCHAR
STARTCHAR SF190000
ENCODING 9569
SWIDTH 1000 0
SWIDTH1 1000 0
BBX 6 11 0 -2
BITMAP
04
04
04
04
FC
04
FC
04
04
04
04
ENDCHAR
STARTCHAR SF200000
ENCODING 9570
SWIDTH 1000 0
SWIDTH1 1000 0
BBX 7 11 0 -2
BITMAP
0A
0A
0A
0A
0A
FA
0A
0A
0A
0A
0A
ENDCHAR
STARTCHAR SF230000
ENCODING 9571
SWIDTH 1000 0
SWIDTH1 1000 0
BBX 7 11 0 -2
BITMAP
0A
0A
0A
0A
FA
02
FA
0A
0A
0A
0A
ENDCHAR
STARTCHAR SF470000
ENCODING 9572
SWIDTH 1000 0
SWIDTH1 1000 0
BBX 11 7 0 -2
BITMAP
FFE0
0000
FFE0
0400
0400
0400
0400
ENDCHAR
STARTCHAR SF480000
ENCODING 9573
SWIDTH 1000 0
SWIDTH1 1000 0
BBX 11 6 0 -2
BITMAP
FFE0
0A00
0A00
0A00
0A00
0A00
ENDCHAR
STARTCHAR SF410000
ENCODING 9574
SWIDTH 1000 0
SWIDTH1 1000 0
BBX 11 7 0 -2
BITMAP
FFE0
0000
FBE0
0A00
0A00
0A00
0A00
ENDCHAR
STARTCHAR SF450000
ENCODING 9575
SWIDTH 1000 0
SWIDTH1 1000 0
BBX 11 7 0 2
BITMAP
0400
0400
0400
0400
FFE0
0000
FFE0
ENDCHAR
STARTCHAR SF460000
ENCODING 9576
SWIDTH 1000 0
SWIDTH1 1000 0
BBX 11 6 0 3
BITMAP
0A00
0A00
0A00
0A00
0A00
FFE0
ENDCHAR
STARTCHAR SF400000
ENCODING 9577
SWIDTH 1000 0
SWIDTH1 1000 0
BBX 11 7 0 2
BITMAP
0A00
0A00
0A00
0A00
FBE0
0000
FFE0
ENDCHAR
STARTCHAR SF540000
ENCODING 9578
SWIDTH 1000 0
SWIDTH1 1000 0
BBX 11 11 0 -2
BITMAP
0400
0400
0400
0400
FFE0
0400
FFE0
0400
0400
0400
0400
ENDCHAR
STARTCHAR SF530000
ENCODING 9579
SWIDTH 1000 0
SWIDTH1 1000 0
BBX 11 11 0 -2
BITMAP
0A00
0A00
0A00
0A00
0A00
FFE0
0A00
0A00
0A00
0A00
0A00
ENDCHAR
STARTCHAR SF440000
ENCODING 9580
SWIDTH 1000 0
SWIDTH1 1000 0
BBX 11 11 0 -2
BITMAP
0A00
0A00
0A00
0A00
FBE0
0000
FBE0
0A00
0A00
0A00
0A00
ENDCHAR
STARTCHAR uni256D
ENCODING 9581
SWIDTH 1000 0
SWIDTH1 1000 0
BBX 6 6 5 -2
BITMAP
1C
20
40
80
80
80
ENDCHAR
STARTCHAR uni256E
ENCODING 9582
SWIDTH 1000 0
SWIDTH1 1000 0
BBX 6 6 0 -2
BITMAP
E0
10
08
04
04
04
ENDCHAR
STARTCHAR uni256F
ENCODING 9583
SWIDTH 1000 0
SWIDTH1 1000 0
BBX 6 6 0 3
BITMAP
04
04
04
08
10
E0
ENDCHAR
STARTCHAR uni2570
ENCODING 9584
SWIDTH 1000 0
SWIDTH1 1000 0
BBX 6 6 5 3
BITMAP
80
80
80
40
20
1C
ENDCHAR
STARTCHAR uni2571
ENCODING 9585
SWIDTH 1000 0
SWIDTH1 1000 0
BBX 10 10 1 -1
BITMAP
0040
0080
0100
0200
0400
0800
1000
2000
4000
8000
ENDCHAR
STARTCHAR uni2572
ENCODING 9586
SWIDTH 1000 0
SWIDTH1 1000 0
BBX 10 10 1 -1
BITMAP
8000
4000
2000
1000
0800
0400
0200
0100
0080
0040
ENDCHAR
STARTCHAR uni2573
ENCODING 9587
SWIDTH 1000 0
SWIDTH1 1000 0
BBX 10 10 1 -1
BITMAP
8040
4080
2100
1200
0C00
0C00
1200
2100
4080
8040
ENDCHAR
STARTCHAR uni2581
ENCODING 9601
SWIDTH 1000 0
SWIDTH1 1000 0
BBX 12 1 0 -1
BITMAP
FFF0
ENDCHAR
STARTCHAR uni2582
ENCODING 9602
SWIDTH 1000 0
SWIDTH1 1000 0
BBX 12 2 0 -1
BITMAP
FFF0
FFF0
ENDCHAR
STARTCHAR uni2583
ENCODING 9603
SWIDTH 1000 0
SWIDTH1 1000 0
BBX 12 3 0 -1
BITMAP
FFF0
FFF0
FFF0
ENDCHAR
STARTCHAR dnblock
ENCODING 9604
SWIDTH 1000 0
SWIDTH1 1000 0
BBX 12 5 0 -1
BITMAP
FFF0
FFF0
FFF0
FFF0
FFF0
ENDCHAR
STARTCHAR uni2585
ENCODING 9605
SWIDTH 1000 0
SWIDTH1 1000 0
BBX 12 7 0 -1
BITMAP
FFF0
FFF0
FFF0
FFF0
FFF0
FFF0
FFF0
ENDCHAR
STARTCHAR uni2586
ENCODING 9606
SWIDTH 1000 0
SWIDTH1 1000 0
BBX 12 8 0 -1
BITMAP
FFF0
FFF0
FFF0
FFF0
FFF0
FFF0
FFF0
FFF0
ENDCHAR
STARTCHAR uni2587
ENCODING 9607
SWIDTH 1000 0
SWIDTH1 1000 0
BBX 12 10 0 -1
BITMAP
FFF0
FFF0
FFF0
FFF0
FFF0
FFF0
FFF0
FFF0
FFF0
FFF0
ENDCHAR
STARTCHAR block
ENCODING 9608
SWIDTH 1000 0
SWIDTH1 1000 0
BBX 11 10 0 -1
BITMAP
FFE0
FFE0
FFE0
FFE0
FFE0
FFE0
FFE0
FFE0
FFE0
FFE0
ENDCHAR
STARTCHAR uni2589
ENCODING 9609
SWIDTH 1000 0
SWIDTH1 1000 0
BBX 11 10 0 -1
BITMAP
FFE0
FFE0
FFE0
FFE0
FFE0
FFE0
FFE0
FFE0
FFE0
FFE0
ENDCHAR
STARTCHAR uni258A
ENCODING 9610
SWIDTH 1000 0
SWIDTH1 1000 0
BBX 9 10 0 -1
BITMAP
FF80
FF80
FF80
FF80
FF80
FF80
FF80
FF80
FF80
FF80
ENDCHAR
STARTCHAR uni258B
ENCODING 9611
SWIDTH 1000 0
SWIDTH1 1000 0
BBX 8 10 0 -1
BITMAP
FF
FF
FF
FF
FF
FF
FF
FF
FF
FF
ENDCHAR
STARTCHAR lfblock
ENCODING 9612
SWIDTH 1000 0
SWIDTH1 1000 0
BBX 6 10 0 -1
BITMAP
FC
FC
FC
FC
FC
FC
FC
FC
FC
FC
ENDCHAR
STARTCHAR uni258D
ENCODING 9613
SWIDTH 1000 0
SWIDTH1 1000 0
BBX 4 10 0 -1
BITMAP
F0
F0
F0
F0
F0
F0
F0
F0
F0
F0
ENDCHAR
STARTCHAR uni258E
ENCODING 9614
SWIDTH 1000 0
SWIDTH1 1000 0
BBX 3 10 0 -1
BITMAP
E0
E0
E0
E0
E0
E0
E0
E0
E0
E0
ENDCHAR
STARTCHAR uni258F
ENCODING 9615
SWIDTH 1000 0
SWIDTH1 1000 0
BBX 1 10 0 -1
BITMAP
80
80
80
80
80
80
80
80
80
80
ENDCHAR
STARTCHAR dkshade
ENCODING 9619
SWIDTH 1000 0
SWIDTH1 1000 0
BBX 11 10 0 -1
BITMAP
FFE0
AAA0
D560
AAA0
D560
AAA0
D560
AAA0
D560
FFE0
ENDCHAR
STARTCHAR uni2594
ENCODING 9620
SWIDTH 1000 0
SWIDTH1 1000 0
BBX 11 1 0 8
BITMAP
FFE0
ENDCHAR
STARTCHAR uni2595
ENCODING 9621
SWIDTH 1000 0
SWIDTH1 1000 0
BBX 1 10 9 -1
BITMAP
80
80
80
80
80
80
80
80
80
80
ENDCHAR
STARTCHAR filledbox
ENCODING 9632
SWIDTH 1000 0
SWIDTH1 1000 0
BBX 9 9 1 0
BITMAP
FF80
FF80
FF80
FF80
FF80
FF80
FF80
FF80
FF80
ENDCHAR
STARTCHAR H22073
ENCODING 9633
SWIDTH 1000 0
SWIDTH1 1000 0
BBX 9 9 1 0
BITMAP
FF80
8080
8080
8080
8080
8080
8080
8080
FF80
ENDCHAR
STARTCHAR triagup
ENCODING 9650
SWIDTH 1000 0
SWIDTH1 1000 0
BBX 9 10 1 -1
BITMAP
0800
0800
1C00
1C00
3E00
3E00
7F00
7F00
FF80
FF80
ENDCHAR
STARTCHAR uni25B3
ENCODING 9651
SWIDTH 1000 0
SWIDTH1 1000 0
BBX 9 10 1 -1
BITMAP
0800
0800
1400
1400
2200
2200
4100
4100
8080
FF80
ENDCHAR
STARTCHAR triagdn
ENCODING 9660
SWIDTH 1000 0
SWIDTH1 1000 0
BBX 5 6 0 0
BITMAP
70
88
80
80
88
70
ENDCHAR
STARTCHAR uni25BD
ENCODING 9661
SWIDTH 1000 0
SWIDTH1 1000 0
BBX 9 8 1 0
BITMAP
FF80
8080
4100
2200
2200
1400
0800
0800
ENDCHAR
STARTCHAR uni25C6
ENCODING 9670
SWIDTH 1000 0
SWIDTH1 1000 0
BBX 9 9 0 0
BITMAP
0800
1C00
3E00
7F00
FF80
7F00
3E00
1C00
0800
ENDCHAR
STARTCHAR uni25C7
ENCODING 9671
SWIDTH 1000 0
SWIDTH1 1000 0
BBX 9 9 0 0
BITMAP
0800
1400
2200
4100
8080
4100
2200
1400
0800
ENDCHAR
STARTCHAR circle
ENCODING 9675
SWIDTH 1000 0
SWIDTH1 1000 0
BBX 9 9 1 0
BITMAP
3E00
4100
8080
8080
8080
8080
8080
4100
3E00
ENDCHAR
STARTCHAR uni25CE
ENCODING 9678
SWIDTH 1000 0
SWIDTH1 1000 0
BBX 9 9 1 0
BITMAP
3E00
4100
9C80
A280
A280
A280
9C80
4100
3E00
ENDCHAR
STARTCHAR H18533
ENCODING 9679
SWIDTH 1000 0
SWIDTH1 1000 0
BBX 9 9 1 0
BITMAP
3E00
7F00
FF80
FF80
FF80
FF80
FF80
7F00
3E00
ENDCHAR
STARTCHAR uni25E2
ENCODING 9698
SWIDTH 1000 0
SWIDTH1 1000 0
BBX 11 11 0 -2
BITMAP
0020
0060
00E0
01E0
03E0
07E0
0FE0
1FE0
3FE0
7FE0
FFE0
ENDCHAR
STARTCHAR uni25E3
ENCODING 9699
SWIDTH 1000 0
SWIDTH1 1000 0
BBX 11 11 0 -2
BITMAP
8000
C000
E000
F000
F800
FC00
FE00
FF00
FF80
FFC0
FFE0
ENDCHAR
STARTCHAR uni25E4
ENCODING 9700
SWIDTH 1000 0
SWIDTH1 1000 0
BBX 10 10 0 -1
BITMAP
FFC0
FF80
FF00
FE00
FC00
F800
F000
E000
C000
8000
ENDCHAR
STARTCHAR uni25E5
ENCODING 9701
SWIDTH 1000 0
SWIDTH1 1000 0
BBX 10 10 1 -1
BITMAP
FFC0
7FC0
3FC0
1FC0
0FC0
07C0
03C0
01C0
00C0
0040
ENDCHAR
STARTCHAR uni2605
ENCODING 9733
SWIDTH 1000 0
SWIDTH1 1000 0
BBX 11 10 0 -1
BITMAP
0400
0400
0E00
0E00
FFE0
7FC0
1F00
1F00
3B80
2080
ENDCHAR
STARTCHAR uni2606
ENCODING 9734
SWIDTH 1000 0
SWIDTH1 1000 0
BBX 11 10 0 -1
BITMAP
0400
0400
0400
0A00
FBE0
4040
3180
1500
1A80
3180
ENDCHAR
STARTCHAR uni2609
ENCODING 9737
SWIDTH 1000 0
SWIDTH1 1000 0
BBX 7 7 2 1
BITMAP
38
44
82
92
82
44
38
ENDCHAR
STARTCHAR female
ENCODING 9792
SWIDTH 1000 0
SWIDTH1 1000 0
BBX 7 10 2 -1
BITMAP
38
44
44
44
38
10
FE
10
10
10
ENDCHAR
STARTCHAR male
ENCODING 9794
SWIDTH 1000 0
SWIDTH1 1000 0
BBX 5 10 3 -1
BITMAP
20
70
A8
20
20
70
88
88
88
70
ENDCHAR
STARTCHAR uni2E81
ENCODING 11905
SWIDTH 1000 0
SWIDTH1 1000 0
BBX 10 10 0 -1
BITMAP
01C0
3E00
2000
2000
2000
2000
2000
4000
4000
8000
ENDCHAR
STARTCHAR uni2E84
ENCODING 11908
SWIDTH 1000 0
SWIDTH1 1000 0
BBX 10 9 0 -1
BITMAP
FF00
0100
0100
0100
0100
0140
0140
00C0
0040
ENDCHAR
STARTCHAR uni2E88
ENCODING 11912
SWIDTH 1000 0
SWIDTH1 1000 0
BBX 9 5 1 4
BITMAP
2000
2000
3F80
4100
8200
ENDCHAR
STARTCHAR uni2E8B
ENCODING 11915
SWIDTH 1000 0
SWIDTH1 1000 0
BBX 8 6 2 -1
BITMAP
FC
84
84
99
81
7F
ENDCHAR
STARTCHAR uni2E8C
ENCODING 11916
SWIDTH 1000 0
SWIDTH1 1000 0
BBX 7 4 2 5
BITMAP
10
92
54
10
ENDCHAR
STARTCHAR uni2E97
ENCODING 11927
SWIDTH 1000 0
SWIDTH1 1000 0
BBX 10 6 0 -1
BITMAP
0800
0800
0800
4A80
8940
3800
ENDCHAR
STARTCHAR uni2EA7
ENCODING 11943
SWIDTH 1000 0
SWIDTH1 1000 0
BBX 10 6 0 3
BITMAP
0400
2400
3F80
4400
0400
FFC0
ENDCHAR
STARTCHAR uni2EAA
ENCODING 11946
SWIDTH 1000 0
SWIDTH1 1000 0
BBX 6 9 1 -1
BITMAP
7C
08
10
50
5C
50
50
5C
E0
ENDCHAR
STARTCHAR uni2EAE
ENCODING 11950
SWIDTH 1000 0
SWIDTH1 1000 0
BBX 10 5 0 4
BITMAP
2100
2100
3DC0
5280
9480
ENDCHAR
STARTCHAR uni2EB3
ENCODING 11955
SWIDTH 1000 0
SWIDTH1 1000 0
BBX 9 5 1 3
BITMAP
FF80
8080
1400
2200
C100
ENDCHAR
STARTCHAR uni2EB6
ENCODING 11958
SWIDTH 1000 0
SWIDTH1 1000 0
BBX 10 10 0 -1
BITMAP
1100
0A00
7FC0
0400
3F80
0400
7FC0
0800
1000
E000
ENDCHAR
STARTCHAR uni2EB7
ENCODING 11959
SWIDTH 1000 0
SWIDTH1 1000 0
BBX 9 7 1 2
BITMAP
2200
1400
FF80
0800
7F00
0800
FF80
ENDCHAR
STARTCHAR uni2EBB
ENCODING 11963
SWIDTH 1000 0
SWIDTH1 1000 0
BBX 10 8 0 1
BITMAP
0800
7F00
0900
FFC0
0900
7F00
0800
FFC0
ENDCHAR
STARTCHAR uni2ECA
ENCODING 11978
SWIDTH 1000 0
SWIDTH1 1000 0
BBX 6 10 1 -1
BITMAP
78
48
48
78
10
5C
50
50
5C
E0
ENDCHAR
STARTCHAR uni2FF0
ENCODING 12272
SWIDTH 1000 0
SWIDTH1 1000 0
BBX 9 10 1 -1
BITMAP
ED80
8800
0880
8080
8800
0880
8080
8800
0880
DB80
ENDCHAR
STARTCHAR uni2FF1
ENCODING 12273
SWIDTH 1000 0
SWIDTH1 1000 0
BBX 9 11 1 -1
BITMAP
ED80
0080
8000
8080
0080
B600
8080
0080
8000
8080
DB80
ENDCHAR
STARTCHAR uni2FF2
ENCODING 12274
SWIDTH 1000 0
SWIDTH1 1000 0
BBX 10 10 0 0
BITMAP
B6C0
9240
1200
8040
9240
1200
8040
9240
1200
D9C0
ENDCHAR
STARTCHAR uni2FF3
ENCODING 12275
SWIDTH 1000 0
SWIDTH1 1000 0
BBX 9 10 1 0
BITMAP
ED80
0080
8000
ED80
0000
8080
B680
0000
8080
B680
ENDCHAR
STARTCHAR uni2FF4
ENCODING 12276
SWIDTH 1000 0
SWIDTH1 1000 0
BBX 10 11 0 -1
BITMAP
DB40
8040
0000
9A40
8240
1000
9240
9640
0000
8040
DB40
ENDCHAR
STARTCHAR uni2FF5
ENCODING 12277
SWIDTH 1000 0
SWIDTH1 1000 0
BBX 10 10 1 0
BITMAP
EDC0
8040
0000
9640
9240
1200
8040
1240
9200
DB40
ENDCHAR
STARTCHAR uni2FF6
ENCODING 12278
SWIDTH 1000 0
SWIDTH1 1000 0
BBX 9 10 1 -1
BITMAP
B680
A280
0000
A280
8080
2200
B680
0080
8000
ED80
ENDCHAR
STARTCHAR uni2FF7
ENCODING 12279
SWIDTH 1000 0
SWIDTH1 1000 0
BBX 9 10 1 -1
BITMAP
ED80
8080
0000
B680
A080
0000
A080
B680
0000
B680
ENDCHAR
STARTCHAR uni2FF8
ENCODING 12280
SWIDTH 1000 0
SWIDTH1 1000 0
BBX 9 10 1 -1
BITMAP
ED80
8000
0080
9B80
8080
1000
1080
8080
9000
DB80
ENDCHAR
STARTCHAR uni2FF9
ENCODING 12281
SWIDTH 1000 0
SWIDTH1 1000 0
BBX 9 10 1 -1
BITMAP
ED80
8080
0000
EE80
8280
0200
8080
8280
0200
ED80
ENDCHAR
STARTCHAR uni2FFA
ENCODING 12282
SWIDTH 1000 0
SWIDTH1 1000 0
BBX 9 10 1 -1
BITMAP
DB80
9080
0000
9080
9000
0080
9B80
8000
0080
DB80
ENDCHAR
STARTCHAR uni2FFB
ENCODING 12283
SWIDTH 1000 0
SWIDTH1 1000 0
BBX 10 10 0 -1
BITMAP
D700
0100
8000
9B40
0140
9000
DB40
0040
1000
1B40
ENDCHAR
STARTCHAR uni3000
ENCODING 12288
SWIDTH 1000 0
SWIDTH1 1000 0
BBX 1 1 10 -1
BITMAP
00
ENDCHAR
STARTCHAR uni3001
ENCODING 12289
SWIDTH 1000 0
SWIDTH1 1000 0
BBX 3 3 0 0
BITMAP
80
60
20
ENDCHAR
STARTCHAR uni3002
ENCODING 12290
SWIDTH 1000 0
SWIDTH1 1000 0
BBX 3 3 1 0
BITMAP
E0
A0
E0
ENDCHAR
STARTCHAR uni3003
ENCODING 12291
SWIDTH 1000 0
SWIDTH1 1000 0
BBX 5 5 3 2
BITMAP
28
28
50
50
A0
ENDCHAR
STARTCHAR uni3005
ENCODING 12293
SWIDTH 1000 0
SWIDTH1 1000 0
BBX 7 9 2 0
BITMAP
20
20
3E
42
84
28
10
08
08
ENDCHAR
STARTCHAR uni3006
ENCODING 12294
SWIDTH 1000 0
SWIDTH1 1000 0
BBX 8 9 1 0
BITMAP
02
01
01
3A
44
8A
90
A0
C0
ENDCHAR
STARTCHAR uni3007
ENCODING 12295
SWIDTH 1000 0
SWIDTH1 1000 0
BBX 9 9 0 -1
BITMAP
3E00
4100
8080
8080
8080
8080
8080
4100
3E00
ENDCHAR
STARTCHAR uni3008
ENCODING 12296
SWIDTH 1000 0
SWIDTH1 1000 0
BBX 3 10 7 -1
BITMAP
20
20
40
40
80
80
40
40
20
20
ENDCHAR
STARTCHAR uni3009
ENCODING 12297
SWIDTH 1000 0
SWIDTH1 1000 0
BBX 3 10 1 -1
BITMAP
80
80
40
40
20
20
40
40
80
80
ENDCHAR
STARTCHAR uni300A
ENCODING 12298
SWIDTH 1000 0
SWIDTH1 1000 0
BBX 5 10 5 -1
BITMAP
28
28
50
50
A0
A0
50
50
28
28
ENDCHAR
STARTCHAR uni300B
ENCODING 12299
SWIDTH 1000 0
SWIDTH1 1000 0
BBX 5 10 1 -1
BITMAP
A0
A0
50
50
28
28
50
50
A0
A0
ENDCHAR
STARTCHAR uni300C
ENCODING 12300
SWIDTH 1000 0
SWIDTH1 1000 0
BBX 3 10 7 -1
BITMAP
E0
80
80
80
80
80
80
80
80
80
ENDCHAR
STARTCHAR uni300D
ENCODING 12301
SWIDTH 1000 0
SWIDTH1 1000 0
BBX 3 10 1 -1
BITMAP
20
20
20
20
20
20
20
20
20
E0
ENDCHAR
STARTCHAR uni300E
ENCODING 12302
SWIDTH 1000 0
SWIDTH1 1000 0
BBX 5 10 6 -1
BITMAP
F8
88
B8
A0
A0
A0
A0
A0
A0
E0
ENDCHAR
STARTCHAR uni300F
ENCODING 12303
SWIDTH 1000 0
SWIDTH1 1000 0
BBX 5 10 0 -1
BITMAP
38
28
28
28
28
28
28
E8
88
F8
ENDCHAR
STARTCHAR uni3010
ENCODING 12304
SWIDTH 1000 0
SWIDTH1 1000 0
BBX 5 10 5 -1
BITMAP
F8
F0
E0
E0
C0
C0
E0
E0
F0
F8
ENDCHAR
STARTCHAR uni3011
ENCODING 12305
SWIDTH 1000 0
SWIDTH1 1000 0
BBX 5 10 1 -1
BITMAP
F8
78
38
38
18
18
38
38
78
F8
ENDCHAR
STARTCHAR uni3012
ENCODING 12306
SWIDTH 1000 0
SWIDTH1 1000 0
BBX 9 10 1 -1
BITMAP
FF80
0000
0000
FF80
0800
0800
0800
0800
0800
0800
ENDCHAR
STARTCHAR uni3013
ENCODING 12307
SWIDTH 1000 0
SWIDTH1 1000 0
BBX 11 9 0 0
BITMAP
FFE0
FFE0
FFE0
0000
0000
0000
FFE0
FFE0
FFE0
ENDCHAR
STARTCHAR uni3014
ENCODING 12308
SWIDTH 1000 0
SWIDTH1 1000 0
BBX 3 10 7 -1
BITMAP
20
40
80
80
80
80
80
80
40
20
ENDCHAR
STARTCHAR uni3015
ENCODING 12309
SWIDTH 1000 0
SWIDTH1 1000 0
BBX 3 10 1 -1
BITMAP
80
40
20
20
20
20
20
20
40
80
ENDCHAR
STARTCHAR uni3016
ENCODING 12310
SWIDTH 1000 0
SWIDTH1 1000 0
BBX 5 10 5 -1
BITMAP
F8
88
90
90
A0
A0
90
90
88
F8
ENDCHAR
STARTCHAR uni3017
ENCODING 12311
SWIDTH 1000 0
SWIDTH1 1000 0
BBX 5 10 1 -1
BITMAP
F8
88
48
48
28
28
48
48
88
F8
ENDCHAR
STARTCHAR uni301D
ENCODING 12317
SWIDTH 1000 0
SWIDTH1 1000 0
BBX 4 3 6 6
BITMAP
A0
50
50
ENDCHAR
STARTCHAR uni301E
ENCODING 12318
SWIDTH 1000 0
SWIDTH1 1000 0
BBX 4 3 0 6
BITMAP
50
A0
A0
ENDCHAR
STARTCHAR uni3021
ENCODING 12321
SWIDTH 1000 0
SWIDTH1 1000 0
BBX 1 10 5 -1
BITMAP
80
80
80
80
80
80
80
80
80
80
ENDCHAR
STARTCHAR uni3022
ENCODING 12322
SWIDTH 1000 0
SWIDTH1 1000 0
BBX 5 10 3 -1
BITMAP
08
88
88
88
88
88
88
88
88
08
ENDCHAR
STARTCHAR uni3023
ENCODING 12323
SWIDTH 1000 0
SWIDTH1 1000 0
BBX 7 10 2 -1
BITMAP
82
92
92
92
92
92
92
92
92
82
ENDCHAR
STARTCHAR uni3024
ENCODING 12324
SWIDTH 1000 0
SWIDTH1 1000 0
BBX 7 8 2 1
BITMAP
04
04
C8
28
18
14
22
C0
ENDCHAR
STARTCHAR uni3025
ENCODING 12325
SWIDTH 1000 0
SWIDTH1 1000 0
BBX 7 10 2 -1
BITMAP
20
22
4C
F0
28
44
84
84
48
30
ENDCHAR
STARTCHAR uni3026
ENCODING 12326
SWIDTH 1000 0
SWIDTH1 1000 0
BBX 11 5 0 4
BITMAP
0400
0400
0400
0400
FFE0
ENDCHAR
STARTCHAR uni3027
ENCODING 12327
SWIDTH 1000 0
SWIDTH1 1000 0
BBX 11 7 0 2
BITMAP
0400
0400
0400
FFE0
0000
0000
7FC0
ENDCHAR
STARTCHAR uni3028
ENCODING 12328
SWIDTH 1000 0
SWIDTH1 1000 0
BBX 11 9 0 0
BITMAP
0400
0400
FFE0
0000
0000
7FC0
0000
0000
FFE0
ENDCHAR
STARTCHAR uni3029
ENCODING 12329
SWIDTH 1000 0
SWIDTH1 1000 0
BBX 10 10 0 -1
BITMAP
2000
3FC0
2100
5900
0500
0200
0500
0900
3100
C000
ENDCHAR
STARTCHAR uni303E
ENCODING 12350
SWIDTH 1000 0
SWIDTH1 1000 0
BBX 10 12 1 -2
BITMAP
B6C0
8040
9940
2600
8040
8240
3F00
8440
BF40
0800
8040
EDC0
ENDCHAR
STARTCHAR uni3041
ENCODING 12353
SWIDTH 1000 0
SWIDTH1 1000 0
BBX 6 7 2 0
BITMAP
20
F8
20
78
D4
A4
48
ENDCHAR
STARTCHAR uni3042
ENCODING 12354
SWIDTH 1000 0
SWIDTH1 1000 0
BBX 8 9 1 0
BITMAP
10
FE
20
3C
6A
A9
A9
91
66
ENDCHAR
STARTCHAR uni3043
ENCODING 12355
SWIDTH 1000 0
SWIDTH1 1000 0
BBX 6 6 2 0
BITMAP
88
88
84
84
A4
40
ENDCHAR
STARTCHAR uni3044
ENCODING 12356
SWIDTH 1000 0
SWIDTH1 1000 0
BBX 8 8 1 0
BITMAP
80
82
82
81
81
81
90
60
ENDCHAR
STARTCHAR uni3045
ENCODING 12357
SWIDTH 1000 0
SWIDTH1 1000 0
BBX 5 7 3 0
BITMAP
70
00
F0
08
08
10
60
ENDCHAR
STARTCHAR uni3046
ENCODING 12358
SWIDTH 1000 0
SWIDTH1 1000 0
BBX 6 9 2 0
BITMAP
60
18
00
78
84
04
04
08
70
ENDCHAR
STARTCHAR uni3047
ENCODING 12359
SWIDTH 1000 0
SWIDTH1 1000 0
BBX 7 7 2 0
BITMAP
38
00
78
10
38
48
8E
ENDCHAR
STARTCHAR uni3048
ENCODING 12360
SWIDTH 1000 0
SWIDTH1 1000 0
BBX 8 9 1 0
BITMAP
30
0C
00
7C
08
10
28
48
87
ENDCHAR
STARTCHAR uni3049
ENCODING 12361
SWIDTH 1000 0
SWIDTH1 1000 0
BBX 7 7 1 0
BITMAP
20
F4
22
3C
62
A2
6C
ENDCHAR
STARTCHAR uni304A
ENCODING 12362
SWIDTH 1000 0
SWIDTH1 1000 0
BBX 8 9 1 0
BITMAP
20
22
F9
20
3E
61
A1
A9
66
ENDCHAR
STARTCHAR uni304B
ENCODING 12363
SWIDTH 1000 0
SWIDTH1 1000 0
BBX 8 9 1 0
BITMAP
20
22
F1
49
49
4B
88
88
B0
ENDCHAR
STARTCHAR uni304C
ENCODING 12364
SWIDTH 1000 0
SWIDTH1 1000 0
BBX 8 9 1 0
BITMAP
23
20
F2
49
49
49
8B
88
B0
ENDCHAR
STARTCHAR uni304D
ENCODING 12365
SWIDTH 1000 0
SWIDTH1 1000 0
BBX 7 9 2 0
BITMAP
10
FC
10
FE
08
7C
84
80
78
ENDCHAR
STARTCHAR uni304E
ENCODING 12366
SWIDTH 1000 0
SWIDTH1 1000 0
BBX 7 9 2 0
BITMAP
16
FC
10
FE
08
7C
84
80
78
ENDCHAR
STARTCHAR uni304F
ENCODING 12367
SWIDTH 1000 0
SWIDTH1 1000 0
BBX 5 9 2 0
BITMAP
10
20
40
80
80
40
20
10
08
ENDCHAR
STARTCHAR uni3050
ENCODING 12368
SWIDTH 1000 0
SWIDTH1 1000 0
BBX 6 9 2 0
BITMAP
10
20
4C
80
80
40
20
10
08
ENDCHAR
STARTCHAR uni3051
ENCODING 12369
SWIDTH 1000 0
SWIDTH1 1000 0
BBX 8 9 1 0
BITMAP
82
82
9F
82
82
82
82
84
18
ENDCHAR
STARTCHAR uni3052
ENCODING 12370
SWIDTH 1000 0
SWIDTH1 1000 0
BBX 8 9 1 0
BITMAP
87
84
BF
84
84
84
84
88
30
ENDCHAR
STARTCHAR uni3053
ENCODING 12371
SWIDTH 1000 0
SWIDTH1 1000 0
BBX 7 8 2 0
BITMAP
7C
00
00
00
40
80
80
7E
ENDCHAR
STARTCHAR uni3054
ENCODING 12372
SWIDTH 1000 0
SWIDTH1 1000 0
BBX 7 9 2 0
BITMAP
06
78
00
00
00
40
80
80
7E
ENDCHAR
STARTCHAR uni3055
ENCODING 12373
SWIDTH 1000 0
SWIDTH1 1000 0
BBX 7 9 2 0
BITMAP
10
10
FE
08
08
7C
84
80
78
ENDCHAR
STARTCHAR uni3056
ENCODING 12374
SWIDTH 1000 0
SWIDTH1 1000 0
BBX 7 9 2 0
BITMAP
16
10
FE
08
08
7C
84
80
78
ENDCHAR
STARTCHAR uni3057
ENCODING 12375
SWIDTH 1000 0
SWIDTH1 1000 0
BBX 6 9 3 0
BITMAP
80
80
80
80
80
80
84
88
70
ENDCHAR
STARTCHAR uni3058
ENCODING 12376
SWIDTH 1000 0
SWIDTH1 1000 0
BBX 6 9 3 0
BITMAP
80
8C
80
80
80
80
84
88
70
ENDCHAR
STARTCHAR uni3059
ENCODING 12377
SWIDTH 1000 0
SWIDTH1 1000 0
BBX 8 9 1 0
BITMAP
08
FF
08
38
48
48
38
08
70
ENDCHAR
STARTCHAR uni305A
ENCODING 12378
SWIDTH 1000 0
SWIDTH1 1000 0
BBX 8 9 1 0
BITMAP
0B
FF
08
38
48
48
38
08
70
ENDCHAR
STARTCHAR uni305B
ENCODING 12379
SWIDTH 1000 0
SWIDTH1 1000 0
BBX 8 9 1 0
BITMAP
22
22
3F
E2
22
26
20
20
1F
ENDCHAR
STARTCHAR uni305C
ENCODING 12380
SWIDTH 1000 0
SWIDTH1 1000 0
BBX 8 9 1 0
BITMAP
23
22
3F
E2
22
26
20
20
1F
ENDCHAR
STARTCHAR uni305D
ENCODING 12381
SWIDTH 1000 0
SWIDTH1 1000 0
BBX 8 9 1 0
BITMAP
7C
08
10
FF
10
20
20
20
1C
ENDCHAR
STARTCHAR uni305E
ENCODING 12382
SWIDTH 1000 0
SWIDTH1 1000 0
BBX 8 9 1 0
BITMAP
7C
0B
10
FF
10
20
20
20
1C
ENDCHAR
STARTCHAR uni305F
ENCODING 12383
SWIDTH 1000 0
SWIDTH1 1000 0
BBX 8 9 1 0
BITMAP
20
20
F8
20
4F
40
40
88
8F
ENDCHAR
STARTCHAR uni3060
ENCODING 12384
SWIDTH 1000 0
SWIDTH1 1000 0
BBX 8 9 1 0
BITMAP
20
23
F8
20
4F
40
40
88
8F
ENDCHAR
STARTCHAR uni3061
ENCODING 12385
SWIDTH 1000 0
SWIDTH1 1000 0
BBX 7 9 1 0
BITMAP
20
20
FE
20
5C
62
42
02
3C
ENDCHAR
STARTCHAR uni3062
ENCODING 12386
SWIDTH 1000 0
SWIDTH1 1000 0
BBX 8 9 1 0
BITMAP
23
20
FE
20
5C
62
42
02
3C
ENDCHAR
STARTCHAR uni3063
ENCODING 12387
SWIDTH 1000 0
SWIDTH1 1000 0
BBX 6 5 2 0
BITMAP
F8
04
04
04
38
ENDCHAR
STARTCHAR uni3064
ENCODING 12388
SWIDTH 1000 0
SWIDTH1 1000 0
BBX 8 6 1 1
BITMAP
FE
01
01
01
02
1C
ENDCHAR
STARTCHAR uni3065
ENCODING 12389
SWIDTH 1000 0
SWIDTH1 1000 0
BBX 8 7 1 1
BITMAP
03
FE
01
01
01
02
1C
ENDCHAR
STARTCHAR uni3066
ENCODING 12390
SWIDTH 1000 0
SWIDTH1 1000 0
BBX 8 8 1 0
BITMAP
FF
08
10
20
20
20
10
0C
ENDCHAR
STARTCHAR uni3067
ENCODING 12391
SWIDTH 1000 0
SWIDTH1 1000 0
BBX 8 8 1 0
BITMAP
FF
08
13
20
20
20
10
0C
ENDCHAR
STARTCHAR uni3068
ENCODING 12392
SWIDTH 1000 0
SWIDTH1 1000 0
BBX 6 9 2 0
BITMAP
40
40
40
4C
30
40
80
80
7C
ENDCHAR
STARTCHAR uni3069
ENCODING 12393
SWIDTH 1000 0
SWIDTH1 1000 0
BBX 7 9 2 0
BITMAP
40
46
40
4C
30
40
80
80
7C
ENDCHAR
STARTCHAR uni306A
ENCODING 12394
SWIDTH 1000 0
SWIDTH1 1000 0
BBX 8 9 1 0
BITMAP
20
26
F1
44
44
84
9C
26
19
ENDCHAR
STARTCHAR uni306B
ENCODING 12395
SWIDTH 1000 0
SWIDTH1 1000 0
BBX 8 9 1 0
BITMAP
80
9F
80
80
80
80
90
9F
80
ENDCHAR
STARTCHAR uni306C
ENCODING 12396
SWIDTH 1000 0
SWIDTH1 1000 0
BBX 8 9 1 0
BITMAP
08
48
5C
6A
49
A9
B3
95
62
ENDCHAR
STARTCHAR uni306D
ENCODING 12397
SWIDTH 1000 0
SWIDTH1 1000 0
BBX 8 9 1 0
BITMAP
20
2C
F2
22
22
62
A6
2A
25
ENDCHAR
STARTCHAR uni306E
ENCODING 12398
SWIDTH 1000 0
SWIDTH1 1000 0
BBX 8 8 1 0
BITMAP
3C
52
91
91
91
91
62
04
ENDCHAR
STARTCHAR uni306F
ENCODING 12399
SWIDTH 1000 0
SWIDTH1 1000 0
BBX 8 9 1 0
BITMAP
84
84
BF
84
84
84
9C
A6
99
ENDCHAR
STARTCHAR uni3070
ENCODING 12400
SWIDTH 1000 0
SWIDTH1 1000 0
BBX 8 9 1 0
BITMAP
87
84
BF
84
84
84
9C
A6
99
ENDCHAR
STARTCHAR uni3071
ENCODING 12401
SWIDTH 1000 0
SWIDTH1 1000 0
BBX 8 9 1 0
BITMAP
87
87
BF
84
84
84
9C
A6
99
ENDCHAR
STARTCHAR uni3072
ENCODING 12402
SWIDTH 1000 0
SWIDTH1 1000 0
BBX 8 8 1 0
BITMAP
E4
24
46
85
84
84
88
70
ENDCHAR
STARTCHAR uni3073
ENCODING 12403
SWIDTH 1000 0
SWIDTH1 1000 0
BBX 8 9 1 0
BITMAP
03
E4
24
46
85
84
84
88
70
ENDCHAR
STARTCHAR uni3074
ENCODING 12404
SWIDTH 1000 0
SWIDTH1 1000 0
BBX 8 9 1 0
BITMAP
03
E3
24
46
85
84
84
88
70
ENDCHAR
STARTCHAR uni3075
ENCODING 12405
SWIDTH 1000 0
SWIDTH1 1000 0
BBX 8 9 1 0
BITMAP
20
18
00
10
10
52
49
89
30
ENDCHAR
STARTCHAR uni3076
ENCODING 12406
SWIDTH 1000 0
SWIDTH1 1000 0
BBX 8 9 1 0
BITMAP
23
18
00
10
10
52
49
89
30
ENDCHAR
STARTCHAR uni3077
ENCODING 12407
SWIDTH 1000 0
SWIDTH1 1000 0
BBX 8 9 1 0
BITMAP
23
1B
00
10
10
52
49
89
30
ENDCHAR
STARTCHAR uni3078
ENCODING 12408
SWIDTH 1000 0
SWIDTH1 1000 0
BBX 8 6 1 1
BITMAP
20
50
48
84
82
01
ENDCHAR
STARTCHAR uni3079
ENCODING 12409
SWIDTH 1000 0
SWIDTH1 1000 0
BBX 8 7 1 1
BITMAP
03
20
50
48
84
82
01
ENDCHAR
STARTCHAR uni307A
ENCODING 12410
SWIDTH 1000 0
SWIDTH1 1000 0
BBX 8 7 1 1
BITMAP
03
23
50
48
84
82
01
ENDCHAR
STARTCHAR uni307B
ENCODING 12411
SWIDTH 1000 0
SWIDTH1 1000 0
BBX 8 9 1 0
BITMAP
80
BF
84
BF
84
84
9C
A6
99
ENDCHAR
STARTCHAR uni307C
ENCODING 12412
SWIDTH 1000 0
SWIDTH1 1000 0
BBX 8 9 1 0
BITMAP
83
BE
84
BF
84
84
9C
A6
99
ENDCHAR
STARTCHAR uni307D
ENCODING 12413
SWIDTH 1000 0
SWIDTH1 1000 0
BBX 8 9 1 0
BITMAP
83
BF
84
BF
84
84
9C
A6
99
ENDCHAR
STARTCHAR uni307E
ENCODING 12414
SWIDTH 1000 0
SWIDTH1 1000 0
BBX 7 9 1 0
BITMAP
08
7E
08
3E
08
08
78
8C
72
ENDCHAR
STARTCHAR uni307F
ENCODING 12415
SWIDTH 1000 0
SWIDTH1 1000 0
BBX 8 9 1 0
BITMAP
70
10
14
14
7C
A6
A5
C8
08
ENDCHAR
STARTCHAR uni3080
ENCODING 12416
SWIDTH 1000 0
SWIDTH1 1000 0
BBX 8 9 1 0
BITMAP
20
FA
21
60
A0
A2
41
41
3E
ENDCHAR
STARTCHAR uni3081
ENCODING 12417
SWIDTH 1000 0
SWIDTH1 1000 0
BBX 8 9 1 0
BITMAP
08
5C
6A
49
A9
A9
91
62
04
ENDCHAR
STARTCHAR uni3082
ENCODING 12418
SWIDTH 1000 0
SWIDTH1 1000 0
BBX 7 9 1 0
BITMAP
20
20
F8
40
F8
42
42
42
3C
ENDCHAR
STARTCHAR uni3083
ENCODING 12419
SWIDTH 1000 0
SWIDTH1 1000 0
BBX 7 7 1 0
BITMAP
10
5C
2A
E2
2C
10
10
ENDCHAR
STARTCHAR uni3084
ENCODING 12420
SWIDTH 1000 0
SWIDTH1 1000 0
BBX 8 9 1 0
BITMAP
08
4E
75
C5
21
22
10
10
10
ENDCHAR
STARTCHAR uni3085
ENCODING 12421
SWIDTH 1000 0
SWIDTH1 1000 0
BBX 6 7 2 0
BITMAP
10
B8
D4
94
94
B8
10
ENDCHAR
STARTCHAR uni3086
ENCODING 12422
SWIDTH 1000 0
SWIDTH1 1000 0
BBX 8 9 1 0
BITMAP
08
9C
AA
C9
89
89
AA
9C
30
ENDCHAR
STARTCHAR uni3087
ENCODING 12423
SWIDTH 1000 0
SWIDTH1 1000 0
BBX 6 7 2 0
BITMAP
10
10
1C
10
70
98
64
ENDCHAR
STARTCHAR uni3088
ENCODING 12424
SWIDTH 1000 0
SWIDTH1 1000 0
BBX 8 9 1 0
BITMAP
08
08
0F
08
08
08
78
8E
71
ENDCHAR
STARTCHAR uni3089
ENCODING 12425
SWIDTH 1000 0
SWIDTH1 1000 0
BBX 7 9 1 0
BITMAP
60
18
80
80
BC
C2
82
02
3C
ENDCHAR
STARTCHAR uni308A
ENCODING 12426
SWIDTH 1000 0
SWIDTH1 1000 0
BBX 6 9 2 0
BITMAP
84
84
84
A4
C4
84
04
08
30
ENDCHAR
STARTCHAR uni308B
ENCODING 12427
SWIDTH 1000 0
SWIDTH1 1000 0
BBX 8 9 1 0
BITMAP
7C
08
10
3E
41
81
19
26
1C
ENDCHAR
STARTCHAR uni308C
ENCODING 12428
SWIDTH 1000 0
SWIDTH1 1000 0
BBX 8 9 1 0
BITMAP
20
20
EC
32
22
62
A2
23
22
ENDCHAR
STARTCHAR uni308D
ENCODING 12429
SWIDTH 1000 0
SWIDTH1 1000 0
BBX 8 9 1 0
BITMAP
7C
08
10
3C
42
81
01
02
1C
ENDCHAR
STARTCHAR uni308E
ENCODING 12430
SWIDTH 1000 0
SWIDTH1 1000 0
BBX 7 6 2 0
BITMAP
40
DC
62
42
C2
4C
ENDCHAR
STARTCHAR uni308F
ENCODING 12431
SWIDTH 1000 0
SWIDTH1 1000 0
BBX 8 9 1 0
BITMAP
20
20
EE
31
21
61
A1
21
26
ENDCHAR
STARTCHAR uni3090
ENCODING 12432
SWIDTH 1000 0
SWIDTH1 1000 0
BBX 8 9 1 0
BITMAP
38
08
08
3E
51
91
A7
A9
46
ENDCHAR
STARTCHAR uni3091
ENCODING 12433
SWIDTH 1000 0
SWIDTH1 1000 0
BBX 8 9 1 0
BITMAP
3C
08
1C
22
5A
1C
20
76
89
ENDCHAR
STARTCHAR uni3092
ENCODING 12434
SWIDTH 1000 0
SWIDTH1 1000 0
BBX 8 9 1 0
BITMAP
10
FE
20
38
47
9C
24
20
1F
ENDCHAR
STARTCHAR uni3093
ENCODING 12435
SWIDTH 1000 0
SWIDTH1 1000 0
BBX 8 9 1 0
BITMAP
08
10
10
20
30
49
49
89
86
ENDCHAR
STARTCHAR uni309B
ENCODING 12443
SWIDTH 1000 0
SWIDTH1 1000 0
BBX 4 3 4 4
BITMAP
20
90
40
ENDCHAR
STARTCHAR uni309C
ENCODING 12444
SWIDTH 1000 0
SWIDTH1 1000 0
BBX 3 3 7 5
BITMAP
40
A0
40
ENDCHAR
STARTCHAR uni309D
ENCODING 12445
SWIDTH 1000 0
SWIDTH1 1000 0
BBX 4 5 3 0
BITMAP
80
40
20
10
70
ENDCHAR
STARTCHAR uni309E
ENCODING 12446
SWIDTH 1000 0
SWIDTH1 1000 0
BBX 7 7 2 0
BITMAP
08
24
92
48
20
10
30
ENDCHAR
STARTCHAR uni30A1
ENCODING 12449
SWIDTH 1000 0
SWIDTH1 1000 0
BBX 6 6 2 0
BITMAP
FC
04
28
20
20
40
ENDCHAR
STARTCHAR uni30A2
ENCODING 12450
SWIDTH 1000 0
SWIDTH1 1000 0
BBX 8 8 1 0
BITMAP
FF
01
12
14
10
10
20
40
ENDCHAR
STARTCHAR uni30A3
ENCODING 12451
SWIDTH 1000 0
SWIDTH1 1000 0
BBX 6 7 2 0
BITMAP
04
08
30
D0
10
10
10
ENDCHAR
STARTCHAR uni30A4
ENCODING 12452
SWIDTH 1000 0
SWIDTH1 1000 0
BBX 7 9 1 0
BITMAP
02
04
08
18
28
C8
08
08
08
ENDCHAR
STARTCHAR uni30A5
ENCODING 12453
SWIDTH 1000 0
SWIDTH1 1000 0
BBX 6 7 2 0
BITMAP
20
FC
84
84
04
08
30
ENDCHAR
STARTCHAR uni30A6
ENCODING 12454
SWIDTH 1000 0
SWIDTH1 1000 0
BBX 7 9 1 0
BITMAP
10
10
FE
82
82
02
04
08
30
ENDCHAR
STARTCHAR uni30A7
ENCODING 12455
SWIDTH 1000 0
SWIDTH1 1000 0
BBX 7 5 1 1
BITMAP
7C
10
10
10
FE
ENDCHAR
STARTCHAR uni30A8
ENCODING 12456
SWIDTH 1000 0
SWIDTH1 1000 0
BBX 8 7 1 1
BITMAP
7E
10
10
10
10
10
FF
ENDCHAR
STARTCHAR uni30A9
ENCODING 12457
SWIDTH 1000 0
SWIDTH1 1000 0
BBX 7 7 1 0
BITMAP
08
FE
18
28
48
88
18
ENDCHAR
STARTCHAR uni30AA
ENCODING 12458
SWIDTH 1000 0
SWIDTH1 1000 0
BBX 8 9 1 0
BITMAP
04
04
FF
0C
14
24
C4
04
1C
ENDCHAR
STARTCHAR uni30AB
ENCODING 12459
SWIDTH 1000 0
SWIDTH1 1000 0
BBX 7 9 1 0
BITMAP
20
20
FE
22
22
42
42
42
9C
ENDCHAR
STARTCHAR uni30AC
ENCODING 12460
SWIDTH 1000 0
SWIDTH1 1000 0
BBX 8 9 1 0
BITMAP
23
20
FE
22
22
42
42
42
9C
ENDCHAR
STARTCHAR uni30AD
ENCODING 12461
SWIDTH 1000 0
SWIDTH1 1000 0
BBX 7 9 1 0
BITMAP
10
10
FE
10
10
FE
08
08
08
ENDCHAR
STARTCHAR uni30AE
ENCODING 12462
SWIDTH 1000 0
SWIDTH1 1000 0
BBX 8 9 1 0
BITMAP
13
10
FE
10
10
FE
08
08
08
ENDCHAR
STARTCHAR uni30AF
ENCODING 12463
SWIDTH 1000 0
SWIDTH1 1000 0
BBX 7 9 1 0
BITMAP
20
3E
42
42
82
04
04
18
60
ENDCHAR
STARTCHAR uni30B0
ENCODING 12464
SWIDTH 1000 0
SWIDTH1 1000 0
BBX 8 9 1 0
BITMAP
23
3E
42
42
82
04
04
18
60
ENDCHAR
STARTCHAR uni30B1
ENCODING 12465
SWIDTH 1000 0
SWIDTH1 1000 0
BBX 8 9 1 0
BITMAP
20
20
3F
44
84
04
04
08
30
ENDCHAR
STARTCHAR uni30B2
ENCODING 12466
SWIDTH 1000 0
SWIDTH1 1000 0
BBX 8 9 1 0
BITMAP
23
20
3F
44
84
04
04
08
30
ENDCHAR
STARTCHAR uni30B3
ENCODING 12467
SWIDTH 1000 0
SWIDTH1 1000 0
BBX 6 8 2 0
BITMAP
FC
04
04
04
04
04
FC
04
ENDCHAR
STARTCHAR uni30B4
ENCODING 12468
SWIDTH 1000 0
SWIDTH1 1000 0
BBX 7 9 2 0
BITMAP
06
FC
04
04
04
04
04
FC
04
ENDCHAR
STARTCHAR uni30B5
ENCODING 12469
SWIDTH 1000 0
SWIDTH1 1000 0
BBX 8 9 1 0
BITMAP
44
44
FF
44
44
44
04
08
30
ENDCHAR
STARTCHAR uni30B6
ENCODING 12470
SWIDTH 1000 0
SWIDTH1 1000 0
BBX 8 9 1 0
BITMAP
47
44
FF
44
44
44
04
08
30
ENDCHAR
STARTCHAR uni30B7
ENCODING 12471
SWIDTH 1000 0
SWIDTH1 1000 0
BBX 8 8 1 0
BITMAP
60
11
C1
21
02
04
08
70
ENDCHAR
STARTCHAR uni30B8
ENCODING 12472
SWIDTH 1000 0
SWIDTH1 1000 0
BBX 8 9 1 0
BITMAP
03
60
11
C1
21
02
04
08
70
ENDCHAR
STARTCHAR uni30B9
ENCODING 12473
SWIDTH 1000 0
SWIDTH1 1000 0
BBX 8 8 1 0
BITMAP
7E
02
02
04
0C
12
21
C1
ENDCHAR
STARTCHAR uni30BA
ENCODING 12474
SWIDTH 1000 0
SWIDTH1 1000 0
BBX 8 9 1 0
BITMAP
03
7E
02
02
04
0C
12
21
C1
ENDCHAR
STARTCHAR uni30BB
ENCODING 12475
SWIDTH 1000 0
SWIDTH1 1000 0
BBX 8 9 1 0
BITMAP
20
20
3F
E2
24
28
20
20
1E
ENDCHAR
STARTCHAR uni30BC
ENCODING 12476
SWIDTH 1000 0
SWIDTH1 1000 0
BBX 8 9 1 0
BITMAP
23
20
3F
E2
24
28
20
20
1E
ENDCHAR
STARTCHAR uni30BD
ENCODING 12477
SWIDTH 1000 0
SWIDTH1 1000 0
BBX 8 8 1 0
BITMAP
81
41
41
02
02
04
08
30
ENDCHAR
STARTCHAR uni30BE
ENCODING 12478
SWIDTH 1000 0
SWIDTH1 1000 0
BBX 8 9 1 0
BITMAP
03
80
41
41
02
02
04
08
30
ENDCHAR
STARTCHAR uni30BF
ENCODING 12479
SWIDTH 1000 0
SWIDTH1 1000 0
BBX 7 9 1 0
BITMAP
20
3E
42
42
92
0C
04
1A
60
ENDCHAR
STARTCHAR uni30C0
ENCODING 12480
SWIDTH 1000 0
SWIDTH1 1000 0
BBX 8 9 1 0
BITMAP
23
3E
42
42
92
0C
04
1A
60
ENDCHAR
STARTCHAR uni30C1
ENCODING 12481
SWIDTH 1000 0
SWIDTH1 1000 0
BBX 8 9 1 0
BITMAP
06
78
08
08
FF
08
08
10
60
ENDCHAR
STARTCHAR uni30C2
ENCODING 12482
SWIDTH 1000 0
SWIDTH1 1000 0
BBX 8 9 1 0
BITMAP
06
78
0B
08
FF
08
08
10
60
ENDCHAR
STARTCHAR uni30C3
ENCODING 12483
SWIDTH 1000 0
SWIDTH1 1000 0
BBX 6 6 2 0
BITMAP
A4
A4
04
08
10
60
ENDCHAR
STARTCHAR uni30C4
ENCODING 12484
SWIDTH 1000 0
SWIDTH1 1000 0
BBX 8 8 1 0
BITMAP
20
91
51
42
02
04
08
30
ENDCHAR
STARTCHAR uni30C5
ENCODING 12485
SWIDTH 1000 0
SWIDTH1 1000 0
BBX 8 9 1 0
BITMAP
03
20
91
51
42
02
04
08
30
ENDCHAR
STARTCHAR uni30C6
ENCODING 12486
SWIDTH 1000 0
SWIDTH1 1000 0
BBX 8 8 1 0
BITMAP
7E
00
00
FF
08
08
10
60
ENDCHAR
STARTCHAR uni30C7
ENCODING 12487
SWIDTH 1000 0
SWIDTH1 1000 0
BBX 8 9 1 0
BITMAP
03
7C
00
00
FF
08
08
10
60
ENDCHAR
STARTCHAR uni30C8
ENCODING 12488
SWIDTH 1000 0
SWIDTH1 1000 0
BBX 5 9 3 0
BITMAP
80
80
80
E0
98
80
80
80
80
ENDCHAR
STARTCHAR uni30C9
ENCODING 12489
SWIDTH 1000 0
SWIDTH1 1000 0
BBX 5 9 3 0
BITMAP
98
80
80
E0
98
80
80
80
80
ENDCHAR
STARTCHAR uni30CA
ENCODING 12490
SWIDTH 1000 0
SWIDTH1 1000 0
BBX 8 9 1 0
BITMAP
08
08
FF
08
08
08
08
10
60
ENDCHAR
STARTCHAR uni30CB
ENCODING 12491
SWIDTH 1000 0
SWIDTH1 1000 0
BBX 8 7 1 1
BITMAP
7E
00
00
00
00
00
FF
ENDCHAR
STARTCHAR uni30CC
ENCODING 12492
SWIDTH 1000 0
SWIDTH1 1000 0
BBX 7 8 1 0
BITMAP
7E
02
02
64
18
14
22
C0
ENDCHAR
STARTCHAR uni30CD
ENCODING 12493
SWIDTH 1000 0
SWIDTH1 1000 0
BBX 8 9 1 0
BITMAP
1C
00
7E
04
08
3A
C9
08
08
ENDCHAR
STARTCHAR uni30CE
ENCODING 12494
SWIDTH 1000 0
SWIDTH1 1000 0
BBX 7 8 1 0
BITMAP
02
02
04
04
08
10
20
C0
ENDCHAR
STARTCHAR uni30CF
ENCODING 12495
SWIDTH 1000 0
SWIDTH1 1000 0
BBX 8 6 1 1
BITMAP
24
22
22
41
41
81
ENDCHAR
STARTCHAR uni30D0
ENCODING 12496
SWIDTH 1000 0
SWIDTH1 1000 0
BBX 8 7 1 1
BITMAP
03
24
22
22
41
41
81
ENDCHAR
STARTCHAR uni30D1
ENCODING 12497
SWIDTH 1000 0
SWIDTH1 1000 0
BBX 8 8 1 1
BITMAP
03
03
24
22
22
41
41
81
ENDCHAR
STARTCHAR uni30D2
ENCODING 12498
SWIDTH 1000 0
SWIDTH1 1000 0
BBX 7 8 2 0
BITMAP
80
80
8E
F0
80
80
80
7E
ENDCHAR
STARTCHAR uni30D3
ENCODING 12499
SWIDTH 1000 0
SWIDTH1 1000 0
BBX 7 9 2 0
BITMAP
06
80
80
8E
F0
80
80
80
7E
ENDCHAR
STARTCHAR uni30D4
ENCODING 12500
SWIDTH 1000 0
SWIDTH1 1000 0
BBX 7 9 2 0
BITMAP
06
86
80
8E
F0
80
80
80
7E
ENDCHAR
STARTCHAR uni30D5
ENCODING 12501
SWIDTH 1000 0
SWIDTH1 1000 0
BBX 7 8 1 0
BITMAP
FE
02
02
04
04
08
10
60
ENDCHAR
STARTCHAR uni30D6
ENCODING 12502
SWIDTH 1000 0
SWIDTH1 1000 0
BBX 8 9 1 0
BITMAP
03
FE
02
02
04
04
08
10
60
ENDCHAR
STARTCHAR uni30D7
ENCODING 12503
SWIDTH 1000 0
SWIDTH1 1000 0
BBX 8 9 1 0
BITMAP
03
FF
02
02
04
04
08
10
60
ENDCHAR
STARTCHAR uni30D8
ENCODING 12504
SWIDTH 1000 0
SWIDTH1 1000 0
BBX 8 6 1 1
BITMAP
10
28
44
84
02
01
ENDCHAR
STARTCHAR uni30D9
ENCODING 12505
SWIDTH 1000 0
SWIDTH1 1000 0
BBX 8 6 1 1
BITMAP
13
28
44
84
02
01
ENDCHAR
STARTCHAR uni30DA
ENCODING 12506
SWIDTH 1000 0
SWIDTH1 1000 0
BBX 8 7 1 1
BITMAP
03
13
28
44
84
02
01
ENDCHAR
STARTCHAR uni30DB
ENCODING 12507
SWIDTH 1000 0
SWIDTH1 1000 0
BBX 8 9 1 0
BITMAP
10
10
FE
10
52
52
91
91
30
ENDCHAR
STARTCHAR uni30DC
ENCODING 12508
SWIDTH 1000 0
SWIDTH1 1000 0
BBX 8 9 1 0
BITMAP
13
10
FE
10
52
52
91
91
30
ENDCHAR
STARTCHAR uni30DD
ENCODING 12509
SWIDTH 1000 0
SWIDTH1 1000 0
BBX 8 9 1 0
BITMAP
13
13
FE
10
52
52
91
91
30
ENDCHAR
STARTCHAR uni30DE
ENCODING 12510
SWIDTH 1000 0
SWIDTH1 1000 0
BBX 8 8 1 0
BITMAP
FF
01
02
44
28
10
08
08
ENDCHAR
STARTCHAR uni30DF
ENCODING 12511
SWIDTH 1000 0
SWIDTH1 1000 0
BBX 7 9 1 0
BITMAP
70
0C
00
70
0C
00
E0
18
06
ENDCHAR
STARTCHAR uni30E0
ENCODING 12512
SWIDTH 1000 0
SWIDTH1 1000 0
BBX 8 9 1 0
BITMAP
10
10
10
20
20
24
42
4F
F1
ENDCHAR
STARTCHAR uni30E1
ENCODING 12513
SWIDTH 1000 0
SWIDTH1 1000 0
BBX 7 8 1 0
BITMAP
02
02
24
14
08
14
22
C0
ENDCHAR
STARTCHAR uni30E2
ENCODING 12514
SWIDTH 1000 0
SWIDTH1 1000 0
BBX 8 8 1 0
BITMAP
7E
10
10
FF
10
10
10
0F
ENDCHAR
STARTCHAR uni30E3
ENCODING 12515
SWIDTH 1000 0
SWIDTH1 1000 0
BBX 7 7 1 0
BITMAP
20
3E
E2
24
10
10
10
ENDCHAR
STARTCHAR uni30E4
ENCODING 12516
SWIDTH 1000 0
SWIDTH1 1000 0
BBX 8 9 1 0
BITMAP
20
20
3F
E1
22
14
10
10
10
ENDCHAR
STARTCHAR uni30E5
ENCODING 12517
SWIDTH 1000 0
SWIDTH1 1000 0
BBX 7 5 2 1
BITMAP
78
08
08
08
FE
ENDCHAR
STARTCHAR uni30E6
ENCODING 12518
SWIDTH 1000 0
SWIDTH1 1000 0
BBX 8 7 1 1
BITMAP
7C
04
04
04
04
04
FF
ENDCHAR
STARTCHAR uni30E7
ENCODING 12519
SWIDTH 1000 0
SWIDTH1 1000 0
BBX 5 6 3 0
BITMAP
F8
08
F8
08
08
F8
ENDCHAR
STARTCHAR uni30E8
ENCODING 12520
SWIDTH 1000 0
SWIDTH1 1000 0
BBX 6 8 2 0
BITMAP
FC
04
04
FC
04
04
FC
04
ENDCHAR
STARTCHAR uni30E9
ENCODING 12521
SWIDTH 1000 0
SWIDTH1 1000 0
BBX 7 9 1 0
BITMAP
7C
00
00
FE
02
02
04
08
30
ENDCHAR
STARTCHAR uni30EA
ENCODING 12522
SWIDTH 1000 0
SWIDTH1 1000 0
BBX 6 9 2 0
BITMAP
84
84
84
84
84
84
04
08
30
ENDCHAR
STARTCHAR uni30EB
ENCODING 12523
SWIDTH 1000 0
SWIDTH1 1000 0
BBX 8 9 1 0
BITMAP
08
48
48
48
49
49
4A
8A
8C
ENDCHAR
STARTCHAR uni30EC
ENCODING 12524
SWIDTH 1000 0
SWIDTH1 1000 0
BBX 6 9 3 0
BITMAP
80
80
80
80
80
84
88
B0
C0
ENDCHAR
STARTCHAR uni30ED
ENCODING 12525
SWIDTH 1000 0
SWIDTH1 1000 0
BBX 6 8 2 0
BITMAP
FC
84
84
84
84
84
FC
84
ENDCHAR
STARTCHAR uni30EE
ENCODING 12526
SWIDTH 1000 0
SWIDTH1 1000 0
BBX 5 6 2 0
BITMAP
F8
88
88
08
10
60
ENDCHAR
STARTCHAR uni30EF
ENCODING 12527
SWIDTH 1000 0
SWIDTH1 1000 0
BBX 7 8 1 0
BITMAP
FE
82
82
82
02
04
08
30
ENDCHAR
STARTCHAR uni30F0
ENCODING 12528
SWIDTH 1000 0
SWIDTH1 1000 0
BBX 8 9 1 0
BITMAP
08
08
7E
48
48
FF
08
08
08
ENDCHAR
STARTCHAR uni30F1
ENCODING 12529
SWIDTH 1000 0
SWIDTH1 1000 0
BBX 8 7 1 1
BITMAP
7E
02
14
18
10
10
FF
ENDCHAR
STARTCHAR uni30F2
ENCODING 12530
SWIDTH 1000 0
SWIDTH1 1000 0
BBX 6 8 2 0
BITMAP
FC
04
04
FC
04
08
10
60
ENDCHAR
STARTCHAR uni30F3
ENCODING 12531
SWIDTH 1000 0
SWIDTH1 1000 0
BBX 8 8 1 0
BITMAP
C0
21
01
01
02
04
08
70
ENDCHAR
STARTCHAR uni30F4
ENCODING 12532
SWIDTH 1000 0
SWIDTH1 1000 0
BBX 8 9 1 0
BITMAP
13
10
FE
82
82
02
04
08
30
ENDCHAR
STARTCHAR uni30F5
ENCODING 12533
SWIDTH 1000 0
SWIDTH1 1000 0
BBX 6 7 2 0
BITMAP
20
FC
24
24
24
44
98
ENDCHAR
STARTCHAR uni30F6
ENCODING 12534
SWIDTH 1000 0
SWIDTH1 1000 0
BBX 7 7 2 0
BITMAP
40
7E
48
88
08
10
60
ENDCHAR
STARTCHAR uni30FC
ENCODING 12540
SWIDTH 1000 0
SWIDTH1 1000 0
BBX 7 2 1 4
BITMAP
80
7E
ENDCHAR
STARTCHAR uni30FD
ENCODING 12541
SWIDTH 1000 0
SWIDTH1 1000 0
BBX 4 5 2 2
BITMAP
80
40
20
10
10
ENDCHAR
STARTCHAR uni30FE
ENCODING 12542
SWIDTH 1000 0
SWIDTH1 1000 0
BBX 5 5 2 2
BITMAP
98
40
20
10
10
ENDCHAR
STARTCHAR uni3105
ENCODING 12549
SWIDTH 1000 0
SWIDTH1 1000 0
BBX 7 10 1 -1
BITMAP
40
40
40
FE
02
02
02
04
14
08
ENDCHAR
STARTCHAR uni3106
ENCODING 12550
SWIDTH 1000 0
SWIDTH1 1000 0
BBX 8 10 1 -1
BITMAP
20
20
7F
01
02
34
0C
12
21
C1
ENDCHAR
STARTCHAR uni3107
ENCODING 12551
SWIDTH 1000 0
SWIDTH1 1000 0
BBX 8 8 2 -1
BITMAP
FF
81
81
81
81
81
81
81
ENDCHAR
STARTCHAR uni3108
ENCODING 12552
SWIDTH 1000 0
SWIDTH1 1000 0
BBX 9 7 1 0
BITMAP
FF80
4000
4000
4000
4000
4000
7F80
ENDCHAR
STARTCHAR uni3109
ENCODING 12553
SWIDTH 1000 0
SWIDTH1 1000 0
BBX 9 9 1 -1
BITMAP
2000
2000
7F80
0880
0880
1080
1100
2500
C200
ENDCHAR
STARTCHAR uni310A
ENCODING 12554
SWIDTH 1000 0
SWIDTH1 1000 0
BBX 9 9 1 -1
BITMAP
0800
0800
FF80
1000
1000
2200
2100
4780
F880
ENDCHAR
STARTCHAR uni310B
ENCODING 12555
SWIDTH 1000 0
SWIDTH1 1000 0
BBX 7 9 2 -1
BITMAP
FC
08
10
3E
02
02
04
14
08
ENDCHAR
STARTCHAR uni310C
ENCODING 12556
SWIDTH 1000 0
SWIDTH1 1000 0
BBX 9 10 1 -1
BITMAP
0400
2400
2400
7F80
0880
0880
1080
2080
4500
8200
ENDCHAR
STARTCHAR uni310D
ENCODING 12557
SWIDTH 1000 0
SWIDTH1 1000 0
BBX 7 9 2 -1
BITMAP
22
22
44
44
88
88
44
22
22
ENDCHAR
STARTCHAR uni310E
ENCODING 12558
SWIDTH 1000 0
SWIDTH1 1000 0
BBX 9 9 1 -1
BITMAP
FF80
0800
1000
3F00
0100
0100
0200
0A00
0400
ENDCHAR
STARTCHAR uni310F
ENCODING 12559
SWIDTH 1000 0
SWIDTH1 1000 0
BBX 10 9 0 -1
BITMAP
3FC0
2000
2000
2000
2000
2000
4000
4000
8000
ENDCHAR
STARTCHAR uni3110
ENCODING 12560
SWIDTH 1000 0
SWIDTH1 1000 0
BBX 5 10 3 -1
BITMAP
08
08
88
88
88
88
B8
C8
88
08
ENDCHAR
STARTCHAR uni3111
ENCODING 12561
SWIDTH 1000 0
SWIDTH1 1000 0
BBX 4 10 3 -1
BITMAP
10
10
20
20
40
80
40
20
10
10
ENDCHAR
STARTCHAR uni3112
ENCODING 12562
SWIDTH 1000 0
SWIDTH1 1000 0
BBX 9 9 1 -1
BITMAP
FF80
0800
0800
0800
0800
0800
0800
0800
0800
ENDCHAR
STARTCHAR uni3113
ENCODING 12563
SWIDTH 1000 0
SWIDTH1 1000 0
BBX 9 9 1 -1
BITMAP
0800
0800
4900
4900
4900
7F00
0800
0800
FF80
ENDCHAR
STARTCHAR uni3114
ENCODING 12564
SWIDTH 1000 0
SWIDTH1 1000 0
BBX 6 9 2 -1
BITMAP
08
10
24
48
10
30
D0
10
10
ENDCHAR
STARTCHAR uni3115
ENCODING 12565
SWIDTH 1000 0
SWIDTH1 1000 0
BBX 9 9 1 -1
BITMAP
3F80
0080
0080
3F80
2000
2000
2000
4000
8000
ENDCHAR
STARTCHAR uni3116
ENCODING 12566
SWIDTH 1000 0
SWIDTH1 1000 0
BBX 6 8 2 0
BITMAP
FC
84
84
A4
94
84
84
FC
ENDCHAR
STARTCHAR uni3117
ENCODING 12567
SWIDTH 1000 0
SWIDTH1 1000 0
BBX 8 9 1 -1
BITMAP
FF
11
11
11
11
15
12
10
10
ENDCHAR
STARTCHAR uni3118
ENCODING 12568
SWIDTH 1000 0
SWIDTH1 1000 0
BBX 9 10 1 -1
BITMAP
0800
0800
FF80
0800
1000
3E00
0200
0200
0400
0800
ENDCHAR
STARTCHAR uni3119
ENCODING 12569
SWIDTH 1000 0
SWIDTH1 1000 0
BBX 9 9 1 -1
BITMAP
0800
0800
1000
1000
2400
2200
4100
4F80
F080
ENDCHAR
STARTCHAR uni311A
ENCODING 12570
SWIDTH 1000 0
SWIDTH1 1000 0
BBX 9 9 1 -1
BITMAP
8080
4100
2200
1400
0800
0800
0800
0800
0800
ENDCHAR
STARTCHAR uni311B
ENCODING 12571
SWIDTH 1000 0
SWIDTH1 1000 0
BBX 9 8 1 -1
BITMAP
FF80
0800
0800
7800
4000
4000
4000
7F00
ENDCHAR
STARTCHAR uni311C
ENCODING 12572
SWIDTH 1000 0
SWIDTH1 1000 0
BBX 9 9 1 -1
BITMAP
0800
0800
FF80
0800
0800
7800
4000
4000
7F00
ENDCHAR
STARTCHAR uni311D
ENCODING 12573
SWIDTH 1000 0
SWIDTH1 1000 0
BBX 9 10 1 -1
BITMAP
0200
2200
2200
2200
FF80
2200
2200
2400
2000
3F00
ENDCHAR
STARTCHAR uni311E
ENCODING 12574
SWIDTH 1000 0
SWIDTH1 1000 0
BBX 9 8 1 -1
BITMAP
FF80
4800
4800
FF00
1100
1100
2200
C400
ENDCHAR
STARTCHAR uni311F
ENCODING 12575
SWIDTH 1000 0
SWIDTH1 1000 0
BBX 8 9 2 -1
BITMAP
30
D0
10
10
10
08
08
04
03
ENDCHAR
STARTCHAR uni3120
ENCODING 12576
SWIDTH 1000 0
SWIDTH1 1000 0
BBX 8 9 1 -1
BITMAP
10
12
22
44
F8
14
22
4F
F1
ENDCHAR
STARTCHAR uni3121
ENCODING 12577
SWIDTH 1000 0
SWIDTH1 1000 0
BBX 8 8 1 -1
BITMAP
7F
01
62
14
0C
12
21
C1
ENDCHAR
STARTCHAR uni3122
ENCODING 12578
SWIDTH 1000 0
SWIDTH1 1000 0
BBX 8 9 1 -1
BITMAP
FE
02
44
44
FF
01
02
02
04
ENDCHAR
STARTCHAR uni3123
ENCODING 12579
SWIDTH 1000 0
SWIDTH1 1000 0
BBX 8 9 1 -1
BITMAP
80
80
80
FF
01
01
02
02
04
ENDCHAR
STARTCHAR uni3124
ENCODING 12580
SWIDTH 1000 0
SWIDTH1 1000 0
BBX 9 9 1 -1
BITMAP
1000
1000
FF80
1400
1400
2400
2400
4400
8380
ENDCHAR
STARTCHAR uni3125
ENCODING 12581
SWIDTH 1000 0
SWIDTH1 1000 0
BBX 8 8 1 0
BITMAP
08
08
10
10
20
20
40
FF
ENDCHAR
STARTCHAR uni3126
ENCODING 12582
SWIDTH 1000 0
SWIDTH1 1000 0
BBX 9 9 1 -1
BITMAP
2400
2400
2400
2400
2400
2400
2400
4480
8380
ENDCHAR
STARTCHAR uni3127
ENCODING 12583
SWIDTH 1000 0
SWIDTH1 1000 0
BBX 9 1 1 3
BITMAP
FF80
ENDCHAR
STARTCHAR uni3128
ENCODING 12584
SWIDTH 1000 0
SWIDTH1 1000 0
BBX 9 9 1 -1
BITMAP
0100
0100
6200
1200
0C00
0C00
1200
2100
C080
ENDCHAR
STARTCHAR uni3129
ENCODING 12585
SWIDTH 1000 0
SWIDTH1 1000 0
BBX 8 8 2 -1
BITMAP
01
81
81
81
81
81
FF
01
ENDCHAR
STARTCHAR uni3220
ENCODING 12832
SWIDTH 1000 0
SWIDTH1 1000 0
BBX 10 10 0 -1
BITMAP
2100
4080
8040
8040
BF40
8040
8040
8040
4080
2100
ENDCHAR
STARTCHAR uni3221
ENCODING 12833
SWIDTH 1000 0
SWIDTH1 1000 0
BBX 10 10 0 -1
BITMAP
2100
4080
8040
9E40
8040
8040
BF40
8040
4080
2100
ENDCHAR
STARTCHAR uni3222
ENCODING 12834
SWIDTH 1000 0
SWIDTH1 1000 0
BBX 10 10 0 -1
BITMAP
2100
4080
BF40
8040
9E40
8040
8040
BF40
4080
2100
ENDCHAR
STARTCHAR uni3223
ENCODING 12835
SWIDTH 1000 0
SWIDTH1 1000 0
BBX 10 10 0 -1
BITMAP
2100
4080
BF40
AD40
AD40
B340
A140
BF40
4080
2100
ENDCHAR
STARTCHAR uni3224
ENCODING 12836
SWIDTH 1000 0
SWIDTH1 1000 0
BBX 10 10 0 -1
BITMAP
2100
4080
BF40
8840
9E40
8A40
8A40
BF40
4080
2100
ENDCHAR
STARTCHAR uni3225
ENCODING 12837
SWIDTH 1000 0
SWIDTH1 1000 0
BBX 10 10 0 -1
BITMAP
2100
4880
8440
BFC0
8040
8A40
8940
9140
4080
2100
ENDCHAR
STARTCHAR uni3226
ENCODING 12838
SWIDTH 1000 0
SWIDTH1 1000 0
BBX 10 10 0 -1
BITMAP
2100
4880
8840
8F40
B840
8840
8940
8740
4080
2100
ENDCHAR
STARTCHAR uni3227
ENCODING 12839
SWIDTH 1000 0
SWIDTH1 1000 0
BBX 10 10 0 -1
BITMAP
2100
4080
8C40
9440
9440
A240
A240
C140
4080
2100
ENDCHAR
STARTCHAR uni3228
ENCODING 12840
SWIDTH 1000 0
SWIDTH1 1000 0
BBX 10 10 0 -1
BITMAP
2100
5080
9040
BC40
9440
9440
9540
A740
4080
2100
ENDCHAR
STARTCHAR uni3229
ENCODING 12841
SWIDTH 1000 0
SWIDTH1 1000 0
BBX 10 10 0 -1
BITMAP
2100
4480
8440
BFC0
8440
8440
8440
8440
4080
2100
ENDCHAR
STARTCHAR uni3231
ENCODING 12849
SWIDTH 1000 0
SWIDTH1 1000 0
BBX 11 10 0 -1
BITMAP
4140
A520
A7A0
F520
A120
B7E0
E3A0
A560
A920
6140
ENDCHAR
STARTCHAR uni32A3
ENCODING 12963
SWIDTH 1000 0
SWIDTH1 1000 0
BBX 10 10 0 -1
BITMAP
3F00
4080
BF40
8440
9740
9440
9440
BF40
4080
3F00
ENDCHAR
STARTCHAR uni338E
ENCODING 13198
SWIDTH 1000 0
SWIDTH1 1000 0
BBX 11 9 0 -2
BITMAP
49A0
B640
A640
A580
A500
A5C0
B620
0220
01C0
ENDCHAR
STARTCHAR uni338F
ENCODING 13199
SWIDTH 1000 0
SWIDTH1 1000 0
BBX 11 10 0 -2
BITMAP
4000
41A0
5A40
6240
6180
5200
D9C0
0220
0220
01C0
ENDCHAR
STARTCHAR uni339C
ENCODING 13212
SWIDTH 1000 0
SWIDTH1 1000 0
BBX 11 6 0 0
BITMAP
5140
AAA0
AAA0
AAA0
AAA0
AAA0
ENDCHAR
STARTCHAR uni339D
ENCODING 13213
SWIDTH 1000 0
SWIDTH1 1000 0
BBX 11 6 0 0
BITMAP
6240
9DA0
8520
8520
9520
6D60
ENDCHAR
STARTCHAR uni339E
ENCODING 13214
SWIDTH 1000 0
SWIDTH1 1000 0
BBX 11 8 0 0
BITMAP
8000
8000
B940
92A0
A2A0
E2A0
92A0
BAA0
ENDCHAR
STARTCHAR uni33A1
ENCODING 13217
SWIDTH 1000 0
SWIDTH1 1000 0
BBX 11 9 0 0
BITMAP
0060
0020
B640
4960
4900
4900
4900
4900
DB80
ENDCHAR
STARTCHAR uni33C4
ENCODING 13252
SWIDTH 1000 0
SWIDTH1 1000 0
BBX 11 6 0 0
BITMAP
71C0
8A20
8200
8200
8A20
71C0
ENDCHAR
STARTCHAR uni33CE
ENCODING 13262
SWIDTH 1000 0
SWIDTH1 1000 0
BBX 10 9 0 0
BITMAP
9440
9440
A6C0
A6C0
C6C0
A540
A540
9440
9440
ENDCHAR
STARTCHAR uni33D1
ENCODING 13265
SWIDTH 1000 0
SWIDTH1 1000 0
BBX 9 8 0 0
BITMAP
C000
4000
5B00
4C80
4880
4880
4880
E880
ENDCHAR
STARTCHAR uni33D2
ENCODING 13266
SWIDTH 1000 0
SWIDTH1 1000 0
BBX 11 10 0 -2
BITMAP
8000
8020
98C0
A520
A5C0
A500
D9C0
0220
0220
01C0
ENDCHAR
STARTCHAR uni33D5
ENCODING 13269
SWIDTH 1000 0
SWIDTH1 1000 0
BBX 11 9 0 0
BITMAP
02C0
0040
0040
5240
AA40
AA40
AA40
AA40
AAE0
ENDCHAR
STARTCHAR uni4E00
ENCODING 19968
SWIDTH 1000 0
SWIDTH1 1000 0
BBX 9 2 0 3
BITMAP
0100
FF80
ENDCHAR
STARTCHAR uni4E01
ENCODING 19969
SWIDTH 1000 0
SWIDTH1 1000 0
BBX 10 9 0 -1
BITMAP
FFC0
0400
0400
0400
0400
0400
0400
0400
3800
ENDCHAR
STARTCHAR uni4E02
ENCODING 19970
SWIDTH 1000 0
SWIDTH1 1000 0
BBX 10 9 0 -1
BITMAP
FFC0
1000
2000
7F80
0080
0080
0080
0080
0700
ENDCHAR
STARTCHAR uni4E03
ENCODING 19971
SWIDTH 1000 0
SWIDTH1 1000 0
BBX 10 10 0 -1
BITMAP
0800
0800
0800
09C0
0E00
F800
0800
0840
0840
07C0
ENDCHAR
STARTCHAR uni4E04
ENCODING 19972
SWIDTH 1000 0
SWIDTH1 1000 0
BBX 9 9 1 -1
BITMAP
0800
0800
0800
0800
0800
0800
0800
0800
FF80
ENDCHAR
STARTCHAR uni4E05
ENCODING 19973
SWIDTH 1000 0
SWIDTH1 1000 0
BBX 9 9 1 -1
BITMAP
FF80
0800
0800
0800
0800
0800
0800
0800
0800
ENDCHAR
STARTCHAR uni4E06
ENCODING 19974
SWIDTH 1000 0
SWIDTH1 1000 0
BBX 9 7 1 0
BITMAP
FF80
0800
0800
1000
1000
2000
C000
ENDCHAR
STARTCHAR uni4E07
ENCODING 19975
SWIDTH 1000 0
SWIDTH1 1000 0
BBX 9 9 1 -1
BITMAP
FF80
1000
1000
1F00
1100
2100
2100
4100
8600
ENDCHAR
STARTCHAR uni4E08
ENCODING 19976
SWIDTH 1000 0
SWIDTH1 1000 0
BBX 9 10 1 -1
BITMAP
0400
0400
FF80
0400
2400
2400
1400
0800
1400
E380
ENDCHAR
STARTCHAR uni4E09
ENCODING 19977
SWIDTH 1000 0
SWIDTH1 1000 0
BBX 10 8 0 0
BITMAP
7F80
0000
0000
3F00
0000
0000
0000
FFC0
ENDCHAR
STARTCHAR uni4E0A
ENCODING 19978
SWIDTH 1000 0
SWIDTH1 1000 0
BBX 10 9 0 0
BITMAP
0800
0800
0800
0F80
0800
0800
0800
0800
FFC0
ENDCHAR
STARTCHAR uni4E0B
ENCODING 19979
SWIDTH 1000 0
SWIDTH1 1000 0
BBX 9 9 1 -1
BITMAP
FF80
0800
0A00
0900
0880
0880
0800
0800
0800
ENDCHAR
STARTCHAR uni4E0C
ENCODING 19980
SWIDTH 1000 0
SWIDTH1 1000 0
BBX 9 9 1 -1
BITMAP
FF80
2200
2200
2200
2200
2200
4200
4200
8200
ENDCHAR
STARTCHAR uni4E0D
ENCODING 19981
SWIDTH 1000 0
SWIDTH1 1000 0
BBX 10 9 0 -1
BITMAP
FFC0
0800
0800
1A00
2900
C880
0880
0800
0800
ENDCHAR
STARTCHAR uni4E0E
ENCODING 19982
SWIDTH 1000 0
SWIDTH1 1000 0
BBX 10 10 0 -1
BITMAP
2000
2000
3FC0
2000
3F80
0080
0080
FE80
0080
0300
ENDCHAR
STARTCHAR uni4E0F
ENCODING 19983
SWIDTH 1000 0
SWIDTH1 1000 0
BBX 9 10 1 -1
BITMAP
FF80
0800
4800
4F00
4900
7F00
0100
0100
0100
0600
ENDCHAR
STARTCHAR uni4E10
ENCODING 19984
SWIDTH 1000 0
SWIDTH1 1000 0
BBX 9 9 1 -1
BITMAP
FF80
0800
4F00
4800
7F80
0080
0080
0080
0700
ENDCHAR
STARTCHAR uni4E11
ENCODING 19985
SWIDTH 1000 0
SWIDTH1 1000 0
BBX 10 9 0 -1
BITMAP
7F80
0880
0880
0880
7F00
1100
1100
1100
FFC0
ENDCHAR
STARTCHAR uni4E12
ENCODING 19986
SWIDTH 1000 0
SWIDTH1 1000 0
BBX 10 9 0 -1
BITMAP
7F80
0480
2480
1880
0C80
1080
6300
0000
FFC0
ENDCHAR
STARTCHAR uni4E13
ENCODING 19987
SWIDTH 1000 0
SWIDTH1 1000 0
BBX 10 10 0 -1
BITMAP
0400
0400
7F80
0800
FFC0
1000
3F80
0100
1E00
0100
ENDCHAR
STARTCHAR uni4E14
ENCODING 19988
SWIDTH 1000 0
SWIDTH1 1000 0
BBX 10 10 0 -1
BITMAP
3F00
2100
2100
3F00
2100
2100
3F00
2100
2100
FFC0
ENDCHAR
STARTCHAR uni4E15
ENCODING 19989
SWIDTH 1000 0
SWIDTH1 1000 0
BBX 9 9 1 -1
BITMAP
FF80
0800
1A00
2900
C900
0800
0800
0000
FF80
ENDCHAR
STARTCHAR uni4E16
ENCODING 19990
SWIDTH 1000 0
SWIDTH1 1000 0
BBX 10 10 0 -1
BITMAP
0900
4900
4900
FFC0
4900
4900
4F00
4000
4000
7FC0
ENDCHAR
STARTCHAR uni4E17
ENCODING 19991
SWIDTH 1000 0
SWIDTH1 1000 0
BBX 9 10 1 -1
BITMAP
0800
4900
4900
4900
FF80
4900
4900
4900
7F00
4100
ENDCHAR
STARTCHAR uni4E18
ENCODING 19992
SWIDTH 1000 0
SWIDTH1 1000 0
BBX 10 10 0 -1
BITMAP
0380
3C00
2000
2000
3F80
2200
2200
2200
2200
FFC0
ENDCHAR
STARTCHAR uni4E19
ENCODING 19993
SWIDTH 1000 0
SWIDTH1 1000 0
BBX 9 10 1 -1
BITMAP
FF80
0800
0800
FF80
8880
9480
A280
C280
8080
8300
ENDCHAR
STARTCHAR uni4E1A
ENCODING 19994
SWIDTH 1000 0
SWIDTH1 1000 0
BBX 10 10 0 -1
BITMAP
1200
1200
1240
9240
5280
5280
5300
1200
1200
FFC0
ENDCHAR
STARTCHAR uni4E1B
ENCODING 19995
SWIDTH 1000 0
SWIDTH1 1000 0
BBX 10 10 0 -1
BITMAP
2200
2200
2200
2200
2200
5300
5500
8880
1040
FFC0
ENDCHAR
STARTCHAR uni4E1C
ENCODING 19996
SWIDTH 1000 0
SWIDTH1 1000 0
BBX 10 10 0 -1
BITMAP
1000
1000
FFC0
2400
4400
FF80
2500
4480
8440
1800
ENDCHAR
STARTCHAR uni4E1D
ENCODING 19997
SWIDTH 1000 0
SWIDTH1 1000 0
BBX 9 9 1 -1
BITMAP
2200
2200
4C80
F700
2200
4400
F780
0000
FF80
ENDCHAR
STARTCHAR uni4E1E
ENCODING 19998
SWIDTH 1000 0
SWIDTH1 1000 0
BBX 10 9 0 -1
BITMAP
7F00
0200
0C80
EB00
2A00
4900
98C0
0000
FF80
ENDCHAR
STARTCHAR uni4E1F
ENCODING 19999
SWIDTH 1000 0
SWIDTH1 1000 0
BBX 10 9 0 -1
BITMAP
7F80
0800
3F00
0800
FFC0
0800
1100
2380
7C80
ENDCHAR
STARTCHAR uni4E20
ENCODING 20000
SWIDTH 1000 0
SWIDTH1 1000 0
BBX 10 10 0 -1
BITMAP
1200
1240
F380
1200
1200
3240
D240
11C0
0000
FFC0
ENDCHAR
STARTCHAR uni4E21
ENCODING 20001
SWIDTH 1000 0
SWIDTH1 1000 0
BBX 9 10 1 -1
BITMAP
FF80
0800
FF80
8880
AA80
AA80
AA80
BE80
8080
8300
ENDCHAR
STARTCHAR uni4E22
ENCODING 20002
SWIDTH 1000 0
SWIDTH1 1000 0
BBX 10 10 0 -1
BITMAP
0780
7800
0800
7F80
0800
FFC0
1000
2100
7F80
0080
ENDCHAR
STARTCHAR uni4E23
ENCODING 20003
SWIDTH 1000 0
SWIDTH1 1000 0
BBX 9 10 1 -1
BITMAP
FF80
1400
1400
F780
9480
9480
F780
1400
2400
C400
ENDCHAR
STARTCHAR uni4E24
ENCODING 20004
SWIDTH 1000 0
SWIDTH1 1000 0
BBX 9 10 1 -1
BITMAP
FF80
1400
1400
FF80
9480
9480
AA80
CA80
9080
8180
ENDCHAR
STARTCHAR uni4E25
ENCODING 20005
SWIDTH 1000 0
SWIDTH1 1000 0
BBX 10 10 0 -1
BITMAP
7F80
1200
5280
3300
1200
7FC0
4000
4000
4000
8000
ENDCHAR
STARTCHAR uni4E26
ENCODING 20006
SWIDTH 1000 0
SWIDTH1 1000 0
BBX 10 10 0 -1
BITMAP
2100
1200
FFC0
1200
9240
5280
5300
1200
1200
FFC0
ENDCHAR
STARTCHAR uni4E27
ENCODING 20007
SWIDTH 1000 0
SWIDTH1 1000 0
BBX 10 10 0 -1
BITMAP
0400
0400
7FC0
2480
1500
FFC0
2480
2300
3900
60C0
ENDCHAR
STARTCHAR uni4E28
ENCODING 20008
SWIDTH 1000 0
SWIDTH1 1000 0
BBX 1 10 5 -1
BITMAP
80
80
80
80
80
80
80
80
80
80
ENDCHAR
STARTCHAR uni4E29
ENCODING 20009
SWIDTH 1000 0
SWIDTH1 1000 0
BBX 5 10 3 -1
BITMAP
08
88
88
88
88
B8
C8
88
08
08
ENDCHAR
STARTCHAR uni4E2A
ENCODING 20010
SWIDTH 1000 0
SWIDTH1 1000 0
BBX 10 10 0 -1
BITMAP
0800
0800
1400
2200
4900
88C0
0800
0800
0800
0800
ENDCHAR
STARTCHAR uni4E2B
ENCODING 20011
SWIDTH 1000 0
SWIDTH1 1000 0
BBX 7 9 2 -1
BITMAP
82
44
28
10
10
10
10
10
10
ENDCHAR
STARTCHAR uni4E2C
ENCODING 20012
SWIDTH 1000 0
SWIDTH1 1000 0
BBX 4 10 3 -1
BITMAP
10
90
50
10
10
50
50
90
90
10
ENDCHAR
STARTCHAR uni4E2D
ENCODING 20013
SWIDTH 1000 0
SWIDTH1 1000 0
BBX 9 10 1 -1
BITMAP
0800
0800
FF80
8880
8880
FF80
8880
0800
0800
0800
ENDCHAR
STARTCHAR uni4E2E
ENCODING 20014
SWIDTH 1000 0
SWIDTH1 1000 0
BBX 10 10 0 -1
BITMAP
FF00
1100
1100
7D00
1100
1100
FF40
1140
10C0
1040
ENDCHAR
STARTCHAR uni4E2F
ENCODING 20015
SWIDTH 1000 0
SWIDTH1 1000 0
BBX 9 10 1 -1
BITMAP
0800
0A00
0C00
1900
6E00
1980
6E00
1800
E800
0800
ENDCHAR
STARTCHAR uni4E30
ENCODING 20016
SWIDTH 1000 0
SWIDTH1 1000 0
BBX 10 10 0 -1
BITMAP
0800
FF80
0800
0800
7F00
0800
0800
FFC0
0800
0800
ENDCHAR
STARTCHAR uni4E31
ENCODING 20017
SWIDTH 1000 0
SWIDTH1 1000 0
BBX 9 10 1 -1
BITMAP
1400
9480
9480
9480
B780
D480
9400
1400
2400
C400
ENDCHAR
STARTCHAR uni4E32
ENCODING 20018
SWIDTH 1000 0
SWIDTH1 1000 0
BBX 9 10 1 -1
BITMAP
0800
7F00
4900
7F00
0800
FF80
8880
FF80
8880
0800
ENDCHAR
STARTCHAR uni4E33
ENCODING 20019
SWIDTH 1000 0
SWIDTH1 1000 0
BBX 9 10 1 -1
BITMAP
1400
7F00
5500
7F00
1400
FF80
9480
FF80
1400
6400
ENDCHAR
STARTCHAR uni4E34
ENCODING 20020
SWIDTH 1000 0
SWIDTH1 1000 0
BBX 10 10 0 -1
BITMAP
2400
2400
A7C0
AA00
B100
AFC0
AA40
AA40
2FC0
2840
ENDCHAR
STARTCHAR uni4E35
ENCODING 20021
SWIDTH 1000 0
SWIDTH1 1000 0
BBX 9 10 1 -1
BITMAP
1400
9480
5500
FF80
2200
7F00
0800
FF80
0800
0800
ENDCHAR
STARTCHAR uni4E36
ENCODING 20022
SWIDTH 1000 0
SWIDTH1 1000 0
BBX 3 4 4 2
BITMAP
80
40
20
20
ENDCHAR
STARTCHAR uni4E37
ENCODING 20023
SWIDTH 1000 0
SWIDTH1 1000 0
BBX 6 3 2 3
BITMAP
84
44
48
ENDCHAR
STARTCHAR uni4E38
ENCODING 20024
SWIDTH 1000 0
SWIDTH1 1000 0
BBX 10 10 0 -1
BITMAP
0800
0800
7F00
0900
0900
2900
1100
1940
2540
C0C0
ENDCHAR
STARTCHAR uni4E39
ENCODING 20025
SWIDTH 1000 0
SWIDTH1 1000 0
BBX 10 9 0 -1
BITMAP
3F00
2100
2900
2500
FFC0
2100
2100
4100
8600
ENDCHAR
STARTCHAR uni4E3A
ENCODING 20026
SWIDTH 1000 0
SWIDTH1 1000 0
BBX 8 10 1 -1
BITMAP
90
50
10
FF
11
19
25
25
41
86
ENDCHAR
STARTCHAR uni4E3B
ENCODING 20027
SWIDTH 1000 0
SWIDTH1 1000 0
BBX 10 10 0 -1
BITMAP
0800
0400
7FC0
0400
0400
3F80
0400
0400
0400
FFC0
ENDCHAR
STARTCHAR uni4E3C
ENCODING 20028
SWIDTH 1000 0
SWIDTH1 1000 0
BBX 10 10 0 -1
BITMAP
2200
2200
FF80
3200
2A00
FFC0
2200
2200
4200
8200
ENDCHAR
STARTCHAR uni4E3D
ENCODING 20029
SWIDTH 1000 0
SWIDTH1 1000 0
BBX 9 10 1 -1
BITMAP
FF80
0000
F780
9480
D680
B580
9480
9480
9480
B580
ENDCHAR
STARTCHAR uni4E3E
ENCODING 20030
SWIDTH 1000 0
SWIDTH1 1000 0
BBX 10 10 0 -1
BITMAP
2880
1500
FFC0
1100
2480
DF40
0400
3F80
0400
0400
ENDCHAR
STARTCHAR uni4E3F
ENCODING 20031
SWIDTH 1000 0
SWIDTH1 1000 0
BBX 4 10 2 -1
BITMAP
10
10
10
10
10
10
20
20
40
80
ENDCHAR
STARTCHAR uni4E40
ENCODING 20032
SWIDTH 1000 0
SWIDTH1 1000 0
BBX 10 9 0 -1
BITMAP
1C00
E400
0400
0400
0400
0200
0200
0100
00C0
ENDCHAR
STARTCHAR uni4E41
ENCODING 20033
SWIDTH 1000 0
SWIDTH1 1000 0
BBX 10 9 0 -1
BITMAP
FE00
0200
0200
0200
0200
0100
0100
0080
0040
ENDCHAR
STARTCHAR uni4E42
ENCODING 20034
SWIDTH 1000 0
SWIDTH1 1000 0
BBX 10 9 0 -1
BITMAP
4100
4100
2200
2200
1400
0800
1400
2300
C0C0
ENDCHAR
STARTCHAR uni4E43
ENCODING 20035
SWIDTH 1000 0
SWIDTH1 1000 0
BBX 9 9 1 -1
BITMAP
7F00
1100
1200
1380
1080
2080
2080
4080
8700
ENDCHAR
STARTCHAR uni4E44
ENCODING 20036
SWIDTH 1000 0
SWIDTH1 1000 0
BBX 9 10 0 -1
BITMAP
0080
0080
0100
1100
0A00
0400
0600
8900
5100
6000
ENDCHAR
STARTCHAR uni4E45
ENCODING 20037
SWIDTH 1000 0
SWIDTH1 1000 0
BBX 10 10 0 -1
BITMAP
1000
1000
1F00
2100
2200
4200
0500
0900
1080
E040
ENDCHAR
STARTCHAR uni4E46
ENCODING 20038
SWIDTH 1000 0
SWIDTH1 1000 0
BBX 10 10 0 -1
BITMAP
0400
4400
4400
4400
5C00
6400
4A00
1200
2100
C0C0
ENDCHAR
STARTCHAR uni4E47
ENCODING 20039
SWIDTH 1000 0
SWIDTH1 1000 0
BBX 10 10 0 -1
BITMAP
0780
7800
0800
0800
0FC0
F800
0800
0840
0840
07C0
ENDCHAR
STARTCHAR uni4E48
ENCODING 20040
SWIDTH 1000 0
SWIDTH1 1000 0
BBX 10 10 0 -1
BITMAP
0800
0800
1000
2200
4400
8800
1100
2080
7FC0
0040
ENDCHAR
STARTCHAR uni4E49
ENCODING 20041
SWIDTH 1000 0
SWIDTH1 1000 0
BBX 10 10 0 -1
BITMAP
0800
2480
2480
1100
1100
0A00
0400
0A00
3100
C0C0
ENDCHAR
STARTCHAR uni4E4A
ENCODING 20042
SWIDTH 1000 0
SWIDTH1 1000 0
BBX 10 5 0 2
BITMAP
07C0
F800
2080
1100
1200
ENDCHAR
STARTCHAR uni4E4B
ENCODING 20043
SWIDTH 1000 0
SWIDTH1 1000 0
BBX 10 10 0 -1
BITMAP
0800
0400
FF80
0100
0200
0400
0800
1000
7800
87C0
ENDCHAR
STARTCHAR uni4E4C
ENCODING 20044
SWIDTH 1000 0
SWIDTH1 1000 0
BBX 9 10 1 -1
BITMAP
0800
3F00
2100
2600
2000
3F80
0080
FE80
0080
0300
ENDCHAR
STARTCHAR uni4E4D
ENCODING 20045
SWIDTH 1000 0
SWIDTH1 1000 0
BBX 9 10 1 -1
BITMAP
1000
2000
3F80
5000
9F00
1000
1F80
1000
1000
1000
ENDCHAR
STARTCHAR uni4E4E
ENCODING 20046
SWIDTH 1000 0
SWIDTH1 1000 0
BBX 10 10 0 -1
BITMAP
0380
7C00
0480
2480
1500
FFC0
0400
0400
0400
1800
ENDCHAR
STARTCHAR uni4E4F
ENCODING 20047
SWIDTH 1000 0
SWIDTH1 1000 0
BBX 10 10 0 -1
BITMAP
0380
7C00
0800
0400
7F80
0300
0400
1800
7000
8FC0
ENDCHAR
STARTCHAR uni4E50
ENCODING 20048
SWIDTH 1000 0
SWIDTH1 1000 0
BBX 10 10 0 -1
BITMAP
0380
7C00
4400
4400
7FC0
0400
2500
4480
8440
1800
ENDCHAR
STARTCHAR uni4E51
ENCODING 20049
SWIDTH 1000 0
SWIDTH1 1000 0
BBX 10 10 0 -1
BITMAP
03C0
7C00
0400
1480
2500
4E00
1500
2480
C440
0400
ENDCHAR
STARTCHAR uni4E52
ENCODING 20050
SWIDTH 1000 0
SWIDTH1 1000 0
BBX 10 10 0 -1
BITMAP
0300
3C00
2000
3F80
2200
2200
FFC0
0800
1000
6000
ENDCHAR
STARTCHAR uni4E53
ENCODING 20051
SWIDTH 1000 0
SWIDTH1 1000 0
BBX 10 10 0 -1
BITMAP
0300
3C00
2000
3F00
2400
2400
FFC0
0000
0300
0080
ENDCHAR
STARTCHAR uni4E54
ENCODING 20052
SWIDTH 1000 0
SWIDTH1 1000 0
BBX 10 10 0 -1
BITMAP
0780
7800
0800
FFC0
1200
2100
D2C0
1200
2200
4200
ENDCHAR
STARTCHAR uni4E55
ENCODING 20053
SWIDTH 1000 0
SWIDTH1 1000 0
BBX 10 10 0 -1
BITMAP
3FC0
2200
2F80
2200
3FC0
2200
3FC0
5240
52C0
8200
ENDCHAR
STARTCHAR uni4E56
ENCODING 20054
SWIDTH 1000 0
SWIDTH1 1000 0
BBX 10 10 0 -1
BITMAP
0180
3E00
0400
7FC0
1400
7540
1580
3540
D4C0
0400
ENDCHAR
STARTCHAR uni4E57
ENCODING 20055
SWIDTH 1000 0
SWIDTH1 1000 0
BBX 10 10 0 -1
BITMAP
7F00
0800
7F80
2900
FFC0
2900
FFC0
1A00
2900
C8C0
ENDCHAR
STARTCHAR uni4E58
ENCODING 20056
SWIDTH 1000 0
SWIDTH1 1000 0
BBX 10 10 0 -1
BITMAP
0700
7800
0800
FFC0
2A80
EB00
2A40
FDC0
2A00
C9C0
ENDCHAR
STARTCHAR uni4E59
ENCODING 20057
SWIDTH 1000 0
SWIDTH1 1000 0
BBX 9 9 1 -1
BITMAP
FF00
0200
0400
0800
1000
2000
4080
8080
7F80
ENDCHAR
STARTCHAR uni4E5A
ENCODING 20058
SWIDTH 1000 0
SWIDTH1 1000 0
BBX 7 10 2 -1
BITMAP
80
80
80
80
80
80
80
82
82
7E
ENDCHAR
STARTCHAR uni4E5B
ENCODING 20059
SWIDTH 1000 0
SWIDTH1 1000 0
BBX 10 3 0 4
BITMAP
FFC0
0080
0100
ENDCHAR
STARTCHAR uni4E5C
ENCODING 20060
SWIDTH 1000 0
SWIDTH1 1000 0
BBX 10 10 0 -1
BITMAP
1000
1000
1380
1C80
F080
1080
1300
1040
1040
0FC0
ENDCHAR
STARTCHAR uni4E5D
ENCODING 20061
SWIDTH 1000 0
SWIDTH1 1000 0
BBX 10 10 0 -1
BITMAP
1000
1000
1000
FE00
1200
1200
2200
2240
4240
81C0
ENDCHAR
STARTCHAR uni4E5E
ENCODING 20062
SWIDTH 1000 0
SWIDTH1 1000 0
BBX 10 10 0 -1
BITMAP
1000
1000
3F80
2000
7F00
8600
0800
1040
2040
3FC0
ENDCHAR
STARTCHAR uni4E5F
ENCODING 20063
SWIDTH 1000 0
SWIDTH1 1000 0
BBX 10 10 0 -1
BITMAP
0400
0400
2400
2780
3C80
E480
2580
2440
2040
1FC0
ENDCHAR
STARTCHAR uni4E60
ENCODING 20064
SWIDTH 1000 0
SWIDTH1 1000 0
BBX 8 9 1 -1
BITMAP
7F
01
21
11
11
0D
31
C1
0E
ENDCHAR
STARTCHAR uni4E61
ENCODING 20065
SWIDTH 1000 0
SWIDTH1 1000 0
BBX 8 10 1 -1
BITMAP
08
12
26
78
09
17
7A
04
18
E0
ENDCHAR
STARTCHAR uni4E62
ENCODING 20066
SWIDTH 1000 0
SWIDTH1 1000 0
BBX 10 10 0 -1
BITMAP
2200
2200
2200
AA00
AA00
AA00
AA00
BA40
CA40
01C0
ENDCHAR
STARTCHAR uni4E63
ENCODING 20067
SWIDTH 1000 0
SWIDTH1 1000 0
BBX 10 10 0 -1
BITMAP
2200
2200
4A00
4A00
F200
1200
2200
4A40
FA40
05C0
ENDCHAR
STARTCHAR uni4E64
ENCODING 20068
SWIDTH 1000 0
SWIDTH1 1000 0
BBX 10 10 0 -1
BITMAP
FFC0
0A00
0900
0800
FF80
0100
0E00
3040
4040
7FC0
ENDCHAR
STARTCHAR uni4E65
ENCODING 20069
SWIDTH 1000 0
SWIDTH1 1000 0
BBX 10 10 0 -1
BITMAP
03C0
FC80
2100
1200
FF80
0180
0E00
3040
4040
7FC0
ENDCHAR
STARTCHAR uni4E66
ENCODING 20070
SWIDTH 1000 0
SWIDTH1 1000 0
BBX 10 10 0 -1
BITMAP
0880
0840
7F80
0880
0880
FFC0
0840
0840
0980
0800
ENDCHAR
STARTCHAR uni4E67
ENCODING 20071
SWIDTH 1000 0
SWIDTH1 1000 0
BBX 10 10 0 -1
BITMAP
1200
4A00
23C0
FE00
0200
FF80
0600
3840
4040
7FC0
ENDCHAR
STARTCHAR uni4E68
ENCODING 20072
SWIDTH 1000 0
SWIDTH1 1000 0
BBX 10 10 0 -1
BITMAP
2200
2200
4A00
9A00
E600
0200
FA00
8A40
FA40
89C0
ENDCHAR
STARTCHAR uni4E69
ENCODING 20073
SWIDTH 1000 0
SWIDTH1 1000 0
BBX 10 10 0 -1
BITMAP
2200
2200
3A00
2200
2200
FA00
8A00
8A40
FA40
89C0
ENDCHAR
STARTCHAR uni4E6A
ENCODING 20074
SWIDTH 1000 0
SWIDTH1 1000 0
BBX 10 9 0 -1
BITMAP
EF80
2A80
2A80
2F80
4A80
4A80
4F80
4040
3FC0
ENDCHAR
STARTCHAR uni4E6B
ENCODING 20075
SWIDTH 1000 0
SWIDTH1 1000 0
BBX 10 10 0 -1
BITMAP
2000
FB80
2A80
5B80
8000
7F80
0600
3840
4040
7FC0
ENDCHAR
STARTCHAR uni4E6C
ENCODING 20076
SWIDTH 1000 0
SWIDTH1 1000 0
BBX 10 10 0 -1
BITMAP
7FC0
4000
7F80
4080
7F80
4000
FF80
1C00
2040
3FC0
ENDCHAR
STARTCHAR uni4E6D
ENCODING 20077
SWIDTH 1000 0
SWIDTH1 1000 0
BBX 10 10 0 -1
BITMAP
7FC0
0800
3F80
D080
1080
7F80
0E00
3040
4040
7FC0
ENDCHAR
STARTCHAR uni4E6E
ENCODING 20078
SWIDTH 1000 0
SWIDTH1 1000 0
BBX 10 10 0 -1
BITMAP
33C0
4A40
5A40
6AC0
1200
FF00
0E00
3040
4040
7FC0
ENDCHAR
STARTCHAR uni4E6F
ENCODING 20079
SWIDTH 1000 0
SWIDTH1 1000 0
BBX 10 10 0 -1
BITMAP
03C0
7C80
2500
FFC0
0400
FF80
0600
3840
4040
7FC0
ENDCHAR
STARTCHAR uni4E70
ENCODING 20080
SWIDTH 1000 0
SWIDTH1 1000 0
BBX 10 10 0 -1
BITMAP
FF80
2480
1480
4400
2400
FFC0
0400
0900
3080
C040
ENDCHAR
STARTCHAR uni4E71
ENCODING 20081
SWIDTH 1000 0
SWIDTH1 1000 0
BBX 10 10 0 -1
BITMAP
1A00
6200
2200
FA00
2200
7A00
4A00
4A40
7A40
49C0
ENDCHAR
STARTCHAR uni4E72
ENCODING 20082
SWIDTH 1000 0
SWIDTH1 1000 0
BBX 10 10 0 -1
BITMAP
8800
4F80
1480
4600
99C0
7F00
0C00
3040
4040
7FC0
ENDCHAR
STARTCHAR uni4E73
ENCODING 20083
SWIDTH 1000 0
SWIDTH1 1000 0
BBX 10 10 0 -1
BITMAP
0D00
F500
5500
2900
7D00
0900
1D00
F100
1140
70C0
ENDCHAR
STARTCHAR uni4E74
ENCODING 20084
SWIDTH 1000 0
SWIDTH1 1000 0
BBX 10 10 0 -1
BITMAP
27C0
F400
27C0
F480
2880
FF80
0E00
3040
4040
7FC0
ENDCHAR
STARTCHAR uni4E75
ENCODING 20085
SWIDTH 1000 0
SWIDTH1 1000 0
BBX 10 10 0 -1
BITMAP
4200
2200
FA00
5200
5200
FE00
2200
FA40
2240
21C0
ENDCHAR
STARTCHAR uni4E76
ENCODING 20086
SWIDTH 1000 0
SWIDTH1 1000 0
BBX 10 10 0 -1
BITMAP
0900
FFC0
4880
7F80
4880
FF80
0E00
3040
4040
7FC0
ENDCHAR
STARTCHAR uni4E77
ENCODING 20087
SWIDTH 1000 0
SWIDTH1 1000 0
BBX 10 10 0 -1
BITMAP
6200
0A80
CA40
2300
4C00
FF80
0600
3840
4040
7FC0
ENDCHAR
STARTCHAR uni4E78
ENCODING 20088
SWIDTH 1000 0
SWIDTH1 1000 0
BBX 10 10 0 -1
BITMAP
1780
5680
5D80
F7C0
5680
5D80
57C0
5080
4340
3FC0
ENDCHAR
STARTCHAR uni4E79
ENCODING 20089
SWIDTH 1000 0
SWIDTH1 1000 0
BBX 10 10 0 -1
BITMAP
2200
FA00
2200
7A00
4A00
7A00
4A00
FE40
2240
21C0
ENDCHAR
STARTCHAR uni4E7A
ENCODING 20090
SWIDTH 1000 0
SWIDTH1 1000 0
BBX 10 10 0 -1
BITMAP
38C0
4300
7A00
4BC0
7A80
8480
7F00
1800
2040
3FC0
ENDCHAR
STARTCHAR uni4E7B
ENCODING 20091
SWIDTH 1000 0
SWIDTH1 1000 0
BBX 10 10 0 -1
BITMAP
2300
FA80
4540
7A80
8900
7F00
0C00
3040
4040
7FC0
ENDCHAR
STARTCHAR uni4E7C
ENCODING 20092
SWIDTH 1000 0
SWIDTH1 1000 0
BBX 10 10 0 -1
BITMAP
6200
0F80
D200
2780
4200
7FC0
0700
1800
2040
3FC0
ENDCHAR
STARTCHAR uni4E7D
ENCODING 20093
SWIDTH 1000 0
SWIDTH1 1000 0
BBX 10 10 0 -1
BITMAP
0800
3E80
0D00
F3C0
3F00
D100
7F00
1C00
2040
3FC0
ENDCHAR
STARTCHAR uni4E7E
ENCODING 20094
SWIDTH 1000 0
SWIDTH1 1000 0
BBX 10 10 0 -1
BITMAP
2200
FBC0
2200
FC00
8B80
F880
8900
FE40
2240
23C0
ENDCHAR
STARTCHAR uni4E7F
ENCODING 20095
SWIDTH 1000 0
SWIDTH1 1000 0
BBX 10 10 0 -1
BITMAP
1D00
E500
5500
2900
7100
2500
FD00
1140
5540
B4C0
ENDCHAR
STARTCHAR uni4E80
ENCODING 20096
SWIDTH 1000 0
SWIDTH1 1000 0
BBX 10 10 0 -1
BITMAP
2000
3E00
4400
FF00
4900
FF80
8880
FF80
0840
0FC0
ENDCHAR
STARTCHAR uni4E81
ENCODING 20097
SWIDTH 1000 0
SWIDTH1 1000 0
BBX 10 10 0 -1
BITMAP
2200
FA00
53C0
7400
5380
F880
2100
FA00
2240
23C0
ENDCHAR
STARTCHAR uni4E82
ENCODING 20098
SWIDTH 1000 0
SWIDTH1 1000 0
BBX 10 10 0 -1
BITMAP
FE80
5480
FC80
2880
FE80
AA80
FA80
AA80
9280
AEC0
ENDCHAR
STARTCHAR uni4E83
ENCODING 20099
SWIDTH 1000 0
SWIDTH1 1000 0
BBX 10 10 0 -1
BITMAP
5500
3900
FF00
3900
D500
6900
DD00
2940
7D40
88C0
ENDCHAR
STARTCHAR uni4E84
ENCODING 20100
SWIDTH 1000 0
SWIDTH1 1000 0
BBX 10 10 0 -1
BITMAP
1100
7D00
1100
FF00
8300
7D00
4500
7D40
2940
FDC0
ENDCHAR
STARTCHAR uni4E85
ENCODING 20101
SWIDTH 1000 0
SWIDTH1 1000 0
BBX 3 10 3 -1
BITMAP
20
20
20
20
20
20
20
20
20
C0
ENDCHAR
STARTCHAR uni4E86
ENCODING 20102
SWIDTH 1000 0
SWIDTH1 1000 0
BBX 10 10 0 -1
BITMAP
FFC0
0080
0100
0600
0400
0400
0400
0400
0400
3800
ENDCHAR
STARTCHAR uni4E87
ENCODING 20103
SWIDTH 1000 0
SWIDTH1 1000 0
BBX 10 10 0 -1
BITMAP
2000
2000
3FC0
4080
8500
0400
0400
0400
0400
3800
ENDCHAR
STARTCHAR uni4E88
ENCODING 20104
SWIDTH 1000 0
SWIDTH1 1000 0
BBX 10 10 0 -1
BITMAP
7F80
0100
1A00
0400
FFC0
0440
0480
0400
0400
1800
ENDCHAR
STARTCHAR uni4E89
ENCODING 20105
SWIDTH 1000 0
SWIDTH1 1000 0
BBX 9 10 1 -1
BITMAP
2000
3E00
4400
BF00
0900
FF80
0900
7F00
0800
1800
ENDCHAR
STARTCHAR uni4E8A
ENCODING 20106
SWIDTH 1000 0
SWIDTH1 1000 0
BBX 10 10 0 -1
BITMAP
0800
FF80
2A00
7F00
0900
FFC0
0900
7F00
0900
3000
ENDCHAR
STARTCHAR uni4E8B
ENCODING 20107
SWIDTH 1000 0
SWIDTH1 1000 0
BBX 10 10 0 -1
BITMAP
0800
FF80
4900
FF80
0880
7FC0
0880
FF80
0800
3800
ENDCHAR
STARTCHAR uni4E8C
ENCODING 20108
SWIDTH 1000 0
SWIDTH1 1000 0
BBX 9 7 1 0
BITMAP
7F00
0000
0000
0000
0000
0000
FF80
ENDCHAR
STARTCHAR uni4E8D
ENCODING 20109
SWIDTH 1000 0
SWIDTH1 1000 0
BBX 10 9 0 -1
BITMAP
3F00
0000
0000
FFC0
0400
0400
0400
0400
1800
ENDCHAR
STARTCHAR uni4E8E
ENCODING 20110
SWIDTH 1000 0
SWIDTH1 1000 0
BBX 9 9 1 -1
BITMAP
7F00
0800
0800
FF80
0800
0800
0800
0800
3000
ENDCHAR
STARTCHAR uni4E8F
ENCODING 20111
SWIDTH 1000 0
SWIDTH1 1000 0
BBX 10 9 0 -1
BITMAP
3F00
0000
FFC0
0800
1000
3F80
0080
0080
0700
ENDCHAR
STARTCHAR uni4E90
ENCODING 20112
SWIDTH 1000 0
SWIDTH1 1000 0
BBX 10 9 0 -1
BITMAP
7F80
0800
FFC0
1000
3F80
0080
0080
0080
0300
ENDCHAR
STARTCHAR uni4E91
ENCODING 20113
SWIDTH 1000 0
SWIDTH1 1000 0
BBX 9 9 1 -1
BITMAP
7F00
0000
0000
FF80
1000
2200
4100
FF80
8080
ENDCHAR
STARTCHAR uni4E92
ENCODING 20114
SWIDTH 1000 0
SWIDTH1 1000 0
BBX 10 9 0 -1
BITMAP
7F80
1000
1F00
2100
2100
3E00
0200
0200
FFC0
ENDCHAR
STARTCHAR uni4E93
ENCODING 20115
SWIDTH 1000 0
SWIDTH1 1000 0
BBX 9 9 1 -1
BITMAP
7F00
0000
0000
FF80
2200
2200
2200
4200
8200
ENDCHAR
STARTCHAR uni4E94
ENCODING 20116
SWIDTH 1000 0
SWIDTH1 1000 0
BBX 10 9 0 -1
BITMAP
7F80
1000
1000
7F00
1100
1100
1100
1100
FFC0
ENDCHAR
STARTCHAR uni4E95
ENCODING 20117
SWIDTH 1000 0
SWIDTH1 1000 0
BBX 10 10 0 -1
BITMAP
1200
1200
7F80
1200
1200
FFC0
1200
1200
2200
C200
ENDCHAR
STARTCHAR uni4E96
ENCODING 20118
SWIDTH 1000 0
SWIDTH1 1000 0
BBX 10 10 0 -1
BITMAP
3F00
0000
0000
FFC0
0000
0000
3F00
0000
0000
FFC0
ENDCHAR
STARTCHAR uni4E97
ENCODING 20119
SWIDTH 1000 0
SWIDTH1 1000 0
BBX 9 10 1 -1
BITMAP
0800
8880
8880
FF80
0000
0000
7F00
0000
0000
FF80
ENDCHAR
STARTCHAR uni4E98
ENCODING 20120
SWIDTH 1000 0
SWIDTH1 1000 0
BBX 10 9 0 -1
BITMAP
7F80
0000
3F00
2100
3F00
2100
3F00
0000
FFC0
ENDCHAR
STARTCHAR uni4E99
ENCODING 20121
SWIDTH 1000 0
SWIDTH1 1000 0
BBX 10 10 0 -1
BITMAP
FF80
2000
3F00
2100
2900
4500
5100
4A00
0200
FFC0
ENDCHAR
STARTCHAR uni4E9A
ENCODING 20122
SWIDTH 1000 0
SWIDTH1 1000 0
BBX 10 9 0 -1
BITMAP
FFC0
1200
1200
5280
3280
1300
1200
1200
FFC0
ENDCHAR
STARTCHAR uni4E9B
ENCODING 20123
SWIDTH 1000 0
SWIDTH1 1000 0
BBX 10 10 0 -1
BITMAP
1200
12C0
5F00
5240
5E40
E3C0
0000
1F00
0000
7FC0
ENDCHAR
STARTCHAR uni4E9C
ENCODING 20124
SWIDTH 1000 0
SWIDTH1 1000 0
BBX 9 9 1 -1
BITMAP
FF80
1400
7F00
5500
5500
7F00
1400
1400
FF80
ENDCHAR
STARTCHAR uni4E9D
ENCODING 20125
SWIDTH 1000 0
SWIDTH1 1000 0
BBX 10 10 0 -1
BITMAP
1200
2100
7F80
2100
5280
FBC0
0040
3F00
0000
FFC0
ENDCHAR
STARTCHAR uni4E9E
ENCODING 20126
SWIDTH 1000 0
SWIDTH1 1000 0
BBX 10 9 0 -1
BITMAP
7F80
1200
1200
7380
4080
7380
1200
1200
FFC0
ENDCHAR
STARTCHAR uni4E9F
ENCODING 20127
SWIDTH 1000 0
SWIDTH1 1000 0
BBX 9 9 1 -1
BITMAP
7F00
0200
0C00
EB80
AA80
E900
9A80
0000
FF80
ENDCHAR
STARTCHAR uni4EA0
ENCODING 20128
SWIDTH 1000 0
SWIDTH1 1000 0
BBX 10 3 0 3
BITMAP
0800
0400
FFC0
ENDCHAR
STARTCHAR uni4EA1
ENCODING 20129
SWIDTH 1000 0
SWIDTH1 1000 0
BBX 10 10 0 -1
BITMAP
0800
0400
FFC0
2000
2000
2000
2000
2000
2000
3F80
ENDCHAR
STARTCHAR uni4EA2
ENCODING 20130
SWIDTH 1000 0
SWIDTH1 1000 0
BBX 10 10 0 -1
BITMAP
0800
0400
FFC0
0000
1E00
1200
1200
1240
2240
C1C0
ENDCHAR
STARTCHAR uni4EA3
ENCODING 20131
SWIDTH 1000 0
SWIDTH1 1000 0
BBX 10 10 0 -1
BITMAP
0800
0400
FFC0
1100
1100
1100
1100
1100
2100
C100
ENDCHAR
STARTCHAR uni4EA4
ENCODING 20132
SWIDTH 1000 0
SWIDTH1 1000 0
BBX 10 10 0 -1
BITMAP
0800
0400
FFC0
1100
2080
5140
0A00
0400
1A00
E1C0
ENDCHAR
STARTCHAR uni4EA5
ENCODING 20133
SWIDTH 1000 0
SWIDTH1 1000 0
BBX 10 10 0 -1
BITMAP
0400
FFC0
1000
2100
7E40
0480
1900
6300
0C80
F080
ENDCHAR
STARTCHAR uni4EA6
ENCODING 20134
SWIDTH 1000 0
SWIDTH1 1000 0
BBX 10 10 0 -1
BITMAP
0800
0400
FFC0
1200
5300
5280
9280
2200
2200
C600
ENDCHAR
STARTCHAR uni4EA7
ENCODING 20135
SWIDTH 1000 0
SWIDTH1 1000 0
BBX 10 10 0 -1
BITMAP
0400
7FC0
1100
0A00
3FC0
2000
2000
2000
4000
8000
ENDCHAR
STARTCHAR uni4EA8
ENCODING 20136
SWIDTH 1000 0
SWIDTH1 1000 0
BBX 10 10 0 -1
BITMAP
0400
FFC0
2100
3F00
0000
7F80
0100
0600
0400
0C00
ENDCHAR
STARTCHAR uni4EA9
ENCODING 20137
SWIDTH 1000 0
SWIDTH1 1000 0
BBX 9 10 1 -1
BITMAP
0800
FF80
0000
7F00
4900
7F00
4900
4900
7F00
4100
ENDCHAR
STARTCHAR uni4EAA
ENCODING 20138
SWIDTH 1000 0
SWIDTH1 1000 0
BBX 10 10 0 -1
BITMAP
0400
FFC0
1200
5280
9240
2400
FF00
0100
0100
00C0
ENDCHAR
STARTCHAR uni4EAB
ENCODING 20139
SWIDTH 1000 0
SWIDTH1 1000 0
BBX 10 10 0 -1
BITMAP
0400
FFC0
2100
3F00
0000
3F00
0200
FFC0
0400
1C00
ENDCHAR
STARTCHAR uni4EAC
ENCODING 20140
SWIDTH 1000 0
SWIDTH1 1000 0
BBX 9 10 1 -1
BITMAP
0800
FF80
0000
7F00
4100
7F00
0800
4A00
8900
1800
ENDCHAR
STARTCHAR uni4EAD
ENCODING 20141
SWIDTH 1000 0
SWIDTH1 1000 0
BBX 9 10 1 -1
BITMAP
0800
FF80
2200
3E00
0000
FF80
8080
7F00
0800
1800
ENDCHAR
STARTCHAR uni4EAE
ENCODING 20142
SWIDTH 1000 0
SWIDTH1 1000 0
BBX 10 10 0 -1
BITMAP
0400
FFC0
2100
3F00
0000
FFC0
8040
1E00
1240
E1C0
ENDCHAR
STARTCHAR uni4EAF
ENCODING 20143
SWIDTH 1000 0
SWIDTH1 1000 0
BBX 9 10 1 -1
BITMAP
0800
FF80
0000
7F00
4100
FF80
8080
FF80
8080
FF80
ENDCHAR
STARTCHAR uni4EB0
ENCODING 20144
SWIDTH 1000 0
SWIDTH1 1000 0
BBX 9 10 1 -1
BITMAP
0800
FF80
0000
7F00
4100
7F00
4100
7F00
4900
9880
ENDCHAR
STARTCHAR uni4EB1
ENCODING 20145
SWIDTH 1000 0
SWIDTH1 1000 0
BBX 10 10 0 -1
BITMAP
0400
FFC0
2000
2F80
4880
CF80
4880
4F80
4000
5FC0
ENDCHAR
STARTCHAR uni4EB2
ENCODING 20146
SWIDTH 1000 0
SWIDTH1 1000 0
BBX 10 10 0 -1
BITMAP
0400
7FC0
1100
FFC0
0400
7FC0
0400
2500
C480
1840
ENDCHAR
STARTCHAR uni4EB3
ENCODING 20147
SWIDTH 1000 0
SWIDTH1 1000 0
BBX 10 10 0 -1
BITMAP
0800
7F80
2100
FFC0
8640
3800
0F80
7800
0840
0FC0
ENDCHAR
STARTCHAR uni4EB4
ENCODING 20148
SWIDTH 1000 0
SWIDTH1 1000 0
BBX 10 10 0 -1
BITMAP
0800
FFC0
2100
FFC0
8840
7F00
0800
FF00
1140
61C0
ENDCHAR
STARTCHAR uni4EB5
ENCODING 20149
SWIDTH 1000 0
SWIDTH1 1000 0
BBX 10 10 0 -1
BITMAP
0400
FFC0
2200
F780
2A80
F6C0
2440
6A80
3100
DCC0
ENDCHAR
STARTCHAR uni4EB6
ENCODING 20150
SWIDTH 1000 0
SWIDTH1 1000 0
BBX 10 10 0 -1
BITMAP
0800
FFC0
4080
5E80
5280
7F80
2100
3F00
2100
FFC0
ENDCHAR
STARTCHAR uni4EB7
ENCODING 20151
SWIDTH 1000 0
SWIDTH1 1000 0
BBX 10 10 0 -1
BITMAP
0400
FFC0
1100
7FC0
4A80
7FC0
4A80
7F80
9B00
AAC0
ENDCHAR
STARTCHAR uni4EB8
ENCODING 20152
SWIDTH 1000 0
SWIDTH1 1000 0
BBX 10 10 0 -1
BITMAP
2280
FFC0
5540
77C0
0540
F7C0
2100
FFC0
2100
6100
ENDCHAR
STARTCHAR uni4EB9
ENCODING 20153
SWIDTH 1000 0
SWIDTH1 1000 0
BBX 10 10 0 -1
BITMAP
0800
FFC0
A280
FB80
AA80
FFC0
A140
3F00
2100
FFC0
ENDCHAR
STARTCHAR uni4EBA
ENCODING 20154
SWIDTH 1000 0
SWIDTH1 1000 0
BBX 9 10 1 -1
BITMAP
0800
0800
0800
0800
0800
0800
1400
1400
2200
C180
ENDCHAR
STARTCHAR uni4EBB
ENCODING 20155
SWIDTH 1000 0
SWIDTH1 1000 0
BBX 4 10 2 -1
BITMAP
10
10
20
60
A0
20
20
20
20
20
ENDCHAR
STARTCHAR uni4EBC
ENCODING 20156
SWIDTH 1000 0
SWIDTH1 1000 0
BBX 10 10 0 -1
BITMAP
0400
0400
0400
0400
0A00
1200
2100
C0C0
0000
FFC0
ENDCHAR
STARTCHAR uni4EBD
ENCODING 20157
SWIDTH 1000 0
SWIDTH1 1000 0
BBX 9 10 1 -1
BITMAP
0800
0800
0800
1400
2200
C180
1000
0800
0400
0400
ENDCHAR
STARTCHAR uni4EBE
ENCODING 20158
SWIDTH 1000 0
SWIDTH1 1000 0
BBX 10 10 0 -1
BITMAP
0400
8400
8400
8400
8400
8A00
9100
A0C0
8000
FFC0
ENDCHAR
STARTCHAR uni4EBF
ENCODING 20159
SWIDTH 1000 0
SWIDTH1 1000 0
BBX 10 10 0 -1
BITMAP
1000
17C0
2080
2100
6200
A400
2400
2840
2840
27C0
ENDCHAR
STARTCHAR uni4EC0
ENCODING 20160
SWIDTH 1000 0
SWIDTH1 1000 0
BBX 10 10 0 -1
BITMAP
1200
1200
2200
2200
7FC0
A200
2200
2200
2200
2200
ENDCHAR
STARTCHAR uni4EC1
ENCODING 20161
SWIDTH 1000 0
SWIDTH1 1000 0
BBX 10 10 0 -1
BITMAP
1000
1000
2780
6000
A000
2000
2000
2000
2FC0
2000
ENDCHAR
STARTCHAR uni4EC2
ENCODING 20162
SWIDTH 1000 0
SWIDTH1 1000 0
BBX 10 10 0 -1
BITMAP
1200
1200
2FC0
6240
A240
2240
2240
2440
2440
2980
ENDCHAR
STARTCHAR uni4EC3
ENCODING 20163
SWIDTH 1000 0
SWIDTH1 1000 0
BBX 10 10 0 -1
BITMAP
1000
1FC0
2100
6100
A100
2100
2100
2100
2100
2600
ENDCHAR
STARTCHAR uni4EC4
ENCODING 20164
SWIDTH 1000 0
SWIDTH1 1000 0
BBX 10 10 0 -1
BITMAP
7FC0
4000
4400
4400
4400
4400
4400
4A00
5100
A0C0
ENDCHAR
STARTCHAR uni4EC5
ENCODING 20165
SWIDTH 1000 0
SWIDTH1 1000 0
BBX 10 10 0 -1
BITMAP
1000
17C0
2240
6240
A240
2240
2180
2100
2280
2C40
ENDCHAR
STARTCHAR uni4EC6
ENCODING 20166
SWIDTH 1000 0
SWIDTH1 1000 0
BBX 10 10 0 -1
BITMAP
1200
1200
2200
2300
6280
A240
2200
2200
2200
2200
ENDCHAR
STARTCHAR uni4EC7
ENCODING 20167
SWIDTH 1000 0
SWIDTH1 1000 0
BBX 10 10 0 -1
BITMAP
1400
1400
2400
6F00
A500
2500
2500
2540
2940
30C0
ENDCHAR
STARTCHAR uni4EC8
ENCODING 20168
SWIDTH 1000 0
SWIDTH1 1000 0
BBX 10 10 0 -1
BITMAP
1100
1500
2500
6500
A500
2500
2500
2880
2880
3040
ENDCHAR
STARTCHAR uni4EC9
ENCODING 20169
SWIDTH 1000 0
SWIDTH1 1000 0
BBX 10 10 0 -1
BITMAP
1000
1700
2500
6500
A500
2500
2500
2540
2540
28C0
ENDCHAR
STARTCHAR uni4ECA
ENCODING 20170
SWIDTH 1000 0
SWIDTH1 1000 0
BBX 10 10 0 -1
BITMAP
0400
0A00
1100
2480
C440
3F00
0100
0200
0400
0400
ENDCHAR
STARTCHAR uni4ECB
ENCODING 20171
SWIDTH 1000 0
SWIDTH1 1000 0
BBX 10 10 0 -1
BITMAP
0400
0C00
1200
2100
C0C0
1200
1200
1200
2200
4200
ENDCHAR
STARTCHAR uni4ECC
ENCODING 20172
SWIDTH 1000 0
SWIDTH1 1000 0
BBX 9 10 1 -1
BITMAP
0800
0800
1600
2100
C880
0800
0800
1400
2200
C180
ENDCHAR
STARTCHAR uni4ECD
ENCODING 20173
SWIDTH 1000 0
SWIDTH1 1000 0
BBX 10 10 0 -1
BITMAP
1000
1F80
2480
6480
A500
25C0
2440
2840
2840
3180
ENDCHAR
STARTCHAR uni4ECE
ENCODING 20174
SWIDTH 1000 0
SWIDTH1 1000 0
BBX 10 10 0 -1
BITMAP
1100
1100
1100
1100
1100
1100
2900
2A80
4480
8840
ENDCHAR
STARTCHAR uni4ECF
ENCODING 20175
SWIDTH 1000 0
SWIDTH1 1000 0
BBX 10 10 0 -1
BITMAP
1200
1200
2200
6200
A480
2480
2480
2980
2E40
2040
ENDCHAR
STARTCHAR uni4ED0
ENCODING 20176
SWIDTH 1000 0
SWIDTH1 1000 0
BBX 9 10 1 -1
BITMAP
0800
0800
1400
2200
C980
0800
7F00
0800
0800
0800
ENDCHAR
STARTCHAR uni4ED1
ENCODING 20177
SWIDTH 1000 0
SWIDTH1 1000 0
BBX 10 10 0 -1
BITMAP
0800
0C00
1200
2100
E0C0
2600
3800
2080
2080
1F80
ENDCHAR
STARTCHAR uni4ED2
ENCODING 20178
SWIDTH 1000 0
SWIDTH1 1000 0
BBX 9 10 1 -1
BITMAP
0800
0800
1400
2200
C180
1800
0400
0000
3000
0C00
ENDCHAR
STARTCHAR uni4ED3
ENCODING 20179
SWIDTH 1000 0
SWIDTH1 1000 0
BBX 10 10 0 -1
BITMAP
0800
1400
2200
C1C0
3E00
2200
2200
2680
2080
1F80
ENDCHAR
STARTCHAR uni4ED4
ENCODING 20180
SWIDTH 1000 0
SWIDTH1 1000 0
BBX 10 10 0 -1
BITMAP
1000
2F80
2100
6200
A200
3FC0
2200
2200
2200
2600
ENDCHAR
STARTCHAR uni4ED5
ENCODING 20181
SWIDTH 1000 0
SWIDTH1 1000 0
BBX 10 10 0 -1
BITMAP
1200
2200
2200
7FC0
A200
2200
2200
2200
2F80
2000
ENDCHAR
STARTCHAR uni4ED6
ENCODING 20182
SWIDTH 1000 0
SWIDTH1 1000 0
BBX 10 10 0 -1
BITMAP
1200
1200
2B80
2E80
7A80
AB00
2A00
2A40
2840
27C0
ENDCHAR
STARTCHAR uni4ED7
ENCODING 20183
SWIDTH 1000 0
SWIDTH1 1000 0
BBX 10 10 0 -1
BITMAP
1100
1100
2100
2FC0
6100
A900
2500
2200
2500
38C0
ENDCHAR
STARTCHAR uni4ED8
ENCODING 20184
SWIDTH 1000 0
SWIDTH1 1000 0
BBX 10 10 0 -1
BITMAP
2100
2100
4100
DFC0
4100
4900
4500
4100
4100
4600
ENDCHAR
STARTCHAR uni4ED9
ENCODING 20185
SWIDTH 1000 0
SWIDTH1 1000 0
BBX 9 10 1 -1
BITMAP
1200
2200
2A80
6A80
6A80
AA80
2A80
2A80
2F80
2080
ENDCHAR
STARTCHAR uni4EDA
ENCODING 20186
SWIDTH 1000 0
SWIDTH1 1000 0
BBX 9 10 1 -1
BITMAP
0800
0800
1400
2200
C980
0800
4900
4900
4900
7F00
ENDCHAR
STARTCHAR uni4EDB
ENCODING 20187
SWIDTH 1000 0
SWIDTH1 1000 0
BBX 10 10 0 -1
BITMAP
1000
1180
2E00
6200
A3C0
3E00
2200
2240
2240
21C0
ENDCHAR
STARTCHAR uni4EDC
ENCODING 20188
SWIDTH 1000 0
SWIDTH1 1000 0
BBX 10 10 0 -1
BITMAP
1000
1000
2F80
6200
A200
2200
2200
2200
3FC0
2000
ENDCHAR
STARTCHAR uni4EDD
ENCODING 20189
SWIDTH 1000 0
SWIDTH1 1000 0
BBX 10 10 0 -1
BITMAP
0400
0400
0A00
3100
C0C0
1F00
0400
0400
0400
7FC0
ENDCHAR
STARTCHAR uni4EDE
ENCODING 20190
SWIDTH 1000 0
SWIDTH1 1000 0
BBX 10 10 0 -1
BITMAP
1000
1FC0
2240
6240
AA40
2A40
3240
2440
2440
2980
ENDCHAR
STARTCHAR uni4EDF
ENCODING 20191
SWIDTH 1000 0
SWIDTH1 1000 0
BBX 10 10 0 -1
BITMAP
1000
2180
2E00
6200
A200
2FC0
2200
2200
2200
2200
ENDCHAR
STARTCHAR uni4EE0
ENCODING 20192
SWIDTH 1000 0
SWIDTH1 1000 0
BBX 10 10 0 -1
BITMAP
1000
1F80
2200
6200
A200
3FC0
2200
2200
2200
2200
ENDCHAR
STARTCHAR uni4EE1
ENCODING 20193
SWIDTH 1000 0
SWIDTH1 1000 0
BBX 10 10 0 -1
BITMAP
1200
1200
27C0
6800
A7C0
2080
2100
2240
2440
27C0
ENDCHAR
STARTCHAR uni4EE2
ENCODING 20194
SWIDTH 1000 0
SWIDTH1 1000 0
BBX 10 10 0 -1
BITMAP
1400
1400
27C0
6840
B040
2240
2140
2040
2040
2180
ENDCHAR
STARTCHAR uni4EE3
ENCODING 20195
SWIDTH 1000 0
SWIDTH1 1000 0
BBX 10 10 0 -1
BITMAP
2500
2480
4400
C7C0
5C00
4400
4400
4240
4140
40C0
ENDCHAR
STARTCHAR uni4EE4
ENCODING 20196
SWIDTH 1000 0
SWIDTH1 1000 0
BBX 10 10 0 -1
BITMAP
0800
0C00
1200
2900
C4C0
3F00
0200
1200
0C00
0200
ENDCHAR
STARTCHAR uni4EE5
ENCODING 20197
SWIDTH 1000 0
SWIDTH1 1000 0
BBX 9 10 1 -1
BITMAP
0200
8200
A200
9200
9200
8200
A400
C600
8900
3080
ENDCHAR
STARTCHAR uni4EE6
ENCODING 20198
SWIDTH 1000 0
SWIDTH1 1000 0
BBX 10 10 0 -1
BITMAP
1200
1200
2200
6A80
AA80
2A40
3240
2200
2200
2600
ENDCHAR
STARTCHAR uni4EE7
ENCODING 20199
SWIDTH 1000 0
SWIDTH1 1000 0
BBX 10 10 0 -1
BITMAP
0800
0F00
0800
0800
FFC0
0800
0800
1400
2200
C1C0
ENDCHAR
STARTCHAR uni4EE8
ENCODING 20200
SWIDTH 1000 0
SWIDTH1 1000 0
BBX 10 10 0 -1
BITMAP
1000
1000
2780
6000
A000
2780
2000
2000
2FC0
2000
ENDCHAR
STARTCHAR uni4EE9
ENCODING 20201
SWIDTH 1000 0
SWIDTH1 1000 0
BBX 10 10 0 -1
BITMAP
1200
1200
2200
6200
A380
2200
2200
2200
3FC0
2000
ENDCHAR
STARTCHAR uni4EEA
ENCODING 20202
SWIDTH 1000 0
SWIDTH1 1000 0
BBX 10 10 0 -1
BITMAP
1400
2280
2A80
6880
A880
2500
2500
2200
2500
38C0
ENDCHAR
STARTCHAR uni4EEB
ENCODING 20203
SWIDTH 1000 0
SWIDTH1 1000 0
BBX 10 10 0 -1
BITMAP
1100
1100
2200
6480
A900
2200
2400
2880
3FC0
2040
ENDCHAR
STARTCHAR uni4EEC
ENCODING 20204
SWIDTH 1000 0
SWIDTH1 1000 0
BBX 10 10 0 -1
BITMAP
2800
25C0
5040
D040
5040
5040
5040
5040
5040
5180
ENDCHAR
STARTCHAR uni4EED
ENCODING 20205
SWIDTH 1000 0
SWIDTH1 1000 0
BBX 10 10 0 -1
BITMAP
2000
2F80
4480
D480
4C80
4680
4580
48C0
4880
5300
ENDCHAR
STARTCHAR uni4EEE
ENCODING 20206
SWIDTH 1000 0
SWIDTH1 1000 0
BBX 10 10 0 -1
BITMAP
2180
2E00
4800
4F80
C880
4C80
4B00
4900
4A80
5440
ENDCHAR
STARTCHAR uni4EEF
ENCODING 20207
SWIDTH 1000 0
SWIDTH1 1000 0
BBX 10 10 0 -1
BITMAP
1200
1200
2280
6A40
AA40
3280
2280
2100
2200
2C00
ENDCHAR
STARTCHAR uni4EF0
ENCODING 20208
SWIDTH 1000 0
SWIDTH1 1000 0
BBX 10 10 0 -1
BITMAP
1200
2DC0
2940
6940
A940
2940
2940
2D80
3900
2100
ENDCHAR
STARTCHAR uni4EF1
ENCODING 20209
SWIDTH 1000 0
SWIDTH1 1000 0
BBX 10 10 0 -1
BITMAP
1200
1200
2500
6A80
B240
2F80
2080
2100
2100
2200
ENDCHAR
STARTCHAR uni4EF2
ENCODING 20210
SWIDTH 1000 0
SWIDTH1 1000 0
BBX 10 10 0 -1
BITMAP
1100
2100
2FC0
6940
A940
2FC0
2940
2100
2100
2100
ENDCHAR
STARTCHAR uni4EF3
ENCODING 20211
SWIDTH 1000 0
SWIDTH1 1000 0
BBX 10 10 0 -1
BITMAP
1100
2900
2900
6940
AF80
2900
2900
2940
2D40
29C0
ENDCHAR
STARTCHAR uni4EF4
ENCODING 20212
SWIDTH 1000 0
SWIDTH1 1000 0
BBX 10 10 0 -1
BITMAP
1000
17C0
2440
67C0
A440
27C0
2440
2440
2440
2980
ENDCHAR
STARTCHAR uni4EF5
ENCODING 20213
SWIDTH 1000 0
SWIDTH1 1000 0
BBX 10 10 0 -1
BITMAP
1400
2400
27C0
6900
A100
3FC0
2100
2100
2100
2100
ENDCHAR
STARTCHAR uni4EF6
ENCODING 20214
SWIDTH 1000 0
SWIDTH1 1000 0
BBX 10 10 0 -1
BITMAP
1100
2500
2500
67C0
A900
2100
2FC0
2100
2100
2100
ENDCHAR
STARTCHAR uni4EF7
ENCODING 20215
SWIDTH 1000 0
SWIDTH1 1000 0
BBX 10 10 0 -1
BITMAP
2400
2400
4A00
D100
60C0
4900
4900
4900
4900
5100
ENDCHAR
STARTCHAR uni4EF8
ENCODING 20216
SWIDTH 1000 0
SWIDTH1 1000 0
BBX 10 10 0 -1
BITMAP
1000
1180
2E00
6200
A200
2FC0
2200
2500
2880
3040
ENDCHAR
STARTCHAR uni4EF9
ENCODING 20217
SWIDTH 1000 0
SWIDTH1 1000 0
BBX 10 10 0 -1
BITMAP
1200
1200
2FC0
6200
AF80
2200
3FC0
2200
2200
2200
ENDCHAR
STARTCHAR uni4EFA
ENCODING 20218
SWIDTH 1000 0
SWIDTH1 1000 0
BBX 10 10 0 -1
BITMAP
0800
0800
1400
2300
C0C0
3F00
2000
3F00
2000
3F00
ENDCHAR
STARTCHAR uni4EFB
ENCODING 20219
SWIDTH 1000 0
SWIDTH1 1000 0
BBX 10 10 0 -1
BITMAP
1000
1180
2E00
6200
A200
3FC0
2200
2200
2200
2F80
ENDCHAR
STARTCHAR uni4EFC
ENCODING 20220
SWIDTH 1000 0
SWIDTH1 1000 0
BBX 10 10 0 -1
BITMAP
1000
2F80
2200
6200
AF80
2200
2200
2200
3FC0
2000
ENDCHAR
STARTCHAR uni4EFD
ENCODING 20221
SWIDTH 1000 0
SWIDTH1 1000 0
BBX 10 10 0 -1
BITMAP
2500
2500
4880
C880
5040
6F80
4480
4480
4880
5300
ENDCHAR
STARTCHAR uni4EFE
ENCODING 20222
SWIDTH 1000 0
SWIDTH1 1000 0
BBX 10 10 0 -1
BITMAP
1000
2FC0
2400
6780
A480
2880
2F80
2100
2100
3FC0
ENDCHAR
STARTCHAR uni4EFF
ENCODING 20223
SWIDTH 1000 0
SWIDTH1 1000 0
BBX 10 10 0 -1
BITMAP
1200
1100
2FC0
6400
A780
2480
2480
2480
2880
3300
ENDCHAR
STARTCHAR uni4F00
ENCODING 20224
SWIDTH 1000 0
SWIDTH1 1000 0
BBX 10 10 0 -1
BITMAP
1100
1500
2480
6880
AA40
3200
2480
2440
2FC0
2040
ENDCHAR
STARTCHAR uni4F01
ENCODING 20225
SWIDTH 1000 0
SWIDTH1 1000 0
BBX 10 10 0 -1
BITMAP
0400
0400
0A00
3100
C4C0
0400
2780
2400
2400
FFC0
ENDCHAR
STARTCHAR uni4F02
ENCODING 20226
SWIDTH 1000 0
SWIDTH1 1000 0
BBX 10 10 0 -1
BITMAP
1200
1200
2FC0
6200
AFC0
2A40
2A40
2A40
2B80
2200
ENDCHAR
STARTCHAR uni4F03
ENCODING 20227
SWIDTH 1000 0
SWIDTH1 1000 0
BBX 10 10 0 -1
BITMAP
1000
2FC0
2080
6500
A200
3FC0
2240
2200
2200
2600
ENDCHAR
STARTCHAR uni4F04
ENCODING 20228
SWIDTH 1000 0
SWIDTH1 1000 0
BBX 10 10 0 -1
BITMAP
1000
2FC0
2240
6FC0
AA00
2FC0
2240
2240
22C0
2200
ENDCHAR
STARTCHAR uni4F05
ENCODING 20229
SWIDTH 1000 0
SWIDTH1 1000 0
BBX 10 10 0 -1
BITMAP
1200
1200
2FC0
6200
AA40
2BC0
2E40
2200
2240
23C0
ENDCHAR
STARTCHAR uni4F06
ENCODING 20230
SWIDTH 1000 0
SWIDTH1 1000 0
BBX 10 10 0 -1
BITMAP
2800
2800
4FC0
5540
E540
4940
4A40
5240
6440
4980
ENDCHAR
STARTCHAR uni4F07
ENCODING 20231
SWIDTH 1000 0
SWIDTH1 1000 0
BBX 10 10 0 -1
BITMAP
2000
2F00
4900
4900
D0C0
4F80
4880
4500
4200
5DC0
ENDCHAR
STARTCHAR uni4F08
ENCODING 20232
SWIDTH 1000 0
SWIDTH1 1000 0
BBX 10 10 0 -1
BITMAP
2200
2100
4500
C400
5480
5440
5440
4480
4480
4380
ENDCHAR
STARTCHAR uni4F09
ENCODING 20233
SWIDTH 1000 0
SWIDTH1 1000 0
BBX 10 10 0 -1
BITMAP
1400
1200
2F80
2000
6700
A500
2500
2500
2540
28C0
ENDCHAR
STARTCHAR uni4F0A
ENCODING 20234
SWIDTH 1000 0
SWIDTH1 1000 0
BBX 10 10 0 -1
BITMAP
1000
2F80
2480
7FC0
A480
2F80
2480
2400
2800
3000
ENDCHAR
STARTCHAR uni4F0B
ENCODING 20235
SWIDTH 1000 0
SWIDTH1 1000 0
BBX 10 10 0 -1
BITMAP
1000
2FC0
2480
6500
A580
2480
2A80
2900
3280
2C40
ENDCHAR
STARTCHAR uni4F0C
ENCODING 20236
SWIDTH 1000 0
SWIDTH1 1000 0
BBX 10 10 0 -1
BITMAP
1000
2FC0
2800
6BC0
AA40
2A40
2AC0
2A00
2A40
31C0
ENDCHAR
STARTCHAR uni4F0D
ENCODING 20237
SWIDTH 1000 0
SWIDTH1 1000 0
BBX 10 10 0 -1
BITMAP
1000
1FC0
2400
2400
6F80
A480
2480
2480
2480
3FC0
ENDCHAR
STARTCHAR uni4F0E
ENCODING 20238
SWIDTH 1000 0
SWIDTH1 1000 0
BBX 10 10 0 -1
BITMAP
1200
1200
2FC0
6200
AF80
2480
2480
2300
2300
2CC0
ENDCHAR
STARTCHAR uni4F0F
ENCODING 20239
SWIDTH 1000 0
SWIDTH1 1000 0
BBX 10 10 0 -1
BITMAP
1280
1240
2200
6FC0
A200
2200
2500
2500
2880
3040
ENDCHAR
STARTCHAR uni4F10
ENCODING 20240
SWIDTH 1000 0
SWIDTH1 1000 0
BBX 10 10 0 -1
BITMAP
1500
1480
27C0
7C00
A480
2480
2300
2240
2540
28C0
ENDCHAR
STARTCHAR uni4F11
ENCODING 20241
SWIDTH 1000 0
SWIDTH1 1000 0
BBX 10 10 0 -1
BITMAP
1200
1200
2F80
6200
A700
2700
2A80
3240
2200
2200
ENDCHAR
STARTCHAR uni4F12
ENCODING 20242
SWIDTH 1000 0
SWIDTH1 1000 0
BBX 10 10 0 -1
BITMAP
1000
10C0
2700
6400
A7C0
2480
2480
2480
2880
3080
ENDCHAR
STARTCHAR uni4F13
ENCODING 20243
SWIDTH 1000 0
SWIDTH1 1000 0
BBX 10 10 0 -1
BITMAP
1000
1FC0
2100
6200
A680
2A40
3240
2200
2200
2200
ENDCHAR
STARTCHAR uni4F14
ENCODING 20244
SWIDTH 1000 0
SWIDTH1 1000 0
BBX 10 10 0 -1
BITMAP
1000
2F80
2880
6000
A700
2500
2500
2540
2940
31C0
ENDCHAR
STARTCHAR uni4F15
ENCODING 20245
SWIDTH 1000 0
SWIDTH1 1000 0
BBX 10 10 0 -1
BITMAP
1200
1200
2F80
6200
A200
2FC0
2200
2500
2880
3040
ENDCHAR
STARTCHAR uni4F16
ENCODING 20246
SWIDTH 1000 0
SWIDTH1 1000 0
BBX 10 10 0 -1
BITMAP
1200
1200
2FC0
6200
A380
2480
2680
2900
3280
2C40
ENDCHAR
STARTCHAR uni4F17
ENCODING 20247
SWIDTH 1000 0
SWIDTH1 1000 0
BBX 10 10 0 -1
BITMAP
0800
0800
1400
2200
C180
2200
2200
5200
5500
88C0
ENDCHAR
STARTCHAR uni4F18
ENCODING 20248
SWIDTH 1000 0
SWIDTH1 1000 0
BBX 10 10 0 -1
BITMAP
1200
2280
2280
6FC0
A500
2500
2500
2940
2940
31C0
ENDCHAR
STARTCHAR uni4F19
ENCODING 20249
SWIDTH 1000 0
SWIDTH1 1000 0
BBX 10 10 0 -1
BITMAP
1200
2240
2A40
6A80
B200
2200
2500
2500
2880
3040
ENDCHAR
STARTCHAR uni4F1A
ENCODING 20250
SWIDTH 1000 0
SWIDTH1 1000 0
BBX 10 10 0 -1
BITMAP
0400
0A00
3100
DEC0
0000
7F80
0800
1100
7F80
0080
ENDCHAR
STARTCHAR uni4F1B
ENCODING 20251
SWIDTH 1000 0
SWIDTH1 1000 0
BBX 10 10 0 -1
BITMAP
1000
1FC0
2800
6C80
AA80
2900
2A80
2C80
2800
2FC0
ENDCHAR
STARTCHAR uni4F1C
ENCODING 20252
SWIDTH 1000 0
SWIDTH1 1000 0
BBX 10 10 0 -1
BITMAP
2400
2400
5F00
4500
C940
50C0
4200
5FC0
4200
4200
ENDCHAR
STARTCHAR uni4F1D
ENCODING 20253
SWIDTH 1000 0
SWIDTH1 1000 0
BBX 10 10 0 -1
BITMAP
1000
1780
2000
6FC0
A200
2200
2480
2480
2FC0
2040
ENDCHAR
STARTCHAR uni4F1E
ENCODING 20254
SWIDTH 1000 0
SWIDTH1 1000 0
BBX 9 10 1 -1
BITMAP
0800
1400
2200
C980
4900
2A00
0800
FF80
0800
0800
ENDCHAR
STARTCHAR uni4F1F
ENCODING 20255
SWIDTH 1000 0
SWIDTH1 1000 0
BBX 10 10 0 -1
BITMAP
1200
2FC0
2200
6780
A200
2FC0
2240
2240
2280
2200
ENDCHAR
STARTCHAR uni4F20
ENCODING 20256
SWIDTH 1000 0
SWIDTH1 1000 0
BBX 10 10 0 -1
BITMAP
1200
1200
2780
6200
AFC0
2400
2F80
2080
2700
2100
ENDCHAR
STARTCHAR uni4F21
ENCODING 20257
SWIDTH 1000 0
SWIDTH1 1000 0
BBX 10 10 0 -1
BITMAP
1200
1200
2FC0
6400
A900
2FC0
2100
2FC0
2100
2100
ENDCHAR
STARTCHAR uni4F22
ENCODING 20258
SWIDTH 1000 0
SWIDTH1 1000 0
BBX 10 10 0 -1
BITMAP
1000
1FC0
2480
6480
AFC0
2280
2280
2480
2880
2180
ENDCHAR
STARTCHAR uni4F23
ENCODING 20259
SWIDTH 1000 0
SWIDTH1 1000 0
BBX 10 10 0 -1
BITMAP
1000
2F80
2880
6A80
AA80
2A80
2200
2500
2940
31C0
ENDCHAR
STARTCHAR uni4F24
ENCODING 20260
SWIDTH 1000 0
SWIDTH1 1000 0
BBX 10 10 0 -1
BITMAP
1400
1400
27C0
2A00
7200
AFC0
2240
2240
2440
3980
ENDCHAR
STARTCHAR uni4F25
ENCODING 20261
SWIDTH 1000 0
SWIDTH1 1000 0
BBX 10 10 0 -1
BITMAP
1400
1480
2500
6600
BFC0
2500
2500
2480
2680
2440
ENDCHAR
STARTCHAR uni4F26
ENCODING 20262
SWIDTH 1000 0
SWIDTH1 1000 0
BBX 10 10 0 -1
BITMAP
2200
2200
4500
C8C0
7000
4980
4E00
4880
4880
4780
ENDCHAR
STARTCHAR uni4F27
ENCODING 20263
SWIDTH 1000 0
SWIDTH1 1000 0
BBX 10 10 0 -1
BITMAP
1200
1200
2500
6880
B7C0
2480
2480
2580
2440
23C0
ENDCHAR
STARTCHAR uni4F28
ENCODING 20264
SWIDTH 1000 0
SWIDTH1 1000 0
BBX 10 10 0 -1
BITMAP
1400
1400
27C0
6840
B440
2240
2340
2C40
2040
2180
ENDCHAR
STARTCHAR uni4F29
ENCODING 20265
SWIDTH 1000 0
SWIDTH1 1000 0
BBX 10 10 0 -1
BITMAP
1400
1200
2FC0
6480
A480
2480
2300
2200
2500
38C0
ENDCHAR
STARTCHAR uni4F2A
ENCODING 20266
SWIDTH 1000 0
SWIDTH1 1000 0
BBX 10 10 0 -1
BITMAP
1100
1900
2500
2FC0
6240
A340
22C0
2440
2440
2980
ENDCHAR
STARTCHAR uni4F2B
ENCODING 20267
SWIDTH 1000 0
SWIDTH1 1000 0
BBX 10 10 0 -1
BITMAP
1200
1100
2FC0
6840
A840
2000
2000
2000
2FC0
2000
ENDCHAR
STARTCHAR uni4F2C
ENCODING 20268
SWIDTH 1000 0
SWIDTH1 1000 0
BBX 10 10 0 -1
BITMAP
2000
2FC0
4840
C840
4FC0
4940
4900
4900
5080
6040
ENDCHAR
STARTCHAR uni4F2D
ENCODING 20269
SWIDTH 1000 0
SWIDTH1 1000 0
BBX 10 10 0 -1
BITMAP
2200
3FC0
4400
C880
5F00
4200
4480
4980
5E40
4040
ENDCHAR
STARTCHAR uni4F2E
ENCODING 20270
SWIDTH 1000 0
SWIDTH1 1000 0
BBX 10 10 0 -1
BITMAP
2800
2BC0
4840
FD40
5540
5540
5480
4880
5480
6340
ENDCHAR
STARTCHAR uni4F2F
ENCODING 20271
SWIDTH 1000 0
SWIDTH1 1000 0
BBX 10 10 0 -1
BITMAP
1100
2200
2FC0
6840
A840
2FC0
2840
2840
2FC0
2840
ENDCHAR
STARTCHAR uni4F30
ENCODING 20272
SWIDTH 1000 0
SWIDTH1 1000 0
BBX 10 10 0 -1
BITMAP
1200
1200
2FC0
6200
A200
2F80
2880
2880
2F80
2880
ENDCHAR
STARTCHAR uni4F31
ENCODING 20273
SWIDTH 1000 0
SWIDTH1 1000 0
BBX 10 10 0 -1
BITMAP
2200
2200
4500
C880
5240
4200
4A80
4A40
5240
4600
ENDCHAR
STARTCHAR uni4F32
ENCODING 20274
SWIDTH 1000 0
SWIDTH1 1000 0
BBX 10 10 0 -1
BITMAP
1000
1FC0
2840
6FC0
AA00
2A40
2B80
2A40
2A40
31C0
ENDCHAR
STARTCHAR uni4F33
ENCODING 20275
SWIDTH 1000 0
SWIDTH1 1000 0
BBX 10 10 0 -1
BITMAP
1000
1280
2A80
6A80
BFC0
2A80
2A80
2B80
2800
2FC0
ENDCHAR
STARTCHAR uni4F34
ENCODING 20276
SWIDTH 1000 0
SWIDTH1 1000 0
BBX 10 10 0 -1
BITMAP
2200
5240
4A80
C200
4F80
4200
5FC0
4200
4200
4200
ENDCHAR
STARTCHAR uni4F35
ENCODING 20277
SWIDTH 1000 0
SWIDTH1 1000 0
BBX 10 10 0 -1
BITMAP
2000
3FC0
5540
D540
5540
5540
59C0
5040
5FC0
5040
ENDCHAR
STARTCHAR uni4F36
ENCODING 20278
SWIDTH 1000 0
SWIDTH1 1000 0
BBX 10 10 0 -1
BITMAP
1200
1300
2480
6A40
B200
2F80
2080
2500
2200
2100
ENDCHAR
STARTCHAR uni4F37
ENCODING 20279
SWIDTH 1000 0
SWIDTH1 1000 0
BBX 10 10 0 -1
BITMAP
2200
2200
5FC0
D240
5240
5FC0
5240
5240
5FC0
5040
ENDCHAR
STARTCHAR uni4F38
ENCODING 20280
SWIDTH 1000 0
SWIDTH1 1000 0
BBX 9 10 0 -1
BITMAP
1200
1200
2F80
6A80
AF80
2A80
2F80
2A80
2200
2200
ENDCHAR
STARTCHAR uni4F39
ENCODING 20281
SWIDTH 1000 0
SWIDTH1 1000 0
BBX 10 10 0 -1
BITMAP
2000
2F80
4880
C880
4F80
4880
4F80
4880
4880
5FC0
ENDCHAR
STARTCHAR uni4F3A
ENCODING 20282
SWIDTH 1000 0
SWIDTH1 1000 0
BBX 10 10 0 -1
BITMAP
1000
17C0
2040
6F40
A040
2F40
2940
2F40
2940
20C0
ENDCHAR
STARTCHAR uni4F3B
ENCODING 20283
SWIDTH 1000 0
SWIDTH1 1000 0
BBX 10 10 0 -1
BITMAP
1000
2F80
2200
6A80
A700
2200
3FC0
2200
2200
2200
ENDCHAR
STARTCHAR uni4F3C
ENCODING 20284
SWIDTH 1000 0
SWIDTH1 1000 0
BBX 10 10 0 -1
BITMAP
1000
1480
2A80
6A80
A880
2880
2A80
2C80
3940
2240
ENDCHAR
STARTCHAR uni4F3D
ENCODING 20285
SWIDTH 1000 0
SWIDTH1 1000 0
BBX 10 10 0 -1
BITMAP
2800
4800
7DC0
D540
5540
5540
5540
5540
55C0
6D40
ENDCHAR
STARTCHAR uni4F3E
ENCODING 20286
SWIDTH 1000 0
SWIDTH1 1000 0
BBX 10 10 0 -1
BITMAP
1000
2FC0
2100
6200
A280
2640
3A40
2200
2200
2FC0
ENDCHAR
STARTCHAR uni4F3F
ENCODING 20287
SWIDTH 1000 0
SWIDTH1 1000 0
BBX 10 10 0 -1
BITMAP
1000
17C0
2440
6440
A440
27C0
2000
2280
2440
2840
ENDCHAR
STARTCHAR uni4F40
ENCODING 20288
SWIDTH 1000 0
SWIDTH1 1000 0
BBX 10 10 0 -1
BITMAP
1000
2F80
2880
6880
AF80
2800
2FC0
2840
2840
2FC0
ENDCHAR
STARTCHAR uni4F41
ENCODING 20289
SWIDTH 1000 0
SWIDTH1 1000 0
BBX 10 10 0 -1
BITMAP
1200
2280
2480
6F40
A000
2FC0
2840
2840
2FC0
2840
ENDCHAR
STARTCHAR uni4F42
ENCODING 20290
SWIDTH 1000 0
SWIDTH1 1000 0
BBX 10 10 0 -1
BITMAP
2000
2F80
4200
C200
4A00
4B80
4A00
4A00
4A00
5FC0
ENDCHAR
STARTCHAR uni4F43
ENCODING 20291
SWIDTH 1000 0
SWIDTH1 1000 0
BBX 10 10 0 -1
BITMAP
2000
3FC0
5240
D240
5FC0
5240
5240
5240
5FC0
5040
ENDCHAR
STARTCHAR uni4F44
ENCODING 20292
SWIDTH 1000 0
SWIDTH1 1000 0
BBX 10 10 0 -1
BITMAP
2880
2880
5FC0
C880
4880
4F80
4880
4880
4F80
4880
ENDCHAR
STARTCHAR uni4F45
ENCODING 20293
SWIDTH 1000 0
SWIDTH1 1000 0
BBX 10 10 0 -1
BITMAP
1200
1200
2F80
6200
BFC0
2200
2700
2A80
3240
2200
ENDCHAR
STARTCHAR uni4F46
ENCODING 20294
SWIDTH 1000 0
SWIDTH1 1000 0
BBX 10 10 0 -1
BITMAP
2000
2F80
4880
C880
4F80
4880
4880
4F80
4000
5FC0
ENDCHAR
STARTCHAR uni4F47
ENCODING 20295
SWIDTH 1000 0
SWIDTH1 1000 0
BBX 10 10 0 -1
BITMAP
1200
1100
2FC0
6840
A000
2FC0
2100
2100
2100
2600
ENDCHAR
STARTCHAR uni4F48
ENCODING 20296
SWIDTH 1000 0
SWIDTH1 1000 0
BBX 10 10 0 -1
BITMAP
1200
17C0
2200
6500
AFC0
3540
2540
2540
2580
2100
ENDCHAR
STARTCHAR uni4F49
ENCODING 20297
SWIDTH 1000 0
SWIDTH1 1000 0
BBX 10 10 0 -1
BITMAP
1200
1200
2F80
6200
A200
3FC0
2400
2880
29C0
3E40
ENDCHAR
STARTCHAR uni4F4A
ENCODING 20298
SWIDTH 1000 0
SWIDTH1 1000 0
BBX 10 10 0 -1
BITMAP
1100
17C0
2540
6500
A7C0
2440
2680
2900
2A80
3440
ENDCHAR
STARTCHAR uni4F4B
ENCODING 20299
SWIDTH 1000 0
SWIDTH1 1000 0
BBX 10 10 0 -1
BITMAP
1000
2FC0
2240
6240
AD80
2000
2FC0
2840
2FC0
2840
ENDCHAR
STARTCHAR uni4F4C
ENCODING 20300
SWIDTH 1000 0
SWIDTH1 1000 0
BBX 10 10 0 -1
BITMAP
2100
2500
4500
D540
5780
5500
5500
5740
7940
41C0
ENDCHAR
STARTCHAR uni4F4D
ENCODING 20301
SWIDTH 1000 0
SWIDTH1 1000 0
BBX 10 10 0 -1
BITMAP
1400
1200
2FC0
2000
6880
A480
2500
2100
3FC0
2000
ENDCHAR
STARTCHAR uni4F4E
ENCODING 20302
SWIDTH 1000 0
SWIDTH1 1000 0
BBX 10 10 0 -1
BITMAP
10C0
2F00
2900
6900
AFC0
2900
2940
2940
2EC0
2A40
ENDCHAR
STARTCHAR uni4F4F
ENCODING 20303
SWIDTH 1000 0
SWIDTH1 1000 0
BBX 10 10 0 -1
BITMAP
1400
1200
2FC0
6200
A200
2F80
2200
2200
3FC0
2000
ENDCHAR
STARTCHAR uni4F50
ENCODING 20304
SWIDTH 1000 0
SWIDTH1 1000 0
BBX 10 10 0 -1
BITMAP
1200
1200
2FC0
6200
A400
27C0
2900
3100
2100
2FC0
ENDCHAR
STARTCHAR uni4F51
ENCODING 20305
SWIDTH 1000 0
SWIDTH1 1000 0
BBX 10 10 0 -1
BITMAP
1200
2200
2FC0
6200
A400
2FC0
3440
2440
27C0
2440
ENDCHAR
STARTCHAR uni4F52
ENCODING 20306
SWIDTH 1000 0
SWIDTH1 1000 0
BBX 10 10 0 -1
BITMAP
1200
1200
2F80
6A80
AA80
3FC0
2200
2500
2880
3040
ENDCHAR
STARTCHAR uni4F53
ENCODING 20307
SWIDTH 1000 0
SWIDTH1 1000 0
BBX 10 10 0 -1
BITMAP
1200
1200
2FC0
6700
A700
2A80
3240
2F80
2200
2200
ENDCHAR
STARTCHAR uni4F54
ENCODING 20308
SWIDTH 1000 0
SWIDTH1 1000 0
BBX 10 10 0 -1
BITMAP
1200
1200
23C0
6200
A200
2FC0
2840
2840
2FC0
2840
ENDCHAR
STARTCHAR uni4F55
ENCODING 20309
SWIDTH 1000 0
SWIDTH1 1000 0
BBX 10 10 0 -1
BITMAP
1000
2FC0
2080
6E80
AA80
2A80
2E80
2A80
2080
2300
ENDCHAR
STARTCHAR uni4F56
ENCODING 20310
SWIDTH 1000 0
SWIDTH1 1000 0
BBX 10 10 0 -1
BITMAP
1480
1280
2480
6500
AD40
3540
2600
2480
2C80
3380
ENDCHAR
STARTCHAR uni4F57
ENCODING 20311
SWIDTH 1000 0
SWIDTH1 1000 0
BBX 10 10 0 -1
BITMAP
1200
1100
2FC0
6840
A400
2580
2600
2440
2440
23C0
ENDCHAR
STARTCHAR uni4F58
ENCODING 20312
SWIDTH 1000 0
SWIDTH1 1000 0
BBX 9 10 1 -1
BITMAP
0800
1400
2200
C180
3E00
0000
FF80
2A00
4900
9880
ENDCHAR
STARTCHAR uni4F59
ENCODING 20313
SWIDTH 1000 0
SWIDTH1 1000 0
BBX 10 10 0 -1
BITMAP
0400
0A00
1100
2080
DF40
0400
7FC0
1500
2480
4C40
ENDCHAR
STARTCHAR uni4F5A
ENCODING 20314
SWIDTH 1000 0
SWIDTH1 1000 0
BBX 10 10 0 -1
BITMAP
1100
1500
27C0
6900
A100
2FC0
2100
2280
2480
2840
ENDCHAR
STARTCHAR uni4F5B
ENCODING 20315
SWIDTH 1000 0
SWIDTH1 1000 0
BBX 10 10 0 -1
BITMAP
2500
2500
5FC0
C540
5FC0
5500
5FC0
4540
45C0
4900
ENDCHAR
STARTCHAR uni4F5C
ENCODING 20316
SWIDTH 1000 0
SWIDTH1 1000 0
BBX 10 10 0 -1
BITMAP
1200
1200
27C0
6A00
A3C0
2200
23C0
2200
2200
2200
ENDCHAR
STARTCHAR uni4F5D
ENCODING 20317
SWIDTH 1000 0
SWIDTH1 1000 0
BBX 10 10 0 -1
BITMAP
1400
1400
27C0
6840
B740
2540
2540
2740
2040
2180
ENDCHAR
STARTCHAR uni4F5E
ENCODING 20318
SWIDTH 1000 0
SWIDTH1 1000 0
BBX 10 10 0 -1
BITMAP
1000
1780
2000
2FC0
6200
AFC0
2480
2480
2300
2C80
ENDCHAR
STARTCHAR uni4F5F
ENCODING 20319
SWIDTH 1000 0
SWIDTH1 1000 0
BBX 10 10 0 -1
BITMAP
1400
1780
2880
7500
A300
3CC0
2300
2080
2600
2100
ENDCHAR
STARTCHAR uni4F60
ENCODING 20320
SWIDTH 1000 0
SWIDTH1 1000 0
BBX 10 10 0 -1
BITMAP
2800
4800
4FC0
D240
6200
4A80
4A40
5240
4200
4600
ENDCHAR
STARTCHAR uni4F61
ENCODING 20321
SWIDTH 1000 0
SWIDTH1 1000 0
BBX 10 10 0 -1
BITMAP
1200
1200
2500
6880
B240
2200
2A80
2A80
2B80
2C80
ENDCHAR
STARTCHAR uni4F62
ENCODING 20322
SWIDTH 1000 0
SWIDTH1 1000 0
BBX 10 10 0 -1
BITMAP
1000
17C0
2400
6400
A7C0
2440
27C0
2400
2400
27C0
ENDCHAR
STARTCHAR uni4F63
ENCODING 20323
SWIDTH 1000 0
SWIDTH1 1000 0
BBX 10 10 0 -1
BITMAP
1000
2FC0
2A40
6A40
AFC0
2A40
2FC0
2A40
2A40
32C0
ENDCHAR
STARTCHAR uni4F64
ENCODING 20324
SWIDTH 1000 0
SWIDTH1 1000 0
BBX 10 10 0 -1
BITMAP
1000
2FC0
2400
6780
A480
2680
2580
2480
26C0
2CC0
ENDCHAR
STARTCHAR uni4F65
ENCODING 20325
SWIDTH 1000 0
SWIDTH1 1000 0
BBX 10 10 0 -1
BITMAP
0800
0C00
1200
2100
DEC0
0100
4900
2A00
0200
FF80
ENDCHAR
STARTCHAR uni4F66
ENCODING 20326
SWIDTH 1000 0
SWIDTH1 1000 0
BBX 10 10 0 -1
BITMAP
1000
1FC0
2200
6200
A400
27C0
2C40
3440
27C0
2440
ENDCHAR
STARTCHAR uni4F67
ENCODING 20327
SWIDTH 1000 0
SWIDTH1 1000 0
BBX 10 10 0 -1
BITMAP
1200
1200
2380
6200
BFC0
2200
2280
2240
2200
2200
ENDCHAR
STARTCHAR uni4F68
ENCODING 20328
SWIDTH 1000 0
SWIDTH1 1000 0
BBX 10 10 0 -1
BITMAP
1400
2400
27C0
6840
B740
2540
2740
2480
2440
27C0
ENDCHAR
STARTCHAR uni4F69
ENCODING 20329
SWIDTH 1000 0
SWIDTH1 1000 0
BBX 10 10 0 -1
BITMAP
2000
5F80
5080
DF80
5480
5F80
5580
5680
54C0
6440
ENDCHAR
STARTCHAR uni4F6A
ENCODING 20330
SWIDTH 1000 0
SWIDTH1 1000 0
BBX 10 10 0 -1
BITMAP
2000
3FC0
5040
5740
D540
5540
5740
5040
5FC0
5040
ENDCHAR
STARTCHAR uni4F6B
ENCODING 20331
SWIDTH 1000 0
SWIDTH1 1000 0
BBX 10 10 0 -1
BITMAP
2400
2780
4880
D500
4700
58C0
4F80
4880
4880
4F80
ENDCHAR
STARTCHAR uni4F6C
ENCODING 20332
SWIDTH 1000 0
SWIDTH1 1000 0
BBX 10 10 0 -1
BITMAP
2400
2480
4E80
4500
FFC0
4400
5980
6E00
4840
47C0
ENDCHAR
STARTCHAR uni4F6D
ENCODING 20333
SWIDTH 1000 0
SWIDTH1 1000 0
BBX 10 10 0 -1
BITMAP
2200
2780
4C80
C300
5CC0
4100
5FC0
4900
4FC0
4100
ENDCHAR
STARTCHAR uni4F6E
ENCODING 20334
SWIDTH 1000 0
SWIDTH1 1000 0
BBX 10 10 0 -1
BITMAP
1200
1200
2500
6880
B740
2000
2F80
2880
2F80
2880
ENDCHAR
STARTCHAR uni4F6F
ENCODING 20335
SWIDTH 1000 0
SWIDTH1 1000 0
BBX 10 10 0 -1
BITMAP
1480
2500
2FC0
6200
AF80
2200
3FC0
2200
2200
2200
ENDCHAR
STARTCHAR uni4F70
ENCODING 20336
SWIDTH 1000 0
SWIDTH1 1000 0
BBX 10 10 0 -1
BITMAP
1000
1FC0
2200
6FC0
A840
2FC0
2840
2840
2FC0
2840
ENDCHAR
STARTCHAR uni4F71
ENCODING 20337
SWIDTH 1000 0
SWIDTH1 1000 0
BBX 10 10 0 -1
BITMAP
0400
0A00
3100
DEC0
0000
7FC0
0400
2780
2400
FFC0
ENDCHAR
STARTCHAR uni4F72
ENCODING 20338
SWIDTH 1000 0
SWIDTH1 1000 0
BBX 10 10 0 -1
BITMAP
1200
13C0
2440
6A80
A300
3C00
27C0
2440
27C0
2440
ENDCHAR
STARTCHAR uni4F73
ENCODING 20339
SWIDTH 1000 0
SWIDTH1 1000 0
BBX 10 10 0 -1
BITMAP
2200
2200
4F80
4200
DFC0
4200
4F80
4200
4200
5FC0
ENDCHAR
STARTCHAR uni4F74
ENCODING 20340
SWIDTH 1000 0
SWIDTH1 1000 0
BBX 10 10 0 -1
BITMAP
1000
1FC0
2480
6780
A480
2780
24C0
2F80
2080
2080
ENDCHAR
STARTCHAR uni4F75
ENCODING 20341
SWIDTH 1000 0
SWIDTH1 1000 0
BBX 10 10 0 -1
BITMAP
2880
2500
4F80
4500
C500
5FC0
4500
4500
4900
5100
ENDCHAR
STARTCHAR uni4F76
ENCODING 20342
SWIDTH 1000 0
SWIDTH1 1000 0
BBX 10 10 0 -1
BITMAP
1200
1200
2FC0
6200
AF80
2000
2F80
2880
2F80
2880
ENDCHAR
STARTCHAR uni4F77
ENCODING 20343
SWIDTH 1000 0
SWIDTH1 1000 0
BBX 10 10 0 -1
BITMAP
1000
2F80
2880
6F80
A880
2F80
2A40
2A80
2900
2CC0
ENDCHAR
STARTCHAR uni4F78
ENCODING 20344
SWIDTH 1000 0
SWIDTH1 1000 0
BBX 10 10 0 -1
BITMAP
1180
2E00
2200
7FC0
A200
2F80
2880
2880
2F80
2880
ENDCHAR
STARTCHAR uni4F79
ENCODING 20345
SWIDTH 1000 0
SWIDTH1 1000 0
BBX 10 10 0 -1
BITMAP
1400
1780
2900
6FC0
A800
2B80
2A80
2B00
2A40
31C0
ENDCHAR
STARTCHAR uni4F7A
ENCODING 20346
SWIDTH 1000 0
SWIDTH1 1000 0
BBX 10 10 0 -1
BITMAP
1200
1200
2500
6880
B740
2200
2F80
2200
2200
3FC0
ENDCHAR
STARTCHAR uni4F7B
ENCODING 20347
SWIDTH 1000 0
SWIDTH1 1000 0
BBX 10 10 0 -1
BITMAP
1500
2500
3540
6D80
A500
2D80
3540
2500
2540
29C0
ENDCHAR
STARTCHAR uni4F7C
ENCODING 20348
SWIDTH 1000 0
SWIDTH1 1000 0
BBX 10 10 0 -1
BITMAP
1200
2FC0
2500
6880
B540
2500
2500
2200
2500
38C0
ENDCHAR
STARTCHAR uni4F7D
ENCODING 20349
SWIDTH 1000 0
SWIDTH1 1000 0
BBX 10 10 0 -1
BITMAP
1200
2200
2BC0
6440
A100
2500
2500
2980
2A80
2440
ENDCHAR
STARTCHAR uni4F7E
ENCODING 20350
SWIDTH 1000 0
SWIDTH1 1000 0
BBX 10 10 0 -1
BITMAP
1500
2500
2880
7FC0
A880
2F80
2880
2F80
2880
2980
ENDCHAR
STARTCHAR uni4F7F
ENCODING 20351
SWIDTH 1000 0
SWIDTH1 1000 0
BBX 10 10 0 -1
BITMAP
1100
1FC0
2100
2FC0
6940
AFC0
2500
2200
2500
28C0
ENDCHAR
STARTCHAR uni4F80
ENCODING 20352
SWIDTH 1000 0
SWIDTH1 1000 0
BBX 10 10 0 -1
BITMAP
2040
3E40
5440
D540
7F40
5540
5540
5540
5440
64C0
ENDCHAR
STARTCHAR uni4F81
ENCODING 20353
SWIDTH 1000 0
SWIDTH1 1000 0
BBX 10 10 0 -1
BITMAP
2200
2A00
4F80
D200
5FC0
4500
4500
4540
4940
71C0
ENDCHAR
STARTCHAR uni4F82
ENCODING 20354
SWIDTH 1000 0
SWIDTH1 1000 0
BBX 10 10 0 -1
BITMAP
1100
2FC0
2880
6B00
A900
29C0
2F00
2940
2940
30C0
ENDCHAR
STARTCHAR uni4F83
ENCODING 20355
SWIDTH 1000 0
SWIDTH1 1000 0
BBX 10 10 0 -1
BITMAP
2000
5F80
5080
D080
5F80
4000
5500
5500
5540
65C0
ENDCHAR
STARTCHAR uni4F84
ENCODING 20356
SWIDTH 1000 0
SWIDTH1 1000 0
BBX 10 10 0 -1
BITMAP
1000
2FC0
2200
6480
AFC0
2240
2F80
2200
2200
3FC0
ENDCHAR
STARTCHAR uni4F85
ENCODING 20357
SWIDTH 1000 0
SWIDTH1 1000 0
BBX 10 10 0 -1
BITMAP
1100
2FC0
2200
6480
AF00
2240
2480
2980
2240
2C40
ENDCHAR
STARTCHAR uni4F86
ENCODING 20358
SWIDTH 1000 0
SWIDTH1 1000 0
BBX 9 10 1 -1
BITMAP
0800
FF80
0800
4900
4900
AA80
1C00
2A00
C980
0800
ENDCHAR
STARTCHAR uni4F87
ENCODING 20359
SWIDTH 1000 0
SWIDTH1 1000 0
BBX 10 10 0 -1
BITMAP
2400
3FC0
4480
DF80
5400
5F80
4480
4500
4A00
71C0
ENDCHAR
STARTCHAR uni4F88
ENCODING 20360
SWIDTH 1000 0
SWIDTH1 1000 0
BBX 10 10 0 -1
BITMAP
1200
2380
2480
6B00
A280
2DC0
2240
2580
2100
2E00
ENDCHAR
STARTCHAR uni4F89
ENCODING 20361
SWIDTH 1000 0
SWIDTH1 1000 0
BBX 10 10 0 -1
BITMAP
1200
1FC0
2500
6F80
B040
2F80
2400
2780
2080
2300
ENDCHAR
STARTCHAR uni4F8A
ENCODING 20362
SWIDTH 1000 0
SWIDTH1 1000 0
BBX 10 10 0 -1
BITMAP
1200
1240
2A80
6200
AFC0
2500
2500
2540
2940
31C0
ENDCHAR
STARTCHAR uni4F8B
ENCODING 20363
SWIDTH 1000 0
SWIDTH1 1000 0
BBX 10 10 0 -1
BITMAP
2040
5C40
4940
CD40
5540
5540
6D40
4D40
4840
50C0
ENDCHAR
STARTCHAR uni4F8C
ENCODING 20364
SWIDTH 1000 0
SWIDTH1 1000 0
BBX 10 10 0 -1
BITMAP
0C00
1200
2900
DEC0
0400
7F80
0000
FFC0
2100
7E80
ENDCHAR
STARTCHAR uni4F8D
ENCODING 20365
SWIDTH 1000 0
SWIDTH1 1000 0
BBX 10 10 0 -1
BITMAP
1200
1200
2F80
2200
7FC0
A080
2FC0
2480
2480
2100
ENDCHAR
STARTCHAR uni4F8E
ENCODING 20366
SWIDTH 1000 0
SWIDTH1 1000 0
BBX 10 10 0 -1
BITMAP
2200
2A40
4680
4200
DFC0
4200
4700
4A80
5240
4200
ENDCHAR
STARTCHAR uni4F8F
ENCODING 20367
SWIDTH 1000 0
SWIDTH1 1000 0
BBX 10 10 0 -1
BITMAP
2200
2A00
4F80
5200
C200
5FC0
4700
4A80
7240
4200
ENDCHAR
STARTCHAR uni4F90
ENCODING 20368
SWIDTH 1000 0
SWIDTH1 1000 0
BBX 10 10 0 -1
BITMAP
1200
2400
3F80
6A80
AA80
2A80
2A80
2A80
3FC0
2000
ENDCHAR
STARTCHAR uni4F91
ENCODING 20369
SWIDTH 1000 0
SWIDTH1 1000 0
BBX 10 10 0 -1
BITMAP
1200
1FC0
2200
6780
AC80
3780
2480
2780
2480
2580
ENDCHAR
STARTCHAR uni4F92
ENCODING 20370
SWIDTH 1000 0
SWIDTH1 1000 0
BBX 10 10 0 -1
BITMAP
1200
1100
2FC0
6840
A200
2FC0
2480
2480
2300
2C80
ENDCHAR
STARTCHAR uni4F93
ENCODING 20371
SWIDTH 1000 0
SWIDTH1 1000 0
BBX 10 10 0 -1
BITMAP
2200
2F80
4280
DFC0
4280
5FC0
4200
5FC0
4200
4200
ENDCHAR
STARTCHAR uni4F94
ENCODING 20372
SWIDTH 1000 0
SWIDTH1 1000 0
BBX 10 10 0 -1
BITMAP
1200
1480
2FC0
6500
A500
2FC0
2900
3FC0
2100
2100
ENDCHAR
STARTCHAR uni4F95
ENCODING 20373
SWIDTH 1000 0
SWIDTH1 1000 0
BBX 10 10 0 -1
BITMAP
2000
3FC0
4200
C400
5FC0
5540
5540
5540
5540
50C0
ENDCHAR
STARTCHAR uni4F96
ENCODING 20374
SWIDTH 1000 0
SWIDTH1 1000 0
BBX 10 10 0 -1
BITMAP
0C00
1200
2100
DEC0
0000
FFC0
9240
FFC0
9240
9280
ENDCHAR
STARTCHAR uni4F97
ENCODING 20375
SWIDTH 1000 0
SWIDTH1 1000 0
BBX 10 10 0 -1
BITMAP
2000
3FC0
5040
D740
5040
5740
5540
5740
5040
50C0
ENDCHAR
STARTCHAR uni4F98
ENCODING 20376
SWIDTH 1000 0
SWIDTH1 1000 0
BBX 10 10 0 -1
BITMAP
1200
2FC0
2840
6180
AE00
2200
23C0
3E00
2240
21C0
ENDCHAR
STARTCHAR uni4F99
ENCODING 20377
SWIDTH 1000 0
SWIDTH1 1000 0
BBX 10 10 0 -1
BITMAP
1100
2140
2FC0
6100
AF00
2500
2540
2740
38C0
2040
ENDCHAR
STARTCHAR uni4F9A
ENCODING 20378
SWIDTH 1000 0
SWIDTH1 1000 0
BBX 10 10 0 -1
BITMAP
1400
27C0
2840
7740
A540
2740
2540
2740
2040
2180
ENDCHAR
STARTCHAR uni4F9B
ENCODING 20379
SWIDTH 1000 0
SWIDTH1 1000 0
BBX 10 10 0 -1
BITMAP
1480
1480
2480
6FC0
A480
2480
3FC0
2000
2480
2840
ENDCHAR
STARTCHAR uni4F9C
ENCODING 20380
SWIDTH 1000 0
SWIDTH1 1000 0
BBX 10 10 0 -1
BITMAP
2200
2F80
4A80
CA80
4880
7FC0
4A80
4A80
5080
6180
ENDCHAR
STARTCHAR uni4F9D
ENCODING 20381
SWIDTH 1000 0
SWIDTH1 1000 0
BBX 10 10 0 -1
BITMAP
1200
2FC0
2200
6500
A540
2D80
3500
2480
2680
2C40
ENDCHAR
STARTCHAR uni4F9E
ENCODING 20382
SWIDTH 1000 0
SWIDTH1 1000 0
BBX 10 10 0 -1
BITMAP
2800
29C0
4940
FD40
5540
5540
5540
4940
55C0
6540
ENDCHAR
STARTCHAR uni4F9F
ENCODING 20383
SWIDTH 1000 0
SWIDTH1 1000 0
BBX 10 10 0 -1
BITMAP
2400
2400
5FC0
C400
4B80
5900
6FC0
4900
4900
4B00
ENDCHAR
STARTCHAR uni4FA0
ENCODING 20384
SWIDTH 1000 0
SWIDTH1 1000 0
BBX 10 10 0 -1
BITMAP
1200
2200
2F80
6200
AA80
2700
3FC0
2200
2500
38C0
ENDCHAR
STARTCHAR uni4FA1
ENCODING 20385
SWIDTH 1000 0
SWIDTH1 1000 0
BBX 10 10 0 -1
BITMAP
2000
3FC0
4500
DFC0
5540
5540
5540
5540
5FC0
5040
ENDCHAR
STARTCHAR uni4FA2
ENCODING 20386
SWIDTH 1000 0
SWIDTH1 1000 0
BBX 10 10 0 -1
BITMAP
2000
2F80
4200
CF80
4A80
4F80
4A80
5FC0
4880
4980
ENDCHAR
STARTCHAR uni4FA3
ENCODING 20387
SWIDTH 1000 0
SWIDTH1 1000 0
BBX 10 10 0 -1
BITMAP
1780
1480
2480
6780
A000
2FC0
2840
2840
2FC0
2840
ENDCHAR
STARTCHAR uni4FA4
ENCODING 20388
SWIDTH 1000 0
SWIDTH1 1000 0
BBX 10 10 0 -1
BITMAP
1200
1740
2280
6FC0
A200
27C0
2900
31C0
2040
2180
ENDCHAR
STARTCHAR uni4FA5
ENCODING 20389
SWIDTH 1000 0
SWIDTH1 1000 0
BBX 10 10 0 -1
BITMAP
2400
27C0
5D00
C240
5DC0
4000
5FC0
4500
4540
58C0
ENDCHAR
STARTCHAR uni4FA6
ENCODING 20390
SWIDTH 1000 0
SWIDTH1 1000 0
BBX 10 10 0 -1
BITMAP
1200
13C0
2200
2F80
6880
AA80
2A80
2A80
2500
2880
ENDCHAR
STARTCHAR uni4FA7
ENCODING 20391
SWIDTH 1000 0
SWIDTH1 1000 0
BBX 10 10 0 -1
BITMAP
2040
3C40
4540
D540
5540
5540
5540
5140
6840
44C0
ENDCHAR
STARTCHAR uni4FA8
ENCODING 20392
SWIDTH 1000 0
SWIDTH1 1000 0
BBX 10 10 0 -1
BITMAP
1180
2E00
2200
6FC0
A500
28C0
3480
2480
2480
2880
ENDCHAR
STARTCHAR uni4FA9
ENCODING 20393
SWIDTH 1000 0
SWIDTH1 1000 0
BBX 10 10 0 -1
BITMAP
1200
1500
28C0
7700
A000
2FC0
2200
2480
2FC0
2040
ENDCHAR
STARTCHAR uni4FAA
ENCODING 20394
SWIDTH 1000 0
SWIDTH1 1000 0
BBX 10 10 0 -1
BITMAP
1200
2FC0
2480
6480
A300
3CC0
2480
2480
2480
2880
ENDCHAR
STARTCHAR uni4FAB
ENCODING 20395
SWIDTH 1000 0
SWIDTH1 1000 0
BBX 10 10 0 -1
BITMAP
1200
2100
3FC0
6800
AFC0
2200
2FC0
2480
2300
2C80
ENDCHAR
STARTCHAR uni4FAC
ENCODING 20396
SWIDTH 1000 0
SWIDTH1 1000 0
BBX 10 10 0 -1
BITMAP
1200
2200
2FC0
6A40
A200
2540
2D80
3480
2680
2C40
ENDCHAR
STARTCHAR uni4FAD
ENCODING 20397
SWIDTH 1000 0
SWIDTH1 1000 0
BBX 10 10 0 -1
BITMAP
17C0
2440
2440
67C0
A500
2880
2A40
3100
2600
2180
ENDCHAR
STARTCHAR uni4FAE
ENCODING 20398
SWIDTH 1000 0
SWIDTH1 1000 0
BBX 10 10 0 -1
BITMAP
2800
2FC0
5000
EF80
4A80
7FC0
5280
5FC0
4080
4300
ENDCHAR
STARTCHAR uni4FAF
ENCODING 20399
SWIDTH 1000 0
SWIDTH1 1000 0
BBX 10 10 0 -1
BITMAP
2F00
2100
5FC0
C800
4F80
5200
5FC0
4200
4500
58C0
ENDCHAR
STARTCHAR uni4FB0
ENCODING 20400
SWIDTH 1000 0
SWIDTH1 1000 0
BBX 10 10 0 -1
BITMAP
1780
2280
2FC0
6280
AF80
2400
2FC0
3440
27C0
2440
ENDCHAR
STARTCHAR uni4FB1
ENCODING 20401
SWIDTH 1000 0
SWIDTH1 1000 0
BBX 10 10 0 -1
BITMAP
1000
2F80
2880
6F80
A000
2F80
2200
2F80
2200
3FC0
ENDCHAR
STARTCHAR uni4FB2
ENCODING 20402
SWIDTH 1000 0
SWIDTH1 1000 0
BBX 10 10 0 -1
BITMAP
2000
5FC0
5000
D780
5000
5FC0
5540
5580
5480
6640
ENDCHAR
STARTCHAR uni4FB3
ENCODING 20403
SWIDTH 1000 0
SWIDTH1 1000 0
BBX 10 10 0 -1
BITMAP
1200
2A80
2A80
6A80
B740
2200
2F80
2200
3FC0
2000
ENDCHAR
STARTCHAR uni4FB4
ENCODING 20404
SWIDTH 1000 0
SWIDTH1 1000 0
BBX 10 10 0 -1
BITMAP
0C00
3300
DEC0
0000
7880
2A80
7A80
2A80
3C80
C180
ENDCHAR
STARTCHAR uni4FB5
ENCODING 20405
SWIDTH 1000 0
SWIDTH1 1000 0
BBX 10 10 0 -1
BITMAP
2F80
2080
4F80
4080
DFC0
5040
4F80
4480
4300
5CC0
ENDCHAR
STARTCHAR uni4FB6
ENCODING 20406
SWIDTH 1000 0
SWIDTH1 1000 0
BBX 10 10 0 -1
BITMAP
1000
1780
2480
6480
A780
2200
2FC0
2840
2840
2FC0
ENDCHAR
STARTCHAR uni4FB7
ENCODING 20407
SWIDTH 1000 0
SWIDTH1 1000 0
BBX 10 10 0 -1
BITMAP
2F80
2880
4F80
C800
4FC0
4840
5740
5540
6740
40C0
ENDCHAR
STARTCHAR uni4FB8
ENCODING 20408
SWIDTH 1000 0
SWIDTH1 1000 0
BBX 10 10 0 -1
BITMAP
2000
2F80
4000
CF80
4880
4F80
4000
4880
4500
5FC0
ENDCHAR
STARTCHAR uni4FB9
ENCODING 20409
SWIDTH 1000 0
SWIDTH1 1000 0
BBX 10 10 0 -1
BITMAP
2000
38C0
4B00
D100
5BC0
4900
6900
57C0
6800
47C0
ENDCHAR
STARTCHAR uni4FBA
ENCODING 20410
SWIDTH 1000 0
SWIDTH1 1000 0
BBX 10 10 0 -1
BITMAP
2200
5240
5FC0
C600
4900
74C0
4200
5F80
4100
4200
ENDCHAR
STARTCHAR uni4FBB
ENCODING 20411
SWIDTH 1000 0
SWIDTH1 1000 0
BBX 10 10 0 -1
BITMAP
2880
2500
4F80
C880
4880
4F80
4500
4540
4940
70C0
ENDCHAR
STARTCHAR uni4FBC
ENCODING 20412
SWIDTH 1000 0
SWIDTH1 1000 0
BBX 10 10 0 -1
BITMAP
1100
17C0
2100
6FC0
A840
2780
2100
2FC0
2100
2300
ENDCHAR
STARTCHAR uni4FBD
ENCODING 20413
SWIDTH 1000 0
SWIDTH1 1000 0
BBX 10 10 0 -1
BITMAP
17C0
1540
27C0
6540
A7C0
2200
2FC0
2240
2440
2980
ENDCHAR
STARTCHAR uni4FBE
ENCODING 20414
SWIDTH 1000 0
SWIDTH1 1000 0
BBX 10 10 0 -1
BITMAP
1200
1740
2280
6FC0
A200
2F80
2500
3FC0
2100
2300
ENDCHAR
STARTCHAR uni4FBF
ENCODING 20415
SWIDTH 1000 0
SWIDTH1 1000 0
BBX 10 10 0 -1
BITMAP
2FC0
2200
4FC0
CA40
4FC0
4A40
4FC0
4A00
4400
5BC0
ENDCHAR
STARTCHAR uni4FC0
ENCODING 20416
SWIDTH 1000 0
SWIDTH1 1000 0
BBX 10 10 0 -1
BITMAP
11C0
2E00
2A40
6580
A200
2FC0
2480
2480
2300
2C80
ENDCHAR
STARTCHAR uni4FC1
ENCODING 20417
SWIDTH 1000 0
SWIDTH1 1000 0
BBX 10 10 0 -1
BITMAP
2780
2480
5780
D000
5F80
4280
7FC0
4200
4500
58C0
ENDCHAR
STARTCHAR uni4FC2
ENCODING 20418
SWIDTH 1000 0
SWIDTH1 1000 0
BBX 10 10 0 -1
BITMAP
1180
2E00
2200
6480
AF00
22C0
2F40
2200
2A80
3640
ENDCHAR
STARTCHAR uni4FC3
ENCODING 20419
SWIDTH 1000 0
SWIDTH1 1000 0
BBX 10 10 0 -1
BITMAP
2000
2F80
4880
4880
CF80
4200
4B80
4A00
5600
61C0
ENDCHAR
STARTCHAR uni4FC4
ENCODING 20420
SWIDTH 1000 0
SWIDTH1 1000 0
BBX 10 10 0 -1
BITMAP
2500
3980
4940
DFC0
4900
4D40
5980
4B00
4D40
58C0
ENDCHAR
STARTCHAR uni4FC5
ENCODING 20421
SWIDTH 1000 0
SWIDTH1 1000 0
BBX 10 10 0 -1
BITMAP
1280
1240
2FC0
7200
AB40
2780
2A80
3280
2240
2600
ENDCHAR
STARTCHAR uni4FC6
ENCODING 20422
SWIDTH 1000 0
SWIDTH1 1000 0
BBX 10 10 0 -1
BITMAP
1200
2500
2880
7740
A200
2F80
2200
2A80
3240
2600
ENDCHAR
STARTCHAR uni4FC7
ENCODING 20423
SWIDTH 1000 0
SWIDTH1 1000 0
BBX 10 10 0 -1
BITMAP
2000
6B80
5100
D100
6900
4B80
5900
6900
4900
77C0
ENDCHAR
STARTCHAR uni4FC8
ENCODING 20424
SWIDTH 1000 0
SWIDTH1 1000 0
BBX 10 10 0 -1
BITMAP
2200
2A00
4F80
D200
5FC0
4000
4F80
4880
4F80
4880
ENDCHAR
STARTCHAR uni4FC9
ENCODING 20425
SWIDTH 1000 0
SWIDTH1 1000 0
BBX 10 10 0 -1
BITMAP
1000
2F80
2200
6F80
A480
3FC0
2000
2F80
2880
2F80
ENDCHAR
STARTCHAR uni4FCA
ENCODING 20426
SWIDTH 1000 0
SWIDTH1 1000 0
BBX 10 10 0 -1
BITMAP
2400
2500
4880
DFC0
5480
6740
4900
5500
4600
59C0
ENDCHAR
STARTCHAR uni4FCB
ENCODING 20427
SWIDTH 1000 0
SWIDTH1 1000 0
BBX 10 10 0 -1
BITMAP
1000
2F80
2880
6F80
A000
2F80
2A80
2F80
2840
27C0
ENDCHAR
STARTCHAR uni4FCC
ENCODING 20428
SWIDTH 1000 0
SWIDTH1 1000 0
BBX 10 10 0 -1
BITMAP
1280
2FC0
2200
6FC0
AA40
2FC0
2A40
2FC0
2A40
2AC0
ENDCHAR
STARTCHAR uni4FCD
ENCODING 20429
SWIDTH 1000 0
SWIDTH1 1000 0
BBX 10 10 0 -1
BITMAP
1200
2F80
2880
6F80
A880
2F80
2A40
2980
2F00
28C0
ENDCHAR
STARTCHAR uni4FCE
ENCODING 20430
SWIDTH 1000 0
SWIDTH1 1000 0
BBX 10 10 0 -1
BITMAP
2000
2780
5480
5480
8780
2480
2780
5480
5480
8FC0
ENDCHAR
STARTCHAR uni4FCF
ENCODING 20431
SWIDTH 1000 0
SWIDTH1 1000 0
BBX 10 10 0 -1
BITMAP
1100
2540
2380
67C0
A440
27C0
2440
27C0
2440
24C0
ENDCHAR
STARTCHAR uni4FD0
ENCODING 20432
SWIDTH 1000 0
SWIDTH1 1000 0
BBX 10 10 0 -1
BITMAP
2440
5840
4940
FF40
4940
5D40
5B40
6940
4840
48C0
ENDCHAR
STARTCHAR uni4FD1
ENCODING 20433
SWIDTH 1000 0
SWIDTH1 1000 0
BBX 10 10 0 -1
BITMAP
1F80
1480
2300
6FC0
AA40
2FC0
2A40
2FC0
2A40
28C0
ENDCHAR
STARTCHAR uni4FD2
ENCODING 20434
SWIDTH 1000 0
SWIDTH1 1000 0
BBX 10 10 0 -1
BITMAP
1200
2FC0
2840
6780
A000
2FC0
2500
2500
2940
30C0
ENDCHAR
STARTCHAR uni4FD3
ENCODING 20435
SWIDTH 1000 0
SWIDTH1 1000 0
BBX 10 10 0 -1
BITMAP
1000
2FC0
2540
6A80
AA80
2540
2F80
2200
2200
3FC0
ENDCHAR
STARTCHAR uni4FD4
ENCODING 20436
SWIDTH 1000 0
SWIDTH1 1000 0
BBX 10 10 0 -1
BITMAP
1F80
2880
2F80
6880
AF80
2880
2F80
2500
2540
38C0
ENDCHAR
STARTCHAR uni4FD5
ENCODING 20437
SWIDTH 1000 0
SWIDTH1 1000 0
BBX 10 10 0 -1
BITMAP
2200
5FC0
5040
C200
5FC0
4200
4700
4A80
5240
4200
ENDCHAR
STARTCHAR uni4FD6
ENCODING 20438
SWIDTH 1000 0
SWIDTH1 1000 0
BBX 10 10 0 -1
BITMAP
2000
2FC0
4200
C680
4A40
7200
4F80
4880
4880
4F80
ENDCHAR
STARTCHAR uni4FD7
ENCODING 20439
SWIDTH 1000 0
SWIDTH1 1000 0
BBX 10 10 0 -1
BITMAP
1500
1480
2A40
7300
A480
3FC0
2480
2480
2780
2480
ENDCHAR
STARTCHAR uni4FD8
ENCODING 20440
SWIDTH 1000 0
SWIDTH1 1000 0
BBX 10 10 0 -1
BITMAP
11C0
2E80
6A80
6500
A780
2080
2FC0
2100
2100
2600
ENDCHAR
STARTCHAR uni4FD9
ENCODING 20441
SWIDTH 1000 0
SWIDTH1 1000 0
BBX 10 10 0 -1
BITMAP
1480
2300
2C80
6200
AFC0
2500
2FC0
3540
25C0
2100
ENDCHAR
STARTCHAR uni4FDA
ENCODING 20442
SWIDTH 1000 0
SWIDTH1 1000 0
BBX 10 10 0 -1
BITMAP
1000
2F80
2A80
6F80
AA80
2F80
2200
2F80
2200
3FC0
ENDCHAR
STARTCHAR uni4FDB
ENCODING 20443
SWIDTH 1000 0
SWIDTH1 1000 0
BBX 10 10 0 -1
BITMAP
1400
2780
2900
6FC0
AA40
2FC0
2300
2500
2940
30C0
ENDCHAR
STARTCHAR uni4FDC
ENCODING 20444
SWIDTH 1000 0
SWIDTH1 1000 0
BBX 10 10 0 -1
BITMAP
1200
2F80
2A80
6F80
AA80
3FC0
2400
2780
2080
2300
ENDCHAR
STARTCHAR uni4FDD
ENCODING 20445
SWIDTH 1000 0
SWIDTH1 1000 0
BBX 10 10 0 -1
BITMAP
2F80
2880
4F80
C200
5FC0
4200
4700
4A80
5240
4200
ENDCHAR
STARTCHAR uni4FDE
ENCODING 20446
SWIDTH 1000 0
SWIDTH1 1000 0
BBX 10 10 0 -1
BITMAP
0400
0A00
3F00
C0C0
7A80
4A80
7A80
4A80
7880
4980
ENDCHAR
STARTCHAR uni4FDF
ENCODING 20447
SWIDTH 1000 0
SWIDTH1 1000 0
BBX 10 10 0 -1
BITMAP
1200
1480
2FC0
6800
AF80
3200
3FC0
2200
2500
38C0
ENDCHAR
STARTCHAR uni4FE0
ENCODING 20448
SWIDTH 1000 0
SWIDTH1 1000 0
BBX 10 10 0 -1
BITMAP
1200
2200
2FC0
6200
AA80
2A80
3740
2200
2500
38C0
ENDCHAR
STARTCHAR uni4FE1
ENCODING 20449
SWIDTH 1000 0
SWIDTH1 1000 0
BBX 10 10 0 -1
BITMAP
1100
2FC0
2000
6FC0
A000
2FC0
2000
2FC0
2840
2FC0
ENDCHAR
STARTCHAR uni4FE2
ENCODING 20450
SWIDTH 1000 0
SWIDTH1 1000 0
BBX 10 10 0 -1
BITMAP
2780
2C80
4300
DCC0
4200
4D00
4240
4C80
4100
4E00
ENDCHAR
STARTCHAR uni4FE3
ENCODING 20451
SWIDTH 1000 0
SWIDTH1 1000 0
BBX 10 10 0 -1
BITMAP
1000
2F80
2880
6F80
A000
2F80
2200
3FC0
2500
38C0
ENDCHAR
STARTCHAR uni4FE4
ENCODING 20452
SWIDTH 1000 0
SWIDTH1 1000 0
BBX 10 10 0 -1
BITMAP
1480
2500
2F80
6280
AF80
2A00
2FC0
2640
2AC0
3200
ENDCHAR
STARTCHAR uni4FE5
ENCODING 20453
SWIDTH 1000 0
SWIDTH1 1000 0
BBX 10 10 0 -1
BITMAP
2200
5FC0
4A80
CF80
4A80
4F80
4200
5FC0
4200
4200
ENDCHAR
STARTCHAR uni4FE6
ENCODING 20454
SWIDTH 1000 0
SWIDTH1 1000 0
BBX 10 10 0 -1
BITMAP
1200
1FC0
2200
6FC0
A200
3FC0
2480
2FC0
3280
2180
ENDCHAR
STARTCHAR uni4FE7
ENCODING 20455
SWIDTH 1000 0
SWIDTH1 1000 0
BBX 10 10 0 -1
BITMAP
2200
2200
5FC0
C200
4F80
4000
4A40
5A40
6880
4780
ENDCHAR
STARTCHAR uni4FE8
ENCODING 20456
SWIDTH 1000 0
SWIDTH1 1000 0
BBX 10 10 0 -1
BITMAP
1000
2FC0
2500
7540
AD80
2FC0
2800
2800
2800
3000
ENDCHAR
STARTCHAR uni4FE9
ENCODING 20457
SWIDTH 1000 0
SWIDTH1 1000 0
BBX 10 10 0 -1
BITMAP
2000
3FC0
4500
DFC0
5540
5540
5540
5AC0
5040
50C0
ENDCHAR
STARTCHAR uni4FEA
ENCODING 20458
SWIDTH 1000 0
SWIDTH1 1000 0
BBX 10 10 0 -1
BITMAP
2000
3FC0
4000
5DC0
D240
5B40
56C0
5240
5240
56C0
ENDCHAR
STARTCHAR uni4FEB
ENCODING 20459
SWIDTH 1000 0
SWIDTH1 1000 0
BBX 10 10 0 -1
BITMAP
2200
2200
5FC0
CA80
4700
5FC0
4700
4A80
5240
4200
ENDCHAR
STARTCHAR uni4FEC
ENCODING 20460
SWIDTH 1000 0
SWIDTH1 1000 0
BBX 10 10 0 -1
BITMAP
2500
5900
4900
DD00
4900
5D00
6A40
4AC0
4B40
4800
ENDCHAR
STARTCHAR uni4FED
ENCODING 20461
SWIDTH 1000 0
SWIDTH1 1000 0
BBX 10 10 0 -1
BITMAP
2400
2600
4900
D0C0
6F00
4000
5500
5500
4A00
5F80
ENDCHAR
STARTCHAR uni4FEE
ENCODING 20462
SWIDTH 1000 0
SWIDTH1 1000 0
BBX 10 10 0 -1
BITMAP
1200
1380
2480
6A80
A900
2EC0
2880
2B40
2080
2700
ENDCHAR
STARTCHAR uni4FEF
ENCODING 20463
SWIDTH 1000 0
SWIDTH1 1000 0
BBX 10 10 0 -1
BITMAP
2400
2200
5FC0
D480
57C0
5C80
5680
5580
5480
6580
ENDCHAR
STARTCHAR uni4FF0
ENCODING 20464
SWIDTH 1000 0
SWIDTH1 1000 0
BBX 10 10 0 -1
BITMAP
2400
59C0
4940
DD40
4940
5D40
6B40
49C0
4940
4800
ENDCHAR
STARTCHAR uni4FF1
ENCODING 20465
SWIDTH 1000 0
SWIDTH1 1000 0
BBX 10 10 0 -1
BITMAP
2000
2F80
4880
CF80
4880
4F80
4880
5FC0
4500
4880
ENDCHAR
STARTCHAR uni4FF2
ENCODING 20466
SWIDTH 1000 0
SWIDTH1 1000 0
BBX 10 10 0 -1
BITMAP
2900
4900
7FC0
D540
6340
5540
5540
4940
7540
42C0
ENDCHAR
STARTCHAR uni4FF3
ENCODING 20467
SWIDTH 1000 0
SWIDTH1 1000 0
BBX 10 10 0 -1
BITMAP
2500
2500
5DC0
4500
DDC0
4500
4500
5DC0
4500
4500
ENDCHAR
STARTCHAR uni4FF4
ENCODING 20468
SWIDTH 1000 0
SWIDTH1 1000 0
BBX 10 10 0 -1
BITMAP
2500
2780
5D00
C640
43C0
5C80
47C0
5D00
4640
59C0
ENDCHAR
STARTCHAR uni4FF5
ENCODING 20469
SWIDTH 1000 0
SWIDTH1 1000 0
BBX 10 10 0 -1
BITMAP
2200
2F80
4200
CF80
4200
5FC0
4640
4A80
7900
4CC0
ENDCHAR
STARTCHAR uni4FF6
ENCODING 20470
SWIDTH 1000 0
SWIDTH1 1000 0
BBX 10 10 0 -1
BITMAP
2800
2DC0
4840
FF40
4940
5D40
5A80
6880
4980
5A40
ENDCHAR
STARTCHAR uni4FF7
ENCODING 20471
SWIDTH 1000 0
SWIDTH1 1000 0
BBX 10 10 0 -1
BITMAP
2000
3FC0
5540
DD40
5540
5FC0
5400
5440
5440
6BC0
ENDCHAR
STARTCHAR uni4FF8
ENCODING 20472
SWIDTH 1000 0
SWIDTH1 1000 0
BBX 10 10 0 -1
BITMAP
1200
2F80
2200
7FC0
A500
2A80
3740
2200
2F80
2200
ENDCHAR
STARTCHAR uni4FF9
ENCODING 20473
SWIDTH 1000 0
SWIDTH1 1000 0
BBX 10 10 0 -1
BITMAP
2000
3FC0
4500
DDC0
5040
5040
5DC0
4500
4500
7FC0
ENDCHAR
STARTCHAR uni4FFA
ENCODING 20474
SWIDTH 1000 0
SWIDTH1 1000 0
BBX 10 10 0 -1
BITMAP
2400
3F80
4900
D4C0
7F00
5500
5F00
5500
5E40
43C0
ENDCHAR
STARTCHAR uni4FFB
ENCODING 20475
SWIDTH 1000 0
SWIDTH1 1000 0
BBX 10 10 0 -1
BITMAP
1200
2780
2C80
6300
A4C0
3F80
2A80
2F80
2A80
2F80
ENDCHAR
STARTCHAR uni4FFC
ENCODING 20476
SWIDTH 1000 0
SWIDTH1 1000 0
BBX 10 10 0 -1
BITMAP
1200
2FC0
2480
6F40
A880
2F80
2880
2F80
2880
2980
ENDCHAR
STARTCHAR uni4FFD
ENCODING 20477
SWIDTH 1000 0
SWIDTH1 1000 0
BBX 10 10 0 -1
BITMAP
2500
5900
53C0
DC40
5500
5500
5500
5500
5680
6440
ENDCHAR
STARTCHAR uni4FFE
ENCODING 20478
SWIDTH 1000 0
SWIDTH1 1000 0
BBX 10 10 0 -1
BITMAP
1200
2FC0
2A40
6FC0
AA40
2FC0
2500
3FC0
2100
2100
ENDCHAR
STARTCHAR uni4FFF
ENCODING 20479
SWIDTH 1000 0
SWIDTH1 1000 0
BBX 10 10 0 -1
BITMAP
2780
2400
5FC0
D740
5C80
5780
5000
5700
5540
69C0
ENDCHAR
STARTCHAR uni5000
ENCODING 20480
SWIDTH 1000 0
SWIDTH1 1000 0
BBX 10 10 0 -1
BITMAP
2FC0
2800
4F80
C800
4FC0
4800
5FC0
4A80
4900
4EC0
ENDCHAR
STARTCHAR uni5001
ENCODING 20481
SWIDTH 1000 0
SWIDTH1 1000 0
BBX 10 10 0 -1
BITMAP
2800
29C0
4F40
D540
4540
5F40
4540
4540
4BC0
5140
ENDCHAR
STARTCHAR uni5002
ENCODING 20482
SWIDTH 1000 0
SWIDTH1 1000 0
BBX 10 10 0 -1
BITMAP
2440
2880
5DC0
C880
4880
5DC0
4880
4880
4880
5080
ENDCHAR
STARTCHAR uni5003
ENCODING 20483
SWIDTH 1000 0
SWIDTH1 1000 0
BBX 10 10 0 -1
BITMAP
2880
2E80
52C0
EA80
4480
4B00
70C0
4F80
4880
4F80
ENDCHAR
STARTCHAR uni5004
ENCODING 20484
SWIDTH 1000 0
SWIDTH1 1000 0
BBX 10 10 0 -1
BITMAP
1480
2300
2680
6FC0
A480
2F80
3480
2780
2480
2580
ENDCHAR
STARTCHAR uni5005
ENCODING 20485
SWIDTH 1000 0
SWIDTH1 1000 0
BBX 10 10 0 -1
BITMAP
2200
3FC0
4880
C880
5540
4200
5FC0
4200
4200
4200
ENDCHAR
STARTCHAR uni5006
ENCODING 20486
SWIDTH 1000 0
SWIDTH1 1000 0
BBX 10 10 0 -1
BITMAP
2000
3FC0
4200
DFC0
5240
5B40
56C0
5B40
5240
52C0
ENDCHAR
STARTCHAR uni5007
ENCODING 20487
SWIDTH 1000 0
SWIDTH1 1000 0
BBX 10 10 0 -1
BITMAP
2200
3FC0
5040
CDC0
5540
5540
6D80
4900
4940
50C0
ENDCHAR
STARTCHAR uni5008
ENCODING 20488
SWIDTH 1000 0
SWIDTH1 1000 0
BBX 10 10 0 -1
BITMAP
2200
2200
5FC0
CA80
4A80
5740
4200
4700
4A80
5240
ENDCHAR
STARTCHAR uni5009
ENCODING 20489
SWIDTH 1000 0
SWIDTH1 1000 0
BBX 10 10 0 -1
BITMAP
0400
1B00
E4C0
3F80
2080
3F80
2080
3FC0
2840
4FC0
ENDCHAR
STARTCHAR uni500A
ENCODING 20490
SWIDTH 1000 0
SWIDTH1 1000 0
BBX 10 10 0 -1
BITMAP
2500
2880
5240
C480
4F80
4000
4240
5940
6880
4F80
ENDCHAR
STARTCHAR uni500B
ENCODING 20491
SWIDTH 1000 0
SWIDTH1 1000 0
BBX 10 10 0 -1
BITMAP
2000
3FC0
5240
DFC0
5240
5740
5540
5740
5040
5FC0
ENDCHAR
STARTCHAR uni500C
ENCODING 20492
SWIDTH 1000 0
SWIDTH1 1000 0
BBX 10 10 0 -1
BITMAP
1200
1FC0
2840
6780
A480
2780
2400
27C0
2440
27C0
ENDCHAR
STARTCHAR uni500D
ENCODING 20493
SWIDTH 1000 0
SWIDTH1 1000 0
BBX 10 10 0 -1
BITMAP
2400
2200
5FC0
C880
4500
5FC0
4000
4F80
4880
4F80
ENDCHAR
STARTCHAR uni500E
ENCODING 20494
SWIDTH 1000 0
SWIDTH1 1000 0
BBX 10 10 0 -1
BITMAP
2500
3FC0
5540
D540
5FC0
5540
5540
7FC0
4880
5040
ENDCHAR
STARTCHAR uni500F
ENCODING 20495
SWIDTH 1000 0
SWIDTH1 1000 0
BBX 10 10 0 -1
BITMAP
2200
23C0
4480
DB00
54C0
5280
5FC0
5200
4500
5880
ENDCHAR
STARTCHAR uni5010
ENCODING 20496
SWIDTH 1000 0
SWIDTH1 1000 0
BBX 10 10 0 -1
BITMAP
2200
23C0
5640
D980
5640
5100
5540
5580
4280
4C40
ENDCHAR
STARTCHAR uni5011
ENCODING 20497
SWIDTH 1000 0
SWIDTH1 1000 0
BBX 10 10 0 -1
BITMAP
2000
3DC0
5540
DDC0
5540
5DC0
5040
5040
5040
50C0
ENDCHAR
STARTCHAR uni5012
ENCODING 20498
SWIDTH 1000 0
SWIDTH1 1000 0
BBX 10 10 0 -1
BITMAP
2040
5E40
4940
D540
5F40
4940
5D40
4840
4E40
70C0
ENDCHAR
STARTCHAR uni5013
ENCODING 20499
SWIDTH 1000 0
SWIDTH1 1000 0
BBX 10 10 0 -1
BITMAP
2200
2A80
5300
C480
5840
4200
4A40
5280
4500
58C0
ENDCHAR
STARTCHAR uni5014
ENCODING 20500
SWIDTH 1000 0
SWIDTH1 1000 0
BBX 10 10 0 -1
BITMAP
2FC0
2840
4FC0
C900
4D40
4FC0
4900
4D40
5540
67C0
ENDCHAR
STARTCHAR uni5015
ENCODING 20501
SWIDTH 1000 0
SWIDTH1 1000 0
BBX 10 10 0 -1
BITMAP
1180
2E00
2200
7FC0
AA80
3FC0
2A80
3FC0
2200
2F80
ENDCHAR
STARTCHAR uni5016
ENCODING 20502
SWIDTH 1000 0
SWIDTH1 1000 0
BBX 10 10 0 -1
BITMAP
2200
2F80
4200
DFC0
4500
4F80
4200
5FC0
4200
4200
ENDCHAR
STARTCHAR uni5017
ENCODING 20503
SWIDTH 1000 0
SWIDTH1 1000 0
BBX 10 10 0 -1
BITMAP
2000
3DC0
5540
DDC0
5540
5DC0
5540
5540
5540
6A80
ENDCHAR
STARTCHAR uni5018
ENCODING 20504
SWIDTH 1000 0
SWIDTH1 1000 0
BBX 10 10 0 -1
BITMAP
2200
3240
4A80
DFC0
5040
5740
5540
5740
5040
5180
ENDCHAR
STARTCHAR uni5019
ENCODING 20505
SWIDTH 1000 0
SWIDTH1 1000 0
BBX 10 10 0 -1
BITMAP
2780
2080
4FC0
D400
57C0
5900
57C0
5100
4280
4C40
ENDCHAR
STARTCHAR uni501A
ENCODING 20506
SWIDTH 1000 0
SWIDTH1 1000 0
BBX 10 10 0 -1
BITMAP
2200
2F80
4500
4880
DFC0
4080
4E80
4A80
4E80
4180
ENDCHAR
STARTCHAR uni501B
ENCODING 20507
SWIDTH 1000 0
SWIDTH1 1000 0
BBX 10 10 0 -1
BITMAP
2880
3FC0
4880
CF80
4880
4F80
4880
5FC0
4880
5040
ENDCHAR
STARTCHAR uni501C
ENCODING 20508
SWIDTH 1000 0
SWIDTH1 1000 0
BBX 10 10 0 -1
BITMAP
3FC0
5240
5740
D240
5FC0
5040
5740
5540
5740
60C0
ENDCHAR
STARTCHAR uni501D
ENCODING 20509
SWIDTH 1000 0
SWIDTH1 1000 0
BBX 10 10 0 -1
BITMAP
2100
FD00
2100
7900
4900
7900
4900
FE80
2280
2440
ENDCHAR
STARTCHAR uni501E
ENCODING 20510
SWIDTH 1000 0
SWIDTH1 1000 0
BBX 10 10 0 -1
BITMAP
1200
2FC0
2000
6F80
A880
2F80
2200
2A80
3240
2600
ENDCHAR
STARTCHAR uni501F
ENCODING 20511
SWIDTH 1000 0
SWIDTH1 1000 0
BBX 10 10 0 -1
BITMAP
2500
2F80
4500
DFC0
4000
4F80
4880
4F80
4880
4F80
ENDCHAR
STARTCHAR uni5020
ENCODING 20512
SWIDTH 1000 0
SWIDTH1 1000 0
BBX 10 10 0 -1
BITMAP
1500
2480
2FC0
6900
BFC0
2900
2FC0
2900
2FC0
2800
ENDCHAR
STARTCHAR uni5021
ENCODING 20513
SWIDTH 1000 0
SWIDTH1 1000 0
BBX 10 10 0 -1
BITMAP
1780
2480
2780
6480
AFC0
2840
2FC0
2840
2FC0
2840
ENDCHAR
STARTCHAR uni5022
ENCODING 20514
SWIDTH 1000 0
SWIDTH1 1000 0
BBX 10 10 0 -1
BITMAP
2200
2FC0
4280
DFC0
4280
4F80
4200
4B80
4E00
53C0
ENDCHAR
STARTCHAR uni5023
ENCODING 20515
SWIDTH 1000 0
SWIDTH1 1000 0
BBX 10 10 0 -1
BITMAP
2900
4900
7DC0
D140
5E40
5540
5540
5480
6C80
4340
ENDCHAR
STARTCHAR uni5024
ENCODING 20516
SWIDTH 1000 0
SWIDTH1 1000 0
BBX 10 10 0 -1
BITMAP
2200
2FC0
4200
D780
5480
5780
5480
5780
5480
5FC0
ENDCHAR
STARTCHAR uni5025
ENCODING 20517
SWIDTH 1000 0
SWIDTH1 1000 0
BBX 10 10 0 -1
BITMAP
1200
2FC0
2840
6480
A840
2F80
2200
2200
3FC0
2000
ENDCHAR
STARTCHAR uni5026
ENCODING 20518
SWIDTH 1000 0
SWIDTH1 1000 0
BBX 10 10 0 -1
BITMAP
2A80
2700
5FC0
C400
7FC0
4880
5F40
6900
4A80
4780
ENDCHAR
STARTCHAR uni5027
ENCODING 20519
SWIDTH 1000 0
SWIDTH1 1000 0
BBX 10 10 0 -1
BITMAP
2200
5FC0
5040
CF80
4000
5FC0
4200
4A80
5240
4600
ENDCHAR
STARTCHAR uni5028
ENCODING 20520
SWIDTH 1000 0
SWIDTH1 1000 0
BBX 10 10 0 -1
BITMAP
1000
1FC0
2840
6FC0
A900
2FC0
2900
2FC0
2C40
37C0
ENDCHAR
STARTCHAR uni5029
ENCODING 20521
SWIDTH 1000 0
SWIDTH1 1000 0
BBX 10 10 0 -1
BITMAP
1200
2F80
2200
6F80
A200
3FC0
2880
2F80
2880
2980
ENDCHAR
STARTCHAR uni502A
ENCODING 20522
SWIDTH 1000 0
SWIDTH1 1000 0
BBX 10 10 0 -1
BITMAP
2400
59C0
5040
DDC0
5040
5FC0
4500
4500
4940
50C0
ENDCHAR
STARTCHAR uni502B
ENCODING 20523
SWIDTH 1000 0
SWIDTH1 1000 0
BBX 10 10 0 -1
BITMAP
2200
2500
4880
D740
4000
5FC0
5540
5FC0
5540
50C0
ENDCHAR
STARTCHAR uni502C
ENCODING 20524
SWIDTH 1000 0
SWIDTH1 1000 0
BBX 10 10 0 -1
BITMAP
2780
2400
5F80
D080
5F80
5080
5F80
4400
7FC0
4400
ENDCHAR
STARTCHAR uni502D
ENCODING 20525
SWIDTH 1000 0
SWIDTH1 1000 0
BBX 10 10 0 -1
BITMAP
1180
2E00
2200
7FC0
A680
3A40
2FC0
2480
2300
2C80
ENDCHAR
STARTCHAR uni502E
ENCODING 20526
SWIDTH 1000 0
SWIDTH1 1000 0
BBX 10 10 0 -1
BITMAP
1000
2F80
2A80
6F80
AA80
2F80
2200
3FC0
2A80
3240
ENDCHAR
STARTCHAR uni502F
ENCODING 20527
SWIDTH 1000 0
SWIDTH1 1000 0
BBX 10 10 0 -1
BITMAP
2880
2A80
5E80
CA40
4A40
5D00
6900
4A00
4AC0
4B40
ENDCHAR
STARTCHAR uni5030
ENCODING 20528
SWIDTH 1000 0
SWIDTH1 1000 0
BBX 10 10 0 -1
BITMAP
2200
2F80
4200
DFC0
4880
5440
6780
4C80
4300
5CC0
ENDCHAR
STARTCHAR uni5031
ENCODING 20529
SWIDTH 1000 0
SWIDTH1 1000 0
BBX 10 10 0 -1
BITMAP
2F80
2880
4F80
4880
CF80
5100
5DC0
5100
5540
58C0
ENDCHAR
STARTCHAR uni5032
ENCODING 20530
SWIDTH 1000 0
SWIDTH1 1000 0
BBX 10 10 0 -1
BITMAP
2200
3FC0
4A80
CF80
4A80
4F80
4700
4A80
7240
4200
ENDCHAR
STARTCHAR uni5033
ENCODING 20531
SWIDTH 1000 0
SWIDTH1 1000 0
BBX 10 10 0 -1
BITMAP
2400
5F80
5500
FF80
4480
7FC0
4480
5F80
4400
4C00
ENDCHAR
STARTCHAR uni5034
ENCODING 20532
SWIDTH 1000 0
SWIDTH1 1000 0
BBX 10 10 0 -1
BITMAP
2200
5FC0
4500
CA80
7740
4A80
5FC0
4880
4880
5080
ENDCHAR
STARTCHAR uni5035
ENCODING 20533
SWIDTH 1000 0
SWIDTH1 1000 0
BBX 10 10 0 -1
BITMAP
2180
2D40
4100
FFC0
4500
5700
5540
5740
78C0
4040
ENDCHAR
STARTCHAR uni5036
ENCODING 20534
SWIDTH 1000 0
SWIDTH1 1000 0
BBX 10 10 0 -1
BITMAP
2000
2F80
4880
CF80
4880
4F80
4880
5FC0
4480
5840
ENDCHAR
STARTCHAR uni5037
ENCODING 20535
SWIDTH 1000 0
SWIDTH1 1000 0
BBX 10 10 0 -1
BITMAP
1200
2FC0
2500
6880
B740
2000
2FC0
2200
2A80
3640
ENDCHAR
STARTCHAR uni5038
ENCODING 20536
SWIDTH 1000 0
SWIDTH1 1000 0
BBX 10 10 0 -1
BITMAP
1180
2E00
2A40
6480
A200
2FC0
2700
2A80
3240
2200
ENDCHAR
STARTCHAR uni5039
ENCODING 20537
SWIDTH 1000 0
SWIDTH1 1000 0
BBX 10 10 0 -1
BITMAP
1200
2500
2F80
7240
AF80
2A80
2F80
2200
2500
38C0
ENDCHAR
STARTCHAR uni503A
ENCODING 20538
SWIDTH 1000 0
SWIDTH1 1000 0
BBX 10 10 0 -1
BITMAP
1200
2FC0
2200
6F80
A200
3FC0
2A80
2A80
2500
3880
ENDCHAR
STARTCHAR uni503B
ENCODING 20539
SWIDTH 1000 0
SWIDTH1 1000 0
BBX 10 10 0 -1
BITMAP
2000
3FC0
5540
DD40
5580
5D40
5740
7D80
4500
4500
ENDCHAR
STARTCHAR uni503C
ENCODING 20540
SWIDTH 1000 0
SWIDTH1 1000 0
BBX 10 10 0 -1
BITMAP
2200
2FC0
4200
CF80
4880
4F80
4880
4F80
4880
5FC0
ENDCHAR
STARTCHAR uni503D
ENCODING 20541
SWIDTH 1000 0
SWIDTH1 1000 0
BBX 10 10 0 -1
BITMAP
2200
2500
4880
F740
4200
5FC0
4200
4F80
4880
4F80
ENDCHAR
STARTCHAR uni503E
ENCODING 20542
SWIDTH 1000 0
SWIDTH1 1000 0
BBX 10 10 0 -1
BITMAP
27C0
5100
57C0
DC40
5540
5540
5540
5900
5280
4440
ENDCHAR
STARTCHAR uni503F
ENCODING 20543
SWIDTH 1000 0
SWIDTH1 1000 0
BBX 10 10 0 -1
BITMAP
2200
3FC0
4880
C500
5FC0
4400
7FC0
4900
4600
5980
ENDCHAR
STARTCHAR uni5040
ENCODING 20544
SWIDTH 1000 0
SWIDTH1 1000 0
BBX 10 10 0 -1
BITMAP
1500
1FC0
2500
6200
AF80
2A80
2A80
3FC0
2500
38C0
ENDCHAR
STARTCHAR uni5041
ENCODING 20545
SWIDTH 1000 0
SWIDTH1 1000 0
BBX 10 10 0 -1
BITMAP
23C0
5C80
5500
DF80
5480
5F80
5480
7FC0
5080
5180
ENDCHAR
STARTCHAR uni5042
ENCODING 20546
SWIDTH 1000 0
SWIDTH1 1000 0
BBX 10 10 0 -1
BITMAP
2900
3FC0
4000
DC40
5540
5D40
5540
5D40
5440
54C0
ENDCHAR
STARTCHAR uni5043
ENCODING 20547
SWIDTH 1000 0
SWIDTH1 1000 0
BBX 10 10 0 -1
BITMAP
3FC0
5480
5780
D480
5780
5200
5FC0
5280
5100
5FC0
ENDCHAR
STARTCHAR uni5044
ENCODING 20548
SWIDTH 1000 0
SWIDTH1 1000 0
BBX 10 10 0 -1
BITMAP
3FC0
4200
5FC0
D540
5540
50C0
4200
5FC0
4500
58C0
ENDCHAR
STARTCHAR uni5045
ENCODING 20549
SWIDTH 1000 0
SWIDTH1 1000 0
BBX 10 10 0 -1
BITMAP
2180
2E00
4200
DFC0
4A80
4F80
4A80
4F80
4200
5FC0
ENDCHAR
STARTCHAR uni5046
ENCODING 20550
SWIDTH 1000 0
SWIDTH1 1000 0
BBX 10 10 0 -1
BITMAP
2200
2F80
4200
CF80
4400
5FC0
4880
5FC0
6880
4F80
ENDCHAR
STARTCHAR uni5047
ENCODING 20551
SWIDTH 1000 0
SWIDTH1 1000 0
BBX 10 10 0 -1
BITMAP
3DC0
5440
55C0
DC00
53C0
5D40
5140
5C80
5180
5640
ENDCHAR
STARTCHAR uni5048
ENCODING 20552
SWIDTH 1000 0
SWIDTH1 1000 0
BBX 10 10 0 -1
BITMAP
2F80
2880
4F80
C880
4FC0
5240
6D40
4840
4F40
4180
ENDCHAR
STARTCHAR uni5049
ENCODING 20553
SWIDTH 1000 0
SWIDTH1 1000 0
BBX 10 10 0 -1
BITMAP
2200
2F80
4480
DFC0
4880
7FC0
5200
5FC0
4200
4200
ENDCHAR
STARTCHAR uni504A
ENCODING 20554
SWIDTH 1000 0
SWIDTH1 1000 0
BBX 10 10 0 -1
BITMAP
3F80
2400
5F80
D480
5F80
4400
5FC0
5540
5EC0
5040
ENDCHAR
STARTCHAR uni504B
ENCODING 20555
SWIDTH 1000 0
SWIDTH1 1000 0
BBX 10 10 0 -1
BITMAP
3F80
5080
5F80
D500
5F80
5500
5FC0
5500
5500
6900
ENDCHAR
STARTCHAR uni504C
ENCODING 20556
SWIDTH 1000 0
SWIDTH1 1000 0
BBX 10 10 0 -1
BITMAP
1480
2FC0
2480
6200
AFC0
2400
2FC0
3440
27C0
2440
ENDCHAR
STARTCHAR uni504D
ENCODING 20557
SWIDTH 1000 0
SWIDTH1 1000 0
BBX 10 10 0 -1
BITMAP
2000
2F80
4880
CF80
4880
5FC0
4200
4B80
4A00
57C0
ENDCHAR
STARTCHAR uni504E
ENCODING 20558
SWIDTH 1000 0
SWIDTH1 1000 0
BBX 10 10 0 -1
BITMAP
2F80
2A80
4F80
4A80
CF80
4000
5FC0
4A80
4900
4CC0
ENDCHAR
STARTCHAR uni504F
ENCODING 20559
SWIDTH 1000 0
SWIDTH1 1000 0
BBX 10 10 0 -1
BITMAP
1200
2FC0
2840
6FC0
A800
2FC0
3540
3FC0
3540
24C0
ENDCHAR
STARTCHAR uni5050
ENCODING 20560
SWIDTH 1000 0
SWIDTH1 1000 0
BBX 10 10 0 -1
BITMAP
1200
2FC0
2480
6FC0
A880
2B40
2880
2B40
2880
3700
ENDCHAR
STARTCHAR uni5051
ENCODING 20561
SWIDTH 1000 0
SWIDTH1 1000 0
BBX 10 10 0 -1
BITMAP
3F80
5080
5E80
D480
5F80
5580
5F80
54C0
5F40
6140
ENDCHAR
STARTCHAR uni5052
ENCODING 20562
SWIDTH 1000 0
SWIDTH1 1000 0
BBX 10 10 0 -1
BITMAP
2F80
2880
4F80
C880
5FC0
4800
4FC0
5540
4A40
44C0
ENDCHAR
STARTCHAR uni5053
ENCODING 20563
SWIDTH 1000 0
SWIDTH1 1000 0
BBX 10 10 0 -1
BITMAP
2FC0
2840
4FC0
C900
4A80
4FC0
4900
5780
5100
6FC0
ENDCHAR
STARTCHAR uni5054
ENCODING 20564
SWIDTH 1000 0
SWIDTH1 1000 0
BBX 10 10 0 -1
BITMAP
2000
3DC0
5540
DFC0
4000
5FC0
4400
4F80
4080
4300
ENDCHAR
STARTCHAR uni5055
ENCODING 20565
SWIDTH 1000 0
SWIDTH1 1000 0
BBX 10 10 0 -1
BITMAP
1940
2D80
2B40
6DC0
A200
2FC0
2840
2FC0
2840
2FC0
ENDCHAR
STARTCHAR uni5056
ENCODING 20566
SWIDTH 1000 0
SWIDTH1 1000 0
BBX 10 10 0 -1
BITMAP
1200
2740
2280
7FC0
A200
27C0
2C40
37C0
2440
27C0
ENDCHAR
STARTCHAR uni5057
ENCODING 20567
SWIDTH 1000 0
SWIDTH1 1000 0
BBX 10 10 0 -1
BITMAP
2200
2A80
5240
C780
4880
7F80
4880
4F80
4880
4F80
ENDCHAR
STARTCHAR uni5058
ENCODING 20568
SWIDTH 1000 0
SWIDTH1 1000 0
BBX 10 10 0 -1
BITMAP
2F80
2880
4880
CF80
4000
5DC0
5540
5540
5DC0
5540
ENDCHAR
STARTCHAR uni5059
ENCODING 20569
SWIDTH 1000 0
SWIDTH1 1000 0
BBX 10 10 0 -1
BITMAP
2200
2F80
4500
DFC0
5240
4F80
4A80
4A80
4B80
4200
ENDCHAR
STARTCHAR uni505A
ENCODING 20570
SWIDTH 1000 0
SWIDTH1 1000 0
BBX 10 10 0 -1
BITMAP
2900
2900
5DC0
4A80
CA80
5E80
5500
5500
5D80
4240
ENDCHAR
STARTCHAR uni505B
ENCODING 20571
SWIDTH 1000 0
SWIDTH1 1000 0
BBX 10 10 0 -1
BITMAP
2180
2E00
4200
DFC0
4600
5AC0
5240
5AC0
5240
5FC0
ENDCHAR
STARTCHAR uni505C
ENCODING 20572
SWIDTH 1000 0
SWIDTH1 1000 0
BBX 10 10 0 -1
BITMAP
1200
1FC0
2480
6780
A000
2FC0
2840
2780
2100
2300
ENDCHAR
STARTCHAR uni505D
ENCODING 20573
SWIDTH 1000 0
SWIDTH1 1000 0
BBX 10 10 0 -1
BITMAP
2540
5D80
4540
DFC0
4880
4F80
4880
4F80
4880
4980
ENDCHAR
STARTCHAR uni505E
ENCODING 20574
SWIDTH 1000 0
SWIDTH1 1000 0
BBX 10 10 0 -1
BITMAP
2A80
3FC0
4A80
CB80
4FC0
4200
5FC0
4700
4A80
5240
ENDCHAR
STARTCHAR uni505F
ENCODING 20575
SWIDTH 1000 0
SWIDTH1 1000 0
BBX 10 10 0 -1
BITMAP
2200
2F80
4880
CF80
4880
5FC0
4200
4F80
4200
5FC0
ENDCHAR
STARTCHAR uni5060
ENCODING 20576
SWIDTH 1000 0
SWIDTH1 1000 0
BBX 10 10 0 -1
BITMAP
3FC0
4500
5FC0
D540
5FC0
4400
5FC0
4880
4700
58C0
ENDCHAR
STARTCHAR uni5061
ENCODING 20577
SWIDTH 1000 0
SWIDTH1 1000 0
BBX 10 10 0 -1
BITMAP
1480
2FC0
2480
6780
A480
3FC0
2800
2A80
2C40
2FC0
ENDCHAR
STARTCHAR uni5062
ENCODING 20578
SWIDTH 1000 0
SWIDTH1 1000 0
BBX 10 10 0 -1
BITMAP
2500
3900
4900
CB40
5D80
4900
5D00
6900
4A80
4C40
ENDCHAR
STARTCHAR uni5063
ENCODING 20579
SWIDTH 1000 0
SWIDTH1 1000 0
BBX 10 10 0 -1
BITMAP
2200
2F80
4500
DFC0
4000
4F80
4880
4F80
4880
4F80
ENDCHAR
STARTCHAR uni5064
ENCODING 20580
SWIDTH 1000 0
SWIDTH1 1000 0
BBX 10 10 0 -1
BITMAP
2880
3FC0
4500
DFC0
5540
59C0
5040
5FC0
5040
5FC0
ENDCHAR
STARTCHAR uni5065
ENCODING 20581
SWIDTH 1000 0
SWIDTH1 1000 0
BBX 10 10 0 -1
BITMAP
2200
5F80
4A80
CFC0
5280
5780
4A00
6F80
5A00
67C0
ENDCHAR
STARTCHAR uni5066
ENCODING 20582
SWIDTH 1000 0
SWIDTH1 1000 0
BBX 10 10 0 -1
BITMAP
2FC0
2240
4B80
CA00
57C0
6880
4F80
4880
4E80
4980
ENDCHAR
STARTCHAR uni5067
ENCODING 20583
SWIDTH 1000 0
SWIDTH1 1000 0
BBX 10 10 0 -1
BITMAP
2400
3FC0
4900
F4C0
4F00
5900
4F80
7480
4300
5C00
ENDCHAR
STARTCHAR uni5068
ENCODING 20584
SWIDTH 1000 0
SWIDTH1 1000 0
BBX 10 10 0 -1
BITMAP
2500
2740
5580
D740
79C0
4200
5FC0
4700
4A80
5240
ENDCHAR
STARTCHAR uni5069
ENCODING 20585
SWIDTH 1000 0
SWIDTH1 1000 0
BBX 10 10 0 -1
BITMAP
2700
2900
5F80
C880
4F80
4880
4F80
4880
4F80
5040
ENDCHAR
STARTCHAR uni506A
ENCODING 20586
SWIDTH 1000 0
SWIDTH1 1000 0
BBX 10 10 0 -1
BITMAP
2000
3FC0
4000
CF80
4880
5FC0
5240
5FC0
5240
5FC0
ENDCHAR
STARTCHAR uni506B
ENCODING 20587
SWIDTH 1000 0
SWIDTH1 1000 0
BBX 10 10 0 -1
BITMAP
2500
2900
57C0
C900
5FC0
6880
4FC0
4A80
4880
4980
ENDCHAR
STARTCHAR uni506C
ENCODING 20588
SWIDTH 1000 0
SWIDTH1 1000 0
BBX 10 10 0 -1
BITMAP
2800
2FC0
5540
6D40
CA40
5580
4400
5AC0
6880
4F80
ENDCHAR
STARTCHAR uni506D
ENCODING 20589
SWIDTH 1000 0
SWIDTH1 1000 0
BBX 10 10 0 -1
BITMAP
2000
3FC0
4200
5FC0
D540
5740
5540
5740
5540
5FC0
ENDCHAR
STARTCHAR uni506E
ENCODING 20590
SWIDTH 1000 0
SWIDTH1 1000 0
BBX 10 10 0 -1
BITMAP
2F80
2880
5FC0
C880
4F80
4880
4F80
48C0
5F80
4080
ENDCHAR
STARTCHAR uni506F
ENCODING 20591
SWIDTH 1000 0
SWIDTH1 1000 0
BBX 10 10 0 -1
BITMAP
2200
3FC0
4000
DF80
5080
5F80
4A80
5900
6E80
4840
ENDCHAR
STARTCHAR uni5070
ENCODING 20592
SWIDTH 1000 0
SWIDTH1 1000 0
BBX 10 10 0 -1
BITMAP
2800
3FC0
4940
DD40
4A40
5CC0
4A00
5FC0
4500
58C0
ENDCHAR
STARTCHAR uni5071
ENCODING 20593
SWIDTH 1000 0
SWIDTH1 1000 0
BBX 10 10 0 -1
BITMAP
2180
3E00
5200
DFC0
5480
5780
5480
5780
5480
6780
ENDCHAR
STARTCHAR uni5072
ENCODING 20594
SWIDTH 1000 0
SWIDTH1 1000 0
BBX 10 10 0 -1
BITMAP
2000
3F80
5480
5F80
D480
5F80
4400
5A80
6940
4F00
ENDCHAR
STARTCHAR uni5073
ENCODING 20595
SWIDTH 1000 0
SWIDTH1 1000 0
BBX 10 10 0 -1
BITMAP
2200
3240
5FC0
C000
5FC0
4200
5FC0
5540
5540
50C0
ENDCHAR
STARTCHAR uni5074
ENCODING 20596
SWIDTH 1000 0
SWIDTH1 1000 0
BBX 10 10 0 -1
BITMAP
2040
5C40
5540
DD40
5540
5D40
5540
5D40
4840
54C0
ENDCHAR
STARTCHAR uni5075
ENCODING 20597
SWIDTH 1000 0
SWIDTH1 1000 0
BBX 10 10 0 -1
BITMAP
1380
1200
2F80
6880
AF80
2880
2F80
2880
2F80
3040
ENDCHAR
STARTCHAR uni5076
ENCODING 20598
SWIDTH 1000 0
SWIDTH1 1000 0
BBX 10 10 0 -1
BITMAP
2F80
4A80
4F80
CA80
4F80
4200
5FC0
5540
5F40
50C0
ENDCHAR
STARTCHAR uni5077
ENCODING 20599
SWIDTH 1000 0
SWIDTH1 1000 0
BBX 10 10 0 -1
BITMAP
2200
2500
58C0
CF00
5440
5D40
5540
5D40
5440
54C0
ENDCHAR
STARTCHAR uni5078
ENCODING 20600
SWIDTH 1000 0
SWIDTH1 1000 0
BBX 10 10 0 -1
BITMAP
2600
2900
56C0
E000
5D40
5540
5E80
5680
5D40
5540
ENDCHAR
STARTCHAR uni5079
ENCODING 20601
SWIDTH 1000 0
SWIDTH1 1000 0
BBX 10 10 0 -1
BITMAP
2200
2380
5480
D300
5CC0
57C0
5540
57C0
4540
47C0
ENDCHAR
STARTCHAR uni507A
ENCODING 20602
SWIDTH 1000 0
SWIDTH1 1000 0
BBX 10 10 0 -1
BITMAP
2880
2E80
52C0
CC80
73C0
4F80
4880
4F80
4880
4F80
ENDCHAR
STARTCHAR uni507B
ENCODING 20603
SWIDTH 1000 0
SWIDTH1 1000 0
BBX 10 10 0 -1
BITMAP
2200
2A80
5FC0
4A80
D240
4400
5FC0
4480
4700
5880
ENDCHAR
ENDFONT
